<svg xmlns="http://www.w3.org/2000/svg" viewBox="0 0 48 48">
  <path
    d="M 11.396484 4.1113281 C 9.1042001 4.2020187 7 6.0721788 7 8.5917969 L 7 39.408203 C 7 42.767694 10.742758 44.971891 13.681641 43.34375 L 41.490234 27.935547 C 44.513674 26.260259 44.513674 21.739741 41.490234 20.064453 L 13.681641 4.65625 C 12.94692 4.2492148 12.160579 4.0810979 11.396484 4.1113281 z M 11.431641 7.0664062 C 11.690234 7.0652962 11.961284 7.1323321 12.226562 7.2792969 L 40.037109 22.6875 C 41.13567 23.296212 41.13567 24.703788 40.037109 25.3125 L 12.226562 40.720703 C 11.165446 41.308562 10 40.620712 10 39.408203 L 10 8.5917969 C 10 7.9855423 10.290709 7.5116121 10.714844 7.2617188 C 10.926911 7.136772 11.173048 7.0675163 11.431641 7.0664062 z"
    fill="#00f0c0"
  ></path>
</svg>
