<?xml version="1.0" standalone="no"?><!-- Generator: Gravit.io --><svg xmlns="http://www.w3.org/2000/svg" xmlns:xlink="http://www.w3.org/1999/xlink" style="isolation:isolate" viewBox="0 0 169 256" width="169" height="256"><defs><clipPath id="_clipPath_WOUuqCZD8OfepOdUp44OCgURKCSGEf9x"><rect width="169" height="256"/></clipPath></defs><g clip-path="url(#_clipPath_WOUuqCZD8OfepOdUp44OCgURKCSGEf9x)"><g id="null"><path d=" M 60.854 184.356 L 109.006 184.356 C 114.062 184.356 118.167 188.461 118.167 193.517 L 118.167 195.228 C 118.167 200.284 114.062 204.389 109.006 204.389 L 60.854 204.389 C 55.798 204.389 51.693 200.284 51.693 195.228 L 51.693 193.517 C 51.693 188.461 55.798 184.356 60.854 184.356 Z " fill="rgb(255,194,0)"/><path d=" M 75.243 210.763 L 94.617 210.763 C 98.568 210.763 101.776 213.971 101.776 217.922 L 101.776 222.727 C 101.776 226.678 98.568 229.886 94.617 229.886 L 75.243 229.886 C 71.292 229.886 68.084 226.678 68.084 222.727 L 68.084 217.922 C 68.084 213.971 71.292 210.763 75.243 210.763 Z " fill="rgb(255,194,0)"/><path d=" M 47.14 161.591 C 46.681 170.109 53.57 178.077 57.157 177.071 L 110.882 177.071 C 116.98 176.66 120.631 172.116 121.809 163.412 C 120.642 140.548 149.507 119.566 150.948 84.189 C 152.391 48.813 123.449 17.767 85.385 16.805 C 47.322 15.843 18.126 46.204 18.001 82.368 C 17.875 118.532 40.576 126.152 47.14 161.591 Z  M 65.352 148.842 C 67.143 156.096 66.76 157.881 75.368 157.948 L 94.492 157.948 C 98.201 158.313 102.614 155.227 103.598 149.753 C 105.756 132.017 129.887 109.441 130.915 84.189 C 131.944 58.937 112.303 36.631 85.132 35.943 C 57.962 35.256 39.733 57.492 38.034 83.279 C 36.335 109.066 59.075 123.536 65.352 148.842 Z " fill-rule="evenodd" fill="rgb(255,194,0)"/></g></g></svg>
