<?xml version="1.0" standalone="no"?><!-- Generator: Gravit.io --><svg xmlns="http://www.w3.org/2000/svg" xmlns:xlink="http://www.w3.org/1999/xlink" style="isolation:isolate" viewBox="0 0 512 256" width="512" height="256"><g id="null"><path d=" M 94.854 184.356 L 143.006 184.356 C 148.062 184.356 152.167 188.461 152.167 193.517 L 152.167 195.228 C 152.167 200.284 148.062 204.389 143.006 204.389 L 94.854 204.389 C 89.798 204.389 85.693 200.284 85.693 195.228 L 85.693 193.517 C 85.693 188.461 89.798 184.356 94.854 184.356 Z " fill="rgb(255,194,0)"/><path d=" M 109.243 210.763 L 128.617 210.763 C 132.568 210.763 135.776 213.971 135.776 217.922 L 135.776 222.727 C 135.776 226.678 132.568 229.886 128.617 229.886 L 109.243 229.886 C 105.292 229.886 102.084 226.678 102.084 222.727 L 102.084 217.922 C 102.084 213.971 105.292 210.763 109.243 210.763 Z " fill="rgb(255,194,0)"/><path d=" M 81.14 161.591 C 80.681 170.109 87.57 178.077 91.157 177.071 L 144.882 177.071 C 150.98 176.66 154.631 172.116 155.809 163.412 C 154.642 140.548 183.507 119.566 184.948 84.189 C 186.391 48.813 157.449 17.767 119.385 16.805 C 81.322 15.843 52.126 46.204 52.001 82.368 C 51.875 118.532 74.576 126.152 81.14 161.591 Z  M 99.352 148.842 C 101.143 156.096 100.76 157.881 109.368 157.948 L 128.492 157.948 C 132.201 158.313 136.614 155.227 137.598 149.753 C 139.756 132.017 163.887 109.441 164.915 84.189 C 165.944 58.937 146.303 36.631 119.132 35.943 C 91.962 35.256 73.733 57.492 72.034 83.279 C 70.335 109.066 93.075 123.536 99.352 148.842 Z " fill-rule="evenodd" fill="rgb(255,194,0)"/></g><path d=" M 257.467 84.547 L 257.467 84.547 L 257.467 84.547 Q 257.467 87.398 256.392 89.898 L 256.392 89.898 L 256.392 89.898 Q 255.318 92.398 253.443 94.273 L 253.443 94.273 L 253.443 94.273 Q 251.568 96.148 249.049 97.222 L 249.049 97.222 L 249.049 97.222 Q 246.529 98.297 243.677 98.297 L 243.677 98.297 L 230.982 98.297 L 230.982 119.82 L 225.943 119.82 L 225.943 63.804 L 243.677 63.804 L 243.677 63.804 Q 246.529 63.804 249.049 64.879 L 249.049 64.879 L 249.049 64.879 Q 251.568 65.953 253.443 67.828 L 253.443 67.828 L 253.443 67.828 Q 255.318 69.703 256.392 72.222 L 256.392 72.222 L 256.392 72.222 Q 257.467 74.742 257.467 77.594 L 257.467 77.594 L 257.467 84.547 Z  M 252.427 84.547 L 252.427 77.594 L 252.427 77.594 Q 252.427 75.719 251.724 74.097 L 251.724 74.097 L 251.724 74.097 Q 251.021 72.476 249.791 71.246 L 249.791 71.246 L 249.791 71.246 Q 248.56 70.015 246.939 69.312 L 246.939 69.312 L 246.939 69.312 Q 245.318 68.609 243.443 68.609 L 243.443 68.609 L 230.982 68.609 L 230.982 93.492 L 243.443 93.492 L 243.443 93.492 Q 245.318 93.492 246.939 92.789 L 246.939 92.789 L 246.939 92.789 Q 248.56 92.086 249.791 90.875 L 249.791 90.875 L 249.791 90.875 Q 251.021 89.664 251.724 88.043 L 251.724 88.043 L 251.724 88.043 Q 252.427 86.422 252.427 84.547 L 252.427 84.547 Z  M 292.193 108.844 L 292.193 108.844 L 292.193 108.844 Q 292.193 111.265 291.275 113.414 L 291.275 113.414 L 291.275 113.414 Q 290.357 115.562 288.756 117.164 L 288.756 117.164 L 288.756 117.164 Q 287.154 118.765 285.006 119.683 L 285.006 119.683 L 285.006 119.683 Q 282.857 120.601 280.435 120.601 L 280.435 120.601 L 277.232 120.601 L 277.232 120.601 Q 274.81 120.601 272.662 119.683 L 272.662 119.683 L 272.662 119.683 Q 270.513 118.765 268.912 117.164 L 268.912 117.164 L 268.912 117.164 Q 267.31 115.562 266.392 113.414 L 266.392 113.414 L 266.392 113.414 Q 265.474 111.265 265.474 108.844 L 265.474 108.844 L 265.474 90.797 L 265.474 90.797 Q 265.474 88.375 266.392 86.226 L 266.392 86.226 L 266.392 86.226 Q 267.31 84.078 268.912 82.476 L 268.912 82.476 L 268.912 82.476 Q 270.513 80.875 272.662 79.957 L 272.662 79.957 L 272.662 79.957 Q 274.81 79.039 277.232 79.039 L 277.232 79.039 L 280.435 79.039 L 280.435 79.039 Q 282.857 79.039 285.006 79.957 L 285.006 79.957 L 285.006 79.957 Q 287.154 80.875 288.756 82.476 L 288.756 82.476 L 288.756 82.476 Q 290.357 84.078 291.275 86.226 L 291.275 86.226 L 291.275 86.226 Q 292.193 88.375 292.193 90.797 L 292.193 90.797 L 292.193 108.844 Z  M 287.388 109.117 L 287.388 90.523 L 287.388 90.523 Q 287.388 89.078 286.842 87.808 L 286.842 87.808 L 286.842 87.808 Q 286.295 86.539 285.357 85.601 L 285.357 85.601 L 285.357 85.601 Q 284.42 84.664 283.15 84.117 L 283.15 84.117 L 283.15 84.117 Q 281.881 83.57 280.435 83.57 L 280.435 83.57 L 277.232 83.57 L 277.232 83.57 Q 275.787 83.57 274.517 84.117 L 274.517 84.117 L 274.517 84.117 Q 273.248 84.664 272.31 85.601 L 272.31 85.601 L 272.31 85.601 Q 271.373 86.539 270.826 87.808 L 270.826 87.808 L 270.826 87.808 Q 270.279 89.078 270.279 90.523 L 270.279 90.523 L 270.279 109.117 L 270.279 109.117 Q 270.279 110.562 270.826 111.832 L 270.826 111.832 L 270.826 111.832 Q 271.373 113.101 272.31 114.039 L 272.31 114.039 L 272.31 114.039 Q 273.248 114.976 274.517 115.523 L 274.517 115.523 L 274.517 115.523 Q 275.787 116.07 277.232 116.07 L 277.232 116.07 L 280.435 116.07 L 280.435 116.07 Q 281.881 116.07 283.15 115.523 L 283.15 115.523 L 283.15 115.523 Q 284.42 114.976 285.357 114.039 L 285.357 114.039 L 285.357 114.039 Q 286.295 113.101 286.842 111.832 L 286.842 111.832 L 286.842 111.832 Q 287.388 110.562 287.388 109.117 L 287.388 109.117 Z  M 318.365 84.39 L 313.56 84.39 L 313.56 84.39 Q 312.115 84.39 310.845 84.937 L 310.845 84.937 L 310.845 84.937 Q 309.576 85.484 308.638 86.422 L 308.638 86.422 L 308.638 86.422 Q 307.701 87.359 307.154 88.629 L 307.154 88.629 L 307.154 88.629 Q 306.607 89.898 306.607 91.344 L 306.607 91.344 L 306.607 119.82 L 301.802 119.82 L 301.802 79.82 L 303.404 79.82 L 306.021 83.883 L 306.021 83.883 Q 307.662 81.656 310.142 80.347 L 310.142 80.347 L 310.142 80.347 Q 312.623 79.039 315.552 79.039 L 315.552 79.039 L 318.365 79.039 L 318.365 84.39 Z  M 343.717 119.82 L 339.342 119.82 L 339.342 119.82 Q 337.154 119.82 335.22 119 L 335.22 119 L 335.22 119 Q 333.287 118.179 331.861 116.734 L 331.861 116.734 L 331.861 116.734 Q 330.435 115.289 329.595 113.375 L 329.595 113.375 L 329.595 113.375 Q 328.756 111.461 328.756 109.273 L 328.756 109.273 L 328.756 84.39 L 321.568 84.39 L 321.568 79.82 L 328.756 79.82 L 328.756 70.211 L 333.56 69.429 L 333.56 79.82 L 343.717 79.82 L 343.717 84.39 L 333.56 84.39 L 333.56 109.508 L 333.56 109.508 Q 333.56 110.719 334.01 111.754 L 334.01 111.754 L 334.01 111.754 Q 334.459 112.789 335.24 113.57 L 335.24 113.57 L 335.24 113.57 Q 336.021 114.351 337.076 114.801 L 337.076 114.801 L 337.076 114.801 Q 338.131 115.25 339.342 115.25 L 339.342 115.25 L 343.717 115.25 L 343.717 119.82 Z  M 379.263 119.82 L 377.662 119.82 L 375.006 115.758 L 375.006 115.758 Q 373.365 117.984 370.904 119.293 L 370.904 119.293 L 370.904 119.293 Q 368.443 120.601 365.513 120.601 L 365.513 120.601 L 364.302 120.601 L 364.302 120.601 Q 361.881 120.601 359.732 119.683 L 359.732 119.683 L 359.732 119.683 Q 357.584 118.765 355.982 117.164 L 355.982 117.164 L 355.982 117.164 Q 354.381 115.562 353.463 113.414 L 353.463 113.414 L 353.463 113.414 Q 352.545 111.265 352.545 108.844 L 352.545 108.844 L 352.545 79.82 L 357.349 79.82 L 357.349 109.117 L 357.349 109.117 Q 357.349 110.562 357.896 111.832 L 357.896 111.832 L 357.896 111.832 Q 358.443 113.101 359.381 114.039 L 359.381 114.039 L 359.381 114.039 Q 360.318 114.976 361.588 115.523 L 361.588 115.523 L 361.588 115.523 Q 362.857 116.07 364.302 116.07 L 364.302 116.07 L 367.506 116.07 L 367.506 116.07 Q 368.951 116.07 370.22 115.523 L 370.22 115.523 L 370.22 115.523 Q 371.49 114.976 372.427 114.039 L 372.427 114.039 L 372.427 114.039 Q 373.365 113.101 373.912 111.832 L 373.912 111.832 L 373.912 111.832 Q 374.459 110.562 374.459 109.117 L 374.459 109.117 L 374.459 79.82 L 379.263 79.82 L 379.263 119.82 Z  M 415.982 124.859 L 415.982 124.859 L 415.982 124.859 Q 415.982 127.281 415.064 129.312 L 415.064 129.312 L 415.064 129.312 Q 414.146 131.344 412.545 132.789 L 412.545 132.789 L 412.545 132.789 Q 410.943 134.234 408.795 135.035 L 408.795 135.035 L 408.795 135.035 Q 406.646 135.836 404.224 135.836 L 404.224 135.836 L 402.232 135.836 L 402.232 135.836 Q 399.81 135.836 397.662 135.035 L 397.662 135.035 L 397.662 135.035 Q 395.513 134.234 393.912 132.789 L 393.912 132.789 L 393.912 132.789 Q 392.31 131.344 391.392 129.312 L 391.392 129.312 L 391.392 129.312 Q 390.474 127.281 390.474 124.859 L 390.474 124.859 L 390.474 124.703 L 390.474 124.703 Q 390.474 122.359 391.334 120.406 L 391.334 120.406 L 391.334 120.406 Q 392.193 118.453 393.677 117.008 L 393.677 117.008 L 393.677 117.008 Q 391.802 115.875 390.689 113.941 L 390.689 113.941 L 390.689 113.941 Q 389.576 112.008 389.576 109.664 L 389.576 109.664 L 389.576 109.664 Q 389.576 107.554 390.474 105.738 L 390.474 105.738 L 390.474 105.738 Q 391.373 103.922 392.935 102.789 L 392.935 102.789 L 392.935 102.789 Q 391.06 101.148 389.967 98.844 L 389.967 98.844 L 389.967 98.844 Q 388.873 96.539 388.873 93.804 L 388.873 93.804 L 388.873 90.797 L 388.873 90.797 Q 388.873 88.375 389.791 86.226 L 389.791 86.226 L 389.791 86.226 Q 390.709 84.078 392.31 82.476 L 392.31 82.476 L 392.31 82.476 Q 393.912 80.875 396.06 79.957 L 396.06 79.957 L 396.06 79.957 Q 398.209 79.039 400.631 79.039 L 400.631 79.039 L 402.623 79.039 L 402.623 79.039 Q 405.552 79.039 408.033 80.347 L 408.033 80.347 L 408.033 80.347 Q 410.513 81.656 412.154 83.883 L 412.154 83.883 L 414.771 79.82 L 416.373 79.82 L 416.373 93.804 L 416.373 93.804 Q 416.373 96.226 415.455 98.375 L 415.455 98.375 L 415.455 98.375 Q 414.537 100.523 412.935 102.125 L 412.935 102.125 L 412.935 102.125 Q 411.334 103.726 409.185 104.644 L 409.185 104.644 L 409.185 104.644 Q 407.037 105.562 404.615 105.562 L 404.615 105.562 L 397.662 105.562 L 397.662 105.562 Q 396.842 105.562 396.099 105.894 L 396.099 105.894 L 396.099 105.894 Q 395.357 106.226 394.791 106.773 L 394.791 106.773 L 394.791 106.773 Q 394.224 107.32 393.912 108.082 L 393.912 108.082 L 393.912 108.082 Q 393.599 108.844 393.599 109.664 L 393.599 109.664 L 393.599 109.664 Q 393.599 110.484 393.912 111.226 L 393.912 111.226 L 393.912 111.226 Q 394.224 111.969 394.791 112.535 L 394.791 112.535 L 394.791 112.535 Q 395.357 113.101 396.099 113.414 L 396.099 113.414 L 396.099 113.414 Q 396.842 113.726 397.662 113.726 L 397.662 113.726 L 404.224 113.726 L 404.224 113.726 Q 406.646 113.726 408.795 114.527 L 408.795 114.527 L 408.795 114.527 Q 410.943 115.328 412.545 116.773 L 412.545 116.773 L 412.545 116.773 Q 414.146 118.219 415.064 120.25 L 415.064 120.25 L 415.064 120.25 Q 415.982 122.281 415.982 124.703 L 415.982 124.703 L 415.982 124.859 Z  M 411.607 94.078 L 411.607 90.523 L 411.607 90.523 Q 411.607 89.078 411.06 87.808 L 411.06 87.808 L 411.06 87.808 Q 410.513 86.539 409.556 85.601 L 409.556 85.601 L 409.556 85.601 Q 408.599 84.664 407.33 84.117 L 407.33 84.117 L 407.33 84.117 Q 406.06 83.57 404.615 83.57 L 404.615 83.57 L 400.631 83.57 L 400.631 83.57 Q 399.185 83.57 397.916 84.117 L 397.916 84.117 L 397.916 84.117 Q 396.646 84.664 395.709 85.601 L 395.709 85.601 L 395.709 85.601 Q 394.771 86.539 394.224 87.808 L 394.224 87.808 L 394.224 87.808 Q 393.677 89.078 393.677 90.523 L 393.677 90.523 L 393.677 94.078 L 393.677 94.078 Q 393.677 95.523 394.224 96.793 L 394.224 96.793 L 394.224 96.793 Q 394.771 98.062 395.709 99 L 395.709 99 L 395.709 99 Q 396.646 99.937 397.916 100.484 L 397.916 100.484 L 397.916 100.484 Q 399.185 101.031 400.631 101.031 L 400.631 101.031 L 404.615 101.031 L 404.615 101.031 Q 406.06 101.031 407.33 100.484 L 407.33 100.484 L 407.33 100.484 Q 408.599 99.937 409.556 99 L 409.556 99 L 409.556 99 Q 410.513 98.062 411.06 96.793 L 411.06 96.793 L 411.06 96.793 Q 411.607 95.523 411.607 94.078 L 411.607 94.078 Z  M 411.412 125.094 L 411.412 124.469 L 411.412 124.469 Q 411.412 123.023 410.865 121.871 L 410.865 121.871 L 410.865 121.871 Q 410.318 120.719 409.381 119.937 L 409.381 119.937 L 409.381 119.937 Q 408.443 119.156 407.174 118.726 L 407.174 118.726 L 407.174 118.726 Q 405.904 118.297 404.459 118.297 L 404.459 118.297 L 401.998 118.297 L 401.998 118.297 Q 400.552 118.297 399.283 118.726 L 399.283 118.726 L 399.283 118.726 Q 398.013 119.156 397.076 119.937 L 397.076 119.937 L 397.076 119.937 Q 396.138 120.719 395.592 121.871 L 395.592 121.871 L 395.592 121.871 Q 395.045 123.023 395.045 124.469 L 395.045 124.469 L 395.045 125.094 L 395.045 125.094 Q 395.045 126.539 395.592 127.672 L 395.592 127.672 L 395.592 127.672 Q 396.138 128.804 397.076 129.605 L 397.076 129.605 L 397.076 129.605 Q 398.013 130.406 399.283 130.836 L 399.283 130.836 L 399.283 130.836 Q 400.552 131.265 401.998 131.265 L 401.998 131.265 L 404.459 131.265 L 404.459 131.265 Q 405.904 131.265 407.174 130.836 L 407.174 130.836 L 407.174 130.836 Q 408.443 130.406 409.381 129.605 L 409.381 129.605 L 409.381 129.605 Q 410.318 128.804 410.865 127.672 L 410.865 127.672 L 410.865 127.672 Q 411.412 126.539 411.412 125.094 L 411.412 125.094 Z  M 451.92 108.844 L 451.92 108.844 L 451.92 108.844 Q 451.92 111.265 451.002 113.414 L 451.002 113.414 L 451.002 113.414 Q 450.084 115.562 448.482 117.164 L 448.482 117.164 L 448.482 117.164 Q 446.881 118.765 444.732 119.683 L 444.732 119.683 L 444.732 119.683 Q 442.584 120.601 440.162 120.601 L 440.162 120.601 L 436.959 120.601 L 436.959 120.601 Q 434.537 120.601 432.388 119.683 L 432.388 119.683 L 432.388 119.683 Q 430.24 118.765 428.638 117.164 L 428.638 117.164 L 428.638 117.164 Q 427.037 115.562 426.119 113.414 L 426.119 113.414 L 426.119 113.414 Q 425.201 111.265 425.201 108.844 L 425.201 108.844 L 425.201 90.797 L 425.201 90.797 Q 425.201 88.375 426.119 86.226 L 426.119 86.226 L 426.119 86.226 Q 427.037 84.078 428.638 82.476 L 428.638 82.476 L 428.638 82.476 Q 430.24 80.875 432.388 79.957 L 432.388 79.957 L 432.388 79.957 Q 434.537 79.039 436.959 79.039 L 436.959 79.039 L 440.162 79.039 L 440.162 79.039 Q 442.584 79.039 444.732 79.957 L 444.732 79.957 L 444.732 79.957 Q 446.881 80.875 448.482 82.476 L 448.482 82.476 L 448.482 82.476 Q 450.084 84.078 451.002 86.226 L 451.002 86.226 L 451.002 86.226 Q 451.92 88.375 451.92 90.797 L 451.92 90.797 L 451.92 108.844 Z  M 447.115 109.117 L 447.115 90.523 L 447.115 90.523 Q 447.115 89.078 446.568 87.808 L 446.568 87.808 L 446.568 87.808 Q 446.021 86.539 445.084 85.601 L 445.084 85.601 L 445.084 85.601 Q 444.146 84.664 442.877 84.117 L 442.877 84.117 L 442.877 84.117 Q 441.607 83.57 440.162 83.57 L 440.162 83.57 L 436.959 83.57 L 436.959 83.57 Q 435.513 83.57 434.244 84.117 L 434.244 84.117 L 434.244 84.117 Q 432.974 84.664 432.037 85.601 L 432.037 85.601 L 432.037 85.601 Q 431.099 86.539 430.552 87.808 L 430.552 87.808 L 430.552 87.808 Q 430.006 89.078 430.006 90.523 L 430.006 90.523 L 430.006 109.117 L 430.006 109.117 Q 430.006 110.562 430.552 111.832 L 430.552 111.832 L 430.552 111.832 Q 431.099 113.101 432.037 114.039 L 432.037 114.039 L 432.037 114.039 Q 432.974 114.976 434.244 115.523 L 434.244 115.523 L 434.244 115.523 Q 435.513 116.07 436.959 116.07 L 436.959 116.07 L 440.162 116.07 L 440.162 116.07 Q 441.607 116.07 442.877 115.523 L 442.877 115.523 L 442.877 115.523 Q 444.146 114.976 445.084 114.039 L 445.084 114.039 L 445.084 114.039 Q 446.021 113.101 446.568 111.832 L 446.568 111.832 L 446.568 111.832 Q 447.115 110.562 447.115 109.117 L 447.115 109.117 Z  M 467.935 119.82 L 463.131 119.82 L 463.131 63.804 L 467.935 63.804 L 467.935 119.82 Z " fill-rule="evenodd" fill="rgb(236,236,236)"/><path d=" M 265.643 139.533 L 254.91 180.145 L 253.012 180.145 L 245.111 149.587 L 244.997 148.001 L 244.828 149.587 L 236.983 180.145 L 235.085 180.145 L 224.295 139.533 L 227.949 139.533 L 235.907 170.402 L 236.02 171.903 L 236.133 170.402 L 243.95 139.533 L 245.989 139.533 L 253.805 170.402 L 253.918 171.903 L 254.06 170.402 L 261.99 139.533 L 265.643 139.533 Z  M 289.659 172.187 L 289.659 172.187 L 289.659 172.187 Q 289.659 173.942 288.993 175.5 L 288.993 175.5 L 288.993 175.5 Q 288.328 177.058 287.166 178.219 L 287.166 178.219 L 287.166 178.219 Q 286.005 179.38 284.448 180.046 L 284.448 180.046 L 284.448 180.046 Q 282.89 180.711 281.134 180.711 L 281.134 180.711 L 278.812 180.711 L 278.812 180.711 Q 277.056 180.711 275.498 180.046 L 275.498 180.046 L 275.498 180.046 Q 273.941 179.38 272.78 178.219 L 272.78 178.219 L 272.78 178.219 Q 271.619 177.058 270.953 175.5 L 270.953 175.5 L 270.953 175.5 Q 270.287 173.942 270.287 172.187 L 270.287 172.187 L 270.287 159.103 L 270.287 159.103 Q 270.287 157.347 270.953 155.789 L 270.953 155.789 L 270.953 155.789 Q 271.619 154.232 272.78 153.07 L 272.78 153.07 L 272.78 153.07 Q 273.941 151.909 275.498 151.244 L 275.498 151.244 L 275.498 151.244 Q 277.056 150.578 278.812 150.578 L 278.812 150.578 L 281.134 150.578 L 281.134 150.578 Q 282.89 150.578 284.448 151.244 L 284.448 151.244 L 284.448 151.244 Q 286.005 151.909 287.166 153.07 L 287.166 153.07 L 287.166 153.07 Q 288.328 154.232 288.993 155.789 L 288.993 155.789 L 288.993 155.789 Q 289.659 157.347 289.659 159.103 L 289.659 159.103 L 289.659 165.928 L 273.771 165.928 L 273.771 172.385 L 273.771 172.385 Q 273.771 173.433 274.167 174.353 L 274.167 174.353 L 274.167 174.353 Q 274.564 175.274 275.244 175.953 L 275.244 175.953 L 275.244 175.953 Q 275.923 176.633 276.844 177.029 L 276.844 177.029 L 276.844 177.029 Q 277.764 177.426 278.812 177.426 L 278.812 177.426 L 281.134 177.426 L 281.134 177.426 Q 282.182 177.426 283.102 177.029 L 283.102 177.029 L 283.102 177.029 Q 284.023 176.633 284.703 175.953 L 284.703 175.953 L 284.703 175.953 Q 285.382 175.274 285.779 174.353 L 285.779 174.353 L 285.779 174.353 Q 286.175 173.433 286.175 172.385 L 286.175 172.385 L 286.175 170.459 L 289.659 171.025 L 289.659 172.187 Z  M 286.175 163.209 L 286.175 158.904 L 286.175 158.904 Q 286.175 157.857 285.779 156.936 L 285.779 156.936 L 285.779 156.936 Q 285.382 156.016 284.703 155.336 L 284.703 155.336 L 284.703 155.336 Q 284.023 154.656 283.102 154.26 L 283.102 154.26 L 283.102 154.26 Q 282.182 153.863 281.134 153.863 L 281.134 153.863 L 278.812 153.863 L 278.812 153.863 Q 277.764 153.863 276.844 154.26 L 276.844 154.26 L 276.844 154.26 Q 275.923 154.656 275.244 155.336 L 275.244 155.336 L 275.244 155.336 Q 274.564 156.016 274.167 156.936 L 274.167 156.936 L 274.167 156.936 Q 273.771 157.857 273.771 158.904 L 273.771 158.904 L 273.771 163.209 L 286.175 163.209 Z  M 315.996 172.187 L 315.996 172.187 L 315.996 172.187 Q 315.996 173.942 315.331 175.5 L 315.331 175.5 L 315.331 175.5 Q 314.665 177.058 313.504 178.219 L 313.504 178.219 L 313.504 178.219 Q 312.343 179.38 310.786 180.046 L 310.786 180.046 L 310.786 180.046 Q 309.228 180.711 307.472 180.711 L 307.472 180.711 L 305.15 180.711 L 305.15 180.711 Q 303.394 180.711 301.836 180.046 L 301.836 180.046 L 301.836 180.046 Q 300.279 179.38 299.118 178.219 L 299.118 178.219 L 299.118 178.219 Q 297.956 177.058 297.291 175.5 L 297.291 175.5 L 297.291 175.5 Q 296.625 173.942 296.625 172.187 L 296.625 172.187 L 296.625 139.533 L 300.109 139.533 L 300.109 153.58 L 300.109 153.58 Q 301.298 152.164 302.969 151.371 L 302.969 151.371 L 302.969 151.371 Q 304.64 150.578 306.594 150.578 L 306.594 150.578 L 307.472 150.578 L 307.472 150.578 Q 309.228 150.578 310.786 151.244 L 310.786 151.244 L 310.786 151.244 Q 312.343 151.909 313.504 153.07 L 313.504 153.07 L 313.504 153.07 Q 314.665 154.232 315.331 155.789 L 315.331 155.789 L 315.331 155.789 Q 315.996 157.347 315.996 159.103 L 315.996 159.103 L 315.996 172.187 Z  M 312.513 172.385 L 312.513 158.904 L 312.513 158.904 Q 312.513 157.857 312.117 156.936 L 312.117 156.936 L 312.117 156.936 Q 311.72 156.016 311.04 155.336 L 311.04 155.336 L 311.04 155.336 Q 310.361 154.656 309.44 154.26 L 309.44 154.26 L 309.44 154.26 Q 308.52 153.863 307.472 153.863 L 307.472 153.863 L 305.15 153.863 L 305.15 153.863 Q 304.102 153.863 303.182 154.26 L 303.182 154.26 L 303.182 154.26 Q 302.261 154.656 301.581 155.336 L 301.581 155.336 L 301.581 155.336 Q 300.902 156.016 300.505 156.936 L 300.505 156.936 L 300.505 156.936 Q 300.109 157.857 300.109 158.904 L 300.109 158.904 L 300.109 172.385 L 300.109 172.385 Q 300.109 173.433 300.505 174.353 L 300.505 174.353 L 300.505 174.353 Q 300.902 175.274 301.581 175.953 L 301.581 175.953 L 301.581 175.953 Q 302.261 176.633 303.182 177.029 L 303.182 177.029 L 303.182 177.029 Q 304.102 177.426 305.15 177.426 L 305.15 177.426 L 307.472 177.426 L 307.472 177.426 Q 308.52 177.426 309.44 177.029 L 309.44 177.029 L 309.44 177.029 Q 310.361 176.633 311.04 175.953 L 311.04 175.953 L 311.04 175.953 Q 311.72 175.274 312.117 174.353 L 312.117 174.353 L 312.117 174.353 Q 312.513 173.433 312.513 172.385 L 312.513 172.385 Z  M 346.384 169.525 L 346.384 170.742 L 346.384 170.742 Q 346.384 172.81 345.549 174.622 L 345.549 174.622 L 345.549 174.622 Q 344.713 176.435 343.311 177.794 L 343.311 177.794 L 343.311 177.794 Q 341.91 179.153 340.055 179.932 L 340.055 179.932 L 340.055 179.932 Q 338.2 180.711 336.132 180.711 L 336.132 180.711 L 333.215 180.711 L 333.215 180.711 Q 331.148 180.711 329.293 179.932 L 329.293 179.932 L 329.293 179.932 Q 327.438 179.153 326.036 177.794 L 326.036 177.794 L 326.036 177.794 Q 324.634 176.435 323.799 174.622 L 323.799 174.622 L 323.799 174.622 Q 322.963 172.81 322.963 170.742 L 322.963 170.742 L 322.963 169.128 L 326.617 168.533 L 326.617 170.742 L 326.617 170.742 Q 326.617 172.102 327.169 173.277 L 327.169 173.277 L 327.169 173.277 Q 327.721 174.452 328.656 175.344 L 328.656 175.344 L 328.656 175.344 Q 329.59 176.236 330.822 176.746 L 330.822 176.746 L 330.822 176.746 Q 332.054 177.256 333.413 177.256 L 333.413 177.256 L 335.962 177.256 L 335.962 177.256 Q 337.322 177.256 338.539 176.746 L 338.539 176.746 L 338.539 176.746 Q 339.757 176.236 340.692 175.344 L 340.692 175.344 L 340.692 175.344 Q 341.626 174.452 342.179 173.277 L 342.179 173.277 L 342.179 173.277 Q 342.731 172.102 342.731 170.742 L 342.731 170.742 L 342.731 169.525 L 342.731 169.525 Q 342.731 167.429 341.91 166.041 L 341.91 166.041 L 341.91 166.041 Q 341.088 164.653 339.729 163.676 L 339.729 163.676 L 339.729 163.676 Q 338.369 162.699 336.656 162.02 L 336.656 162.02 L 336.656 162.02 Q 334.943 161.34 333.13 160.66 L 333.13 160.66 L 333.13 160.66 Q 331.318 159.981 329.604 159.159 L 329.604 159.159 L 329.604 159.159 Q 327.891 158.338 326.532 157.106 L 326.532 157.106 L 326.532 157.106 Q 325.172 155.874 324.351 154.09 L 324.351 154.09 L 324.351 154.09 Q 323.53 152.306 323.53 149.7 L 323.53 149.7 L 323.53 148.936 L 323.53 148.936 Q 323.53 146.868 324.308 145.056 L 324.308 145.056 L 324.308 145.056 Q 325.087 143.243 326.447 141.884 L 326.447 141.884 L 326.447 141.884 Q 327.806 140.525 329.633 139.746 L 329.633 139.746 L 329.633 139.746 Q 331.459 138.967 333.527 138.967 L 333.527 138.967 L 336.132 138.967 L 336.132 138.967 Q 338.2 138.967 340.012 139.746 L 340.012 139.746 L 340.012 139.746 Q 341.825 140.525 343.184 141.884 L 343.184 141.884 L 343.184 141.884 Q 344.543 143.243 345.322 145.056 L 345.322 145.056 L 345.322 145.056 Q 346.101 146.868 346.101 148.936 L 346.101 148.936 L 346.101 149.983 L 342.448 150.578 L 342.448 148.936 L 342.448 148.936 Q 342.448 147.576 341.938 146.401 L 341.938 146.401 L 341.938 146.401 Q 341.428 145.226 340.55 144.348 L 340.55 144.348 L 340.55 144.348 Q 339.672 143.47 338.497 142.96 L 338.497 142.96 L 338.497 142.96 Q 337.322 142.45 335.962 142.45 L 335.962 142.45 L 333.697 142.45 L 333.697 142.45 Q 332.337 142.45 331.162 142.96 L 331.162 142.96 L 331.162 142.96 Q 329.987 143.47 329.095 144.348 L 329.095 144.348 L 329.095 144.348 Q 328.203 145.226 327.693 146.401 L 327.693 146.401 L 327.693 146.401 Q 327.183 147.576 327.183 148.936 L 327.183 148.936 L 327.183 149.7 L 327.183 149.7 Q 327.183 151.654 328.004 152.985 L 328.004 152.985 L 328.004 152.985 Q 328.826 154.317 330.185 155.265 L 330.185 155.265 L 330.185 155.265 Q 331.544 156.214 333.258 156.908 L 333.258 156.908 L 333.258 156.908 Q 334.971 157.602 336.784 158.324 L 336.784 158.324 L 336.784 158.324 Q 338.596 159.046 340.309 159.91 L 340.309 159.91 L 340.309 159.91 Q 342.023 160.774 343.382 162.034 L 343.382 162.034 L 343.382 162.034 Q 344.742 163.294 345.563 165.107 L 345.563 165.107 L 345.563 165.107 Q 346.384 166.919 346.384 169.525 L 346.384 169.525 Z  M 366.803 180.145 L 363.631 180.145 L 363.631 180.145 Q 362.045 180.145 360.643 179.55 L 360.643 179.55 L 360.643 179.55 Q 359.242 178.955 358.208 177.907 L 358.208 177.907 L 358.208 177.907 Q 357.174 176.859 356.565 175.472 L 356.565 175.472 L 356.565 175.472 Q 355.956 174.084 355.956 172.498 L 355.956 172.498 L 355.956 154.458 L 350.745 154.458 L 350.745 151.145 L 355.956 151.145 L 355.956 144.178 L 359.44 143.611 L 359.44 151.145 L 366.803 151.145 L 366.803 154.458 L 359.44 154.458 L 359.44 172.668 L 359.44 172.668 Q 359.44 173.546 359.765 174.296 L 359.765 174.296 L 359.765 174.296 Q 360.091 175.047 360.658 175.613 L 360.658 175.613 L 360.658 175.613 Q 361.224 176.18 361.989 176.505 L 361.989 176.505 L 361.989 176.505 Q 362.753 176.831 363.631 176.831 L 363.631 176.831 L 366.803 176.831 L 366.803 180.145 Z  M 392.575 180.145 L 391.413 180.145 L 389.488 177.199 L 389.488 177.199 Q 388.298 178.814 386.514 179.762 L 386.514 179.762 L 386.514 179.762 Q 384.73 180.711 382.606 180.711 L 382.606 180.711 L 381.728 180.711 L 381.728 180.711 Q 379.972 180.711 378.414 180.046 L 378.414 180.046 L 378.414 180.046 Q 376.857 179.38 375.696 178.219 L 375.696 178.219 L 375.696 178.219 Q 374.535 177.058 373.869 175.5 L 373.869 175.5 L 373.869 175.5 Q 373.203 173.942 373.203 172.187 L 373.203 172.187 L 373.203 151.145 L 376.687 151.145 L 376.687 172.385 L 376.687 172.385 Q 376.687 173.433 377.083 174.353 L 377.083 174.353 L 377.083 174.353 Q 377.48 175.274 378.16 175.953 L 378.16 175.953 L 378.16 175.953 Q 378.839 176.633 379.76 177.029 L 379.76 177.029 L 379.76 177.029 Q 380.68 177.426 381.728 177.426 L 381.728 177.426 L 384.05 177.426 L 384.05 177.426 Q 385.098 177.426 386.018 177.029 L 386.018 177.029 L 386.018 177.029 Q 386.939 176.633 387.619 175.953 L 387.619 175.953 L 387.619 175.953 Q 388.298 175.274 388.695 174.353 L 388.695 174.353 L 388.695 174.353 Q 389.091 173.433 389.091 172.385 L 389.091 172.385 L 389.091 151.145 L 392.575 151.145 L 392.575 180.145 Z  M 418.912 180.145 L 417.751 180.145 L 415.826 177.199 L 415.826 177.199 Q 414.636 178.814 412.852 179.762 L 412.852 179.762 L 412.852 179.762 Q 411.068 180.711 408.944 180.711 L 408.944 180.711 L 408.066 180.711 L 408.066 180.711 Q 406.31 180.711 404.752 180.046 L 404.752 180.046 L 404.752 180.046 Q 403.195 179.38 402.034 178.219 L 402.034 178.219 L 402.034 178.219 Q 400.872 177.058 400.207 175.5 L 400.207 175.5 L 400.207 175.5 Q 399.541 173.942 399.541 172.187 L 399.541 172.187 L 399.541 159.103 L 399.541 159.103 Q 399.541 157.347 400.207 155.789 L 400.207 155.789 L 400.207 155.789 Q 400.872 154.232 402.034 153.07 L 402.034 153.07 L 402.034 153.07 Q 403.195 151.909 404.752 151.244 L 404.752 151.244 L 404.752 151.244 Q 406.31 150.578 408.066 150.578 L 408.066 150.578 L 408.944 150.578 L 408.944 150.578 Q 410.898 150.578 412.569 151.371 L 412.569 151.371 L 412.569 151.371 Q 414.24 152.164 415.429 153.58 L 415.429 153.58 L 415.429 139.533 L 418.912 139.533 L 418.912 180.145 Z  M 415.429 172.385 L 415.429 158.904 L 415.429 158.904 Q 415.429 157.857 415.033 156.936 L 415.033 156.936 L 415.033 156.936 Q 414.636 156.016 413.956 155.336 L 413.956 155.336 L 413.956 155.336 Q 413.277 154.656 412.356 154.26 L 412.356 154.26 L 412.356 154.26 Q 411.436 153.863 410.388 153.863 L 410.388 153.863 L 408.066 153.863 L 408.066 153.863 Q 407.018 153.863 406.098 154.26 L 406.098 154.26 L 406.098 154.26 Q 405.177 154.656 404.497 155.336 L 404.497 155.336 L 404.497 155.336 Q 403.818 156.016 403.421 156.936 L 403.421 156.936 L 403.421 156.936 Q 403.025 157.857 403.025 158.904 L 403.025 158.904 L 403.025 172.385 L 403.025 172.385 Q 403.025 173.433 403.421 174.353 L 403.421 174.353 L 403.421 174.353 Q 403.818 175.274 404.497 175.953 L 404.497 175.953 L 404.497 175.953 Q 405.177 176.633 406.098 177.029 L 406.098 177.029 L 406.098 177.029 Q 407.018 177.426 408.066 177.426 L 408.066 177.426 L 410.388 177.426 L 410.388 177.426 Q 411.436 177.426 412.356 177.029 L 412.356 177.029 L 412.356 177.029 Q 413.277 176.633 413.956 175.953 L 413.956 175.953 L 413.956 175.953 Q 414.636 175.274 415.033 174.353 L 415.033 174.353 L 415.033 174.353 Q 415.429 173.433 415.429 172.385 L 415.429 172.385 Z  M 430.807 144.178 L 426.757 144.178 L 426.757 139.533 L 430.807 139.533 L 430.807 144.178 Z  M 430.524 180.145 L 427.04 180.145 L 427.04 151.145 L 430.524 151.145 L 430.524 180.145 Z  M 458.023 172.187 L 458.023 172.187 L 458.023 172.187 Q 458.023 173.942 457.357 175.5 L 457.357 175.5 L 457.357 175.5 Q 456.692 177.058 455.531 178.219 L 455.531 178.219 L 455.531 178.219 Q 454.369 179.38 452.812 180.046 L 452.812 180.046 L 452.812 180.046 Q 451.254 180.711 449.498 180.711 L 449.498 180.711 L 447.176 180.711 L 447.176 180.711 Q 445.42 180.711 443.863 180.046 L 443.863 180.046 L 443.863 180.046 Q 442.305 179.38 441.144 178.219 L 441.144 178.219 L 441.144 178.219 Q 439.983 177.058 439.317 175.5 L 439.317 175.5 L 439.317 175.5 Q 438.652 173.942 438.652 172.187 L 438.652 172.187 L 438.652 159.103 L 438.652 159.103 Q 438.652 157.347 439.317 155.789 L 439.317 155.789 L 439.317 155.789 Q 439.983 154.232 441.144 153.07 L 441.144 153.07 L 441.144 153.07 Q 442.305 151.909 443.863 151.244 L 443.863 151.244 L 443.863 151.244 Q 445.42 150.578 447.176 150.578 L 447.176 150.578 L 449.498 150.578 L 449.498 150.578 Q 451.254 150.578 452.812 151.244 L 452.812 151.244 L 452.812 151.244 Q 454.369 151.909 455.531 153.07 L 455.531 153.07 L 455.531 153.07 Q 456.692 154.232 457.357 155.789 L 457.357 155.789 L 457.357 155.789 Q 458.023 157.347 458.023 159.103 L 458.023 159.103 L 458.023 172.187 Z  M 454.539 172.385 L 454.539 158.904 L 454.539 158.904 Q 454.539 157.857 454.143 156.936 L 454.143 156.936 L 454.143 156.936 Q 453.746 156.016 453.067 155.336 L 453.067 155.336 L 453.067 155.336 Q 452.387 154.656 451.467 154.26 L 451.467 154.26 L 451.467 154.26 Q 450.546 153.863 449.498 153.863 L 449.498 153.863 L 447.176 153.863 L 447.176 153.863 Q 446.128 153.863 445.208 154.26 L 445.208 154.26 L 445.208 154.26 Q 444.287 154.656 443.608 155.336 L 443.608 155.336 L 443.608 155.336 Q 442.928 156.016 442.532 156.936 L 442.532 156.936 L 442.532 156.936 Q 442.135 157.857 442.135 158.904 L 442.135 158.904 L 442.135 172.385 L 442.135 172.385 Q 442.135 173.433 442.532 174.353 L 442.532 174.353 L 442.532 174.353 Q 442.928 175.274 443.608 175.953 L 443.608 175.953 L 443.608 175.953 Q 444.287 176.633 445.208 177.029 L 445.208 177.029 L 445.208 177.029 Q 446.128 177.426 447.176 177.426 L 447.176 177.426 L 449.498 177.426 L 449.498 177.426 Q 450.546 177.426 451.467 177.029 L 451.467 177.029 L 451.467 177.029 Q 452.387 176.633 453.067 175.953 L 453.067 175.953 L 453.067 175.953 Q 453.746 175.274 454.143 174.353 L 454.143 174.353 L 454.143 174.353 Q 454.539 173.433 454.539 172.385 L 454.539 172.385 Z " fill-rule="evenodd" fill="rgb(168,167,167)"/></svg>