<svg xmlns="http://www.w3.org/2000/svg" xmlns:xlink="http://www.w3.org/1999/xlink" xml:space="preserve" viewBox="0 0 414.4 312.6"><path fill="#A8A7A7" d="M180.7 58.4c-8.1-7.8-20.5-10.7-31.1-7-.4.1-.6.6-.5.9.1.4.5.6.9.5 5-1.1 10.2-.7 14.9.9 4.6 1.6 8.9 4.4 11.9 8.2.9 1.1 2.6 1.3 3.7.4 1.2-1 1.3-2.9.2-3.9zM164.5 32.9c-8.4 2.3-15.7 8.5-19.2 16.6-.1.3 0 .7.3.9.3.1.7 0 .8-.3 2.2-3.4 5.1-6.2 8.4-8.3 3.3-2.1 7-3.4 10.7-3.8 1.4-.2 2.5-1.5 2.3-2.9-.1-1.6-1.8-2.7-3.3-2.2zM169.3 10.2C154.8 19 144 33.6 139.8 50c-.1.4.1.8.5.9.4.1.7-.1.8-.5 5.2-15.3 16.5-28.4 30.8-35.6 1.3-.7 1.8-2.2 1.2-3.5-.7-1.4-2.5-1.9-3.8-1.1zM145.1 15.4c-4.1 6.3-6 14-5.3 21.3.1.6 1 .6 1 0 .4-3.5 1.3-6.8 2.8-9.9 1.4-3.1 3.4-5.9 5.6-8.2 1-1.1 1-2.7-.1-3.8-1.1-1.1-3.1-.9-4 .6zM142.3 84.3c-2.4-6.5-3.4-13.4-2.8-19.2.1-.5.6-.2.7.3.2 3 .7 6.1 1.5 9 .8 3 1.9 5.9 3.3 8.5.6 1.2.6 2.6-.1 3.1-.9.6-2.1-.2-2.6-1.7zM167 78.8c-3.7-6.6-9.4-11.9-16.2-14.8-.6-.2-1 .6-.5.9 2.9 2 5.4 4.4 7.4 7.1 2 2.7 3.6 5.7 4.5 8.8.4 1.4 1.9 2.2 3.3 1.7 1.6-.3 2.3-2.3 1.5-3.7z"/><defs><path id="a" d="M121.3 0h16v51.2h-16z"/></defs><clipPath id="b"><use xlink:href="#a" overflow="visible"/></clipPath><g clip-path="url(#b)"><path fill="#A8A7A7" d="M122.5 4.2c7.4 14.2 12.1 30 13.5 46.2 0 .3.3.6.6.5.3 0 .5-.3.5-.6-.1-16.4-3.4-33-9.9-48.4-.6-1.3-2.1-2-3.4-1.4-1.4.7-2 2.4-1.3 3.7z"/></g><path fill="#A8A7A7" d="M117.2 29c5.7 4.2 10.7 9.7 14.5 16 .2.3.6.4.8.2.3-.2.4-.5.3-.8-2.6-7.1-6.8-13.8-12.1-19.4-1-1.1-2.7-1.1-3.7-.1-1.2 1.1-1.1 3.1.2 4.1zM122.5 84.6c1.7-6.9 4.8-13.7 9.1-19.6.2-.3.1-.7-.1-.9-.2-.2-.6-.2-.8 0-5.5 5.2-10.1 11.6-13.2 18.7-.6 1.3 0 2.9 1.3 3.5 1.5.7 3.3-.2 3.7-1.7zM91.6 31.6c15.1 4.1 29.5 11.5 41.8 21.7.3.3.8.2 1-.1.2-.3.2-.7-.1-1-11.5-11.2-25.7-20.1-41.1-25.6-1.4-.5-2.9.2-3.4 1.6-.5 1.4.3 3 1.8 3.4zM106.7 54.3c5.1-2.7 11.2-3.4 16.8-2.2.4.1.9-.2 1-.6.1-.4-.1-.8-.5-.9-6-2.6-12.9-3-19.2-1.2-1.4.4-2.3 1.9-1.9 3.3.5 1.6 2.3 2.4 3.8 1.6zM183.4 82.2c-9.5-14.1-24.6-24.2-41.2-27.6-.4-.1-.8.2-.8.6-.1.4.2.7.5.8 15.5 4.4 29.1 15.1 37 29 .7 1.3 2.3 1.7 3.6 1 1.4-.7 1.8-2.5.9-3.8zM102 92.9c8.2-13.7 19.3-25.9 32.4-35.6.3-.2.3-.6.1-.8-.2-.2-.5-.3-.8-.2-14 8.6-26.3 20.1-36.1 33.6-.8 1.2-.6 2.8.6 3.7 1.3 1 3 .7 3.8-.7zM135.1 107.4c-2.5-15.8-1.8-32.3 2.1-48.1.1-.3-.1-.6-.4-.7-.3-.1-.6.1-.7.4-5.2 15.6-7.4 32.3-6.2 49 .1 1.5 1.4 2.5 2.8 2.4 1.5-.1 2.6-1.5 2.4-3zM157.4 103.4c-2.7-15.5-8.8-30.5-17.8-43.7-.2-.3-.1-.8.2-1 .3-.2.7-.2 1 .1 10.2 12.6 17.7 27.5 21.8 43.5.4 1.4-.5 2.9-1.9 3.2-1.5.4-3-.6-3.3-2.1z"/><defs><path id="c" d="M156 41.9h36.9v6.7H156z"/></defs><clipPath id="d"><use xlink:href="#c" overflow="visible"/></clipPath><g clip-path="url(#d)"><path fill="#A8A7A7" d="M190.8 47.7c-10.9-2.7-22.4-3-33.6-.9-.3.1-.6-.1-.6-.4-.1-.3.1-.5.4-.6 11.1-3 23-3.7 34.6-1.8 1 .2 1.7 1.1 1.6 2.2-.3 1-1.4 1.7-2.4 1.5z"/></g><path fill="#A8A7A7" d="M98.5 74.9c7.7-8.2 17.2-14.7 27.8-19 .3-.1.4-.4.3-.7-.1-.3-.4-.4-.6-.3-11 3.5-21.3 9.4-30 17.3-.8.7-.8 1.9-.1 2.7.6.8 1.9.8 2.6 0zM88.2 80.2c-5.9-3.4-13.2-4-19.5-1.5-.3.1-.4.4-.3.7.1.2.3.4.6.3 3-.7 6.1-.6 9.1.1 2.9.7 5.6 2 7.8 3.8.9.7 2.2.6 2.9-.3.8-1 .5-2.5-.6-3.1zM82.6 67.5c-5.7 1.2-10.8 4.3-14.5 8.7-.3.4.2.9.6.6 2.1-1.7 4.5-3 6.9-3.9 2.5-.9 5-1.4 7.5-1.4 1.1 0 2-.9 2-2.1 0-1.2-1.3-2.2-2.5-1.9zM55.2 93.2c2.2-4.8 5.4-9.1 8.9-12 .3-.2.5.2.2.5-1.5 1.7-2.9 3.7-4.1 5.7-1.2 2.1-2.1 4.3-2.8 6.4-.3 1-1.1 1.7-1.7 1.6-.8 0-1-1.1-.5-2.2zM73.4 97.8c0-5.8-2-11.5-5.5-16-.3-.4-.9 0-.7.4 1.2 2.4 2 5 2.3 7.6.4 2.6.3 5.2-.2 7.7-.2 1.1.5 2.2 1.6 2.4 1.3.2 2.5-.8 2.5-2.1zM66.4 58.4c.8 5.4.6 11.1-.8 16.7-.1.3.1.5.3.6.2.1.5-.1.6-.3 2.4-5.3 3.8-11.2 4-17.2 0-1.1-.9-2.1-2-2.1-1.3-.1-2.3 1.1-2.1 2.3z"/><defs><path id="e" d="M43.3 77.9H64v8H43.3z"/></defs><clipPath id="f"><use xlink:href="#e" overflow="visible"/></clipPath><g clip-path="url(#f)"><path fill="#A8A7A7" d="M46.7 85.2c4.7-2.9 10-4.8 15.6-5.7.3 0 .4-.3.4-.5s-.2-.4-.5-.4c-5.8-.2-11.8.8-17.4 3-1 .4-1.6 1.6-1.2 2.6.6 1.1 2 1.6 3.1 1z"/></g><path fill="#A8A7A7" d="M52.4 68.2c4.2 1.3 7.9 4.2 10.4 8 .2.3.6.4.9.2.3-.2.3-.5.2-.8-1.8-4.7-5.4-8.7-9.8-11.2-1-.6-2.3-.2-2.8.8-.7 1.2-.1 2.6 1.1 3zM172.8 134.3c-5.8-3.4-13.2-4-19.5-1.5-.3.1-.4.4-.3.7.1.2.3.4.6.3 3-.7 6.1-.6 9.1.1s5.6 2 7.8 3.8c.9.7 2.2.6 2.9-.3.8-1 .5-2.5-.6-3.1zM167.2 121.6c-5.7 1.2-10.8 4.3-14.5 8.7-.3.4.2.9.6.6 2.1-1.7 4.5-3 6.9-3.9 2.5-.9 5-1.3 7.5-1.4 1.1 0 2-.9 2-2.1 0-1.2-1.3-2.2-2.5-1.9zM139.8 147.4c2.2-4.8 5.4-9.1 8.9-12 .3-.2.5.2.2.5-1.5 1.7-2.9 3.7-4.1 5.7-1.2 2.1-2.1 4.3-2.8 6.4-.3 1-1.1 1.7-1.7 1.6-.8 0-1-1.2-.5-2.2zM158 152c0-5.8-2-11.5-5.5-16-.3-.4-.9 0-.7.4 1.2 2.4 2 5 2.3 7.6.4 2.6.3 5.2-.2 7.7-.2 1.1.5 2.2 1.6 2.4 1.3.2 2.5-.8 2.5-2.1zM151 112.6c.8 5.4.6 11.1-.8 16.7-.1.3.1.5.3.6.2.1.5-.1.6-.3 2.4-5.3 3.8-11.2 4-17.2 0-1.1-.9-2.1-2-2.1-1.3-.1-2.3 1.1-2.1 2.3zM131.3 139.3c4.7-2.9 10-4.8 15.6-5.7.3 0 .4-.3.4-.5s-.2-.4-.5-.4c-5.8-.2-11.8.8-17.4 3-1 .4-1.6 1.6-1.2 2.6.6 1.2 2 1.7 3.1 1zM137 122.4c4.2 1.3 7.9 4.2 10.4 8 .2.3.6.4.9.2.3-.2.4-.5.2-.8-1.8-4.7-5.4-8.7-9.8-11.2-1-.6-2.3-.2-2.8.8-.7 1.1-.1 2.6 1.1 3z"/><defs><path id="g" d="M97.3 95.2h20V184h-20z"/></defs><clipPath id="h"><use xlink:href="#g" overflow="visible"/></clipPath><g clip-path="url(#h)"><path fill="#A8A7A7" d="M115.9 95.6c-.3-.1-.6 0-.8.3-7.5 12.4-17.3 88.2-17.3 88.2 6.6-47.7 18.2-86.8 18.2-86.8s.4-1.6-.1-1.7z"/></g><path fill="#A8A7A7" d="M80.4 106.8c.2 0 .3 0 .4.1 3.9 6.5 9 46.1 9 46.1-3.4-24.9-9.5-45.4-9.5-45.4s-.2-.8.1-.8zM135.6 142.6c-.1-.1-.3-.1-.4 0-6.1 4.4-26.4 38.8-26.4 38.8 12.9-21.6 26.5-38 26.5-38s.5-.6.3-.8z"/><path fill="#FFC200" d="M42.9 267.3h47.8c5.1 0 9.1 4.1 9.1 9.1v1.7c0 5.1-4.1 9.1-9.1 9.1H42.9c-5.1 0-9.1-4.1-9.1-9.1v-1.7c-.1-5 4-9.1 9.1-9.1z"/><defs><path id="i" d="M49.3 292.5H84v20.1H49.3z"/></defs><clipPath id="j"><use xlink:href="#i" overflow="visible"/></clipPath><g clip-path="url(#j)"><path fill="#FFC200" d="M57.1 293.5h19.3c4 0 7.2 3.2 7.2 7.2v4.8c0 4-3.2 7.2-7.2 7.2H57.1c-4 0-7.2-3.2-7.2-7.2v-4.8c.1-4 3.3-7.2 7.2-7.2z"/></g><defs><path id="k" d="M0 100.6h133.3v159.9H0z"/></defs><clipPath id="l"><use xlink:href="#k" overflow="visible"/></clipPath><g clip-path="url(#l)"><path fill="#FFC200" fill-rule="evenodd" d="M29.1 244.6C28.6 253 35.5 261 39 260h53.4c6.1-.4 9.6-5 10.8-13.6-1.2-22.8 27.5-43.5 28.9-78.7 1.4-35.2-27.3-66-65.2-67-37.9-1-66.9 29.2-67 65.2.2 35.9 22.8 43.5 29.2 78.7zm18.2-12.7c1.8 7.3 1.4 8.9 9.9 9h19c3.7.4 8.1-2.7 9.1-8.2 2.2-17.6 26.2-40.1 27.1-65.2 1-25.2-18.5-47.3-45.5-47.9-26.9-.6-45.1 21.5-46.8 47.2-1.7 25.6 21 39.9 27.2 65.1z" clip-rule="evenodd"/></g><defs><path id="m" d="M172 147.2h242.4v72H172z"/></defs><clipPath id="n"><use xlink:href="#m" overflow="visible"/></clipPath><g clip-path="url(#n)"><path fill="#ECECEC" fill-rule="evenodd" d="M204.6 168c0 1.9-.4 3.7-1.1 5.4-.7 1.7-1.7 3.1-2.9 4.4-1.2 1.2-2.7 2.2-4.4 2.9-1.7.7-3.5 1.1-5.4 1.1h-12.6v21.4h-5v-55.7h17.6c1.9 0 3.7.4 5.4 1.1 1.7.7 3.1 1.7 4.4 2.9 1.2 1.2 2.2 2.7 2.9 4.4.7 1.7 1.1 3.5 1.1 5.4v6.7zm-5.1 0v-7c0-1.2-.2-2.4-.7-3.5-.5-1.1-1.1-2-1.9-2.9-.8-.8-1.8-1.5-2.9-1.9-1.1-.5-2.2-.7-3.5-.7h-12.3v24.8h12.4c1.2 0 2.4-.2 3.5-.7 1.1-.5 2-1.1 2.9-1.9.8-.8 1.5-1.8 1.9-2.8.4-1 .6-2.2.6-3.4zm39.6 24.1c0 1.6-.3 3.1-.9 4.6-.6 1.4-1.5 2.7-2.5 3.8-1.1 1.1-2.3 1.9-3.8 2.5-1.4.6-3 .9-4.6.9h-3.2c-1.6 0-3.1-.3-4.6-.9-1.4-.6-2.7-1.5-3.8-2.5-1.1-1.1-1.9-2.3-2.5-3.8-.6-1.4-.9-3-.9-4.6v-17.9c0-1.6.3-3.1.9-4.6.6-1.4 1.5-2.7 2.5-3.8 1.1-1.1 2.3-1.9 3.8-2.5 1.4-.6 3-.9 4.6-.9h3.2c1.6 0 3.1.3 4.6.9 1.4.6 2.7 1.5 3.8 2.5 1.1 1.1 1.9 2.3 2.5 3.8.6 1.4.9 3 .9 4.6v17.9zm-4.8.3v-18.5c0-1-.2-1.9-.5-2.7-.4-.8-.9-1.6-1.5-2.2-.6-.6-1.4-1.1-2.2-1.5-.8-.4-1.8-.5-2.7-.5h-3.2c-1 0-1.9.2-2.7.5-.8.4-1.6.9-2.2 1.5-.6.6-1.1 1.4-1.5 2.2-.4.8-.5 1.8-.5 2.7v18.5c0 1 .2 1.9.5 2.7.4.8.9 1.6 1.5 2.2.6.6 1.4 1.1 2.2 1.5s1.8.5 2.7.5h3.2c1 0 1.9-.2 2.7-.5.8-.4 1.6-.9 2.2-1.5.6-.6 1.1-1.4 1.5-2.2.3-.8.5-1.7.5-2.7zm30.8-24.5h-4.8c-1 0-1.9.2-2.7.5-.8.4-1.6.9-2.2 1.5-.6.6-1.1 1.4-1.5 2.2-.4.8-.5 1.8-.5 2.7v28.3h-4.8v-39.8h1.6l2.6 4.1c1.1-1.5 2.5-2.7 4.1-3.5 1.7-.9 3.5-1.3 5.4-1.3h2.8v5.3zm25.2 35.2h-4.4c-1.5 0-2.8-.3-4.1-.8-1.3-.5-2.4-1.3-3.4-2.3-1-1-1.7-2.1-2.3-3.4-.6-1.3-.8-2.6-.8-4.1v-24.7h-7.2v-4.6h7.2v-9.5l4.8-.8v10.3h10.1v4.6h-10.1v25c0 .8.1 1.6.5 2.2.3.7.7 1.3 1.2 1.8s1.1.9 1.8 1.2c.7.3 1.5.4 2.3.4h4.4v4.7zm35.4 0h-1.6l-2.7-4.1c-1.1 1.5-2.5 2.7-4.1 3.5-1.6.9-3.4 1.3-5.4 1.3h-1.2c-1.6 0-3.1-.3-4.6-.9-1.4-.6-2.7-1.5-3.8-2.5-1.1-1.1-1.9-2.3-2.5-3.8-.6-1.4-.9-3-.9-4.6v-28.8h4.8v29.1c0 1 .2 1.9.5 2.7.4.8.9 1.6 1.5 2.2.6.6 1.4 1.1 2.2 1.5.8.4 1.8.5 2.7.5h3.2c1 0 1.9-.2 2.7-.5.8-.4 1.6-.9 2.2-1.5.6-.6 1.1-1.4 1.5-2.2.4-.8.5-1.8.5-2.7v-29h4.8v39.8h.2zm36.5 5c0 1.6-.3 3.1-.9 4.5-.6 1.4-1.5 2.5-2.5 3.5-1.1 1-2.3 1.7-3.8 2.2-1.4.5-3 .8-4.6.8h-2c-1.6 0-3.1-.3-4.6-.8-1.4-.5-2.7-1.3-3.8-2.2-1.1-1-1.9-2.1-2.5-3.5-.6-1.4-.9-2.8-.9-4.5v-.2c0-1.6.3-3 .9-4.3.6-1.3 1.4-2.4 2.3-3.4-1.2-.8-2.2-1.8-3-3.1-.7-1.3-1.1-2.7-1.1-4.3 0-1.4.3-2.7.9-3.9.6-1.2 1.4-2.2 2.5-2.9-1.3-1.1-2.2-2.4-3-3.9-.7-1.5-1.1-3.2-1.1-5v-3c0-1.6.3-3.1.9-4.6.6-1.4 1.5-2.7 2.5-3.8 1.1-1.1 2.3-1.9 3.8-2.5 1.4-.6 3-.9 4.6-.9h2c2 0 3.8.4 5.4 1.3 1.7.9 3 2.1 4.1 3.5l2.6-4.1h1.6v13.9c0 1.6-.3 3.1-.9 4.6-.6 1.4-1.5 2.7-2.5 3.8-1.1 1.1-2.3 1.9-3.8 2.5-1.4.6-3 .9-4.6.9h-7c-.5 0-1.1.1-1.6.3-.5.2-.9.5-1.3.9s-.7.8-.9 1.3c-.2.5-.3 1-.3 1.6 0 .5.1 1.1.3 1.6.2.5.5.9.9 1.3s.8.7 1.3.9c.5.2 1 .3 1.6.3h6.6c1.6 0 3.1.3 4.6.8 1.4.5 2.7 1.3 3.8 2.2 1.1 1 1.9 2.1 2.5 3.5.6 1.5.9 2.9 1 4.7zm-4.4-30.6v-3.6c0-1-.2-1.9-.5-2.7-.4-.8-.9-1.6-1.5-2.2-.6-.6-1.4-1.1-2.2-1.5-.8-.4-1.8-.5-2.7-.5h-4c-1 0-1.9.2-2.7.5-.8.4-1.6.9-2.2 1.5-.6.6-1.1 1.4-1.5 2.2-.4.8-.5 1.8-.5 2.7v3.6c0 1 .2 1.9.5 2.7.4.8.9 1.6 1.5 2.2.6.6 1.4 1.1 2.2 1.5.8.4 1.8.5 2.7.5h4c1 0 1.9-.2 2.7-.5.8-.4 1.6-.9 2.2-1.5.6-.6 1.1-1.4 1.5-2.2.3-.9.5-1.8.5-2.7zm-.2 30.8v-.6c0-1-.2-1.8-.5-2.6-.4-.8-.9-1.4-1.5-1.9s-1.4-.9-2.2-1.2-1.8-.4-2.7-.4h-2.5c-1 0-1.9.1-2.7.4-.8.3-1.6.7-2.2 1.2-.6.5-1.1 1.2-1.5 1.9-.4.8-.5 1.6-.5 2.6v.6c0 1 .2 1.8.5 2.6.4.8.9 1.4 1.5 1.9s1.4.9 2.2 1.2c.8.3 1.8.4 2.7.4h2.5c1 0 1.9-.1 2.7-.4s1.6-.7 2.2-1.2c.6-.5 1.1-1.2 1.5-1.9.3-.8.5-1.6.5-2.6zm40.3-16.2c0 1.6-.3 3.1-.9 4.6-.6 1.4-1.5 2.7-2.5 3.8-1.1 1.1-2.3 1.9-3.8 2.5-1.4.6-3 .9-4.6.9H383c-1.6 0-3.1-.3-4.6-.9-1.4-.6-2.7-1.5-3.8-2.5-1.1-1.1-1.9-2.3-2.5-3.8-.6-1.4-.9-3-.9-4.6v-17.9c0-1.6.3-3.1.9-4.6.6-1.4 1.5-2.7 2.5-3.8 1.1-1.1 2.3-1.9 3.8-2.5 1.4-.6 3-.9 4.6-.9h3.2c1.6 0 3.1.3 4.6.9 1.4.6 2.7 1.5 3.8 2.5 1.1 1.1 1.9 2.3 2.5 3.8.6 1.4.9 3 .9 4.6l-.1 17.9zm-4.8.3v-18.5c0-1-.2-1.9-.5-2.7-.4-.8-.9-1.6-1.5-2.2-.6-.6-1.4-1.1-2.2-1.5-.8-.4-1.8-.5-2.7-.5H383c-1 0-1.9.2-2.7.5-.8.4-1.6.9-2.2 1.5-.6.6-1.1 1.4-1.5 2.2-.4.8-.5 1.8-.5 2.7v18.5c0 1 .2 1.9.5 2.7.4.8.9 1.6 1.5 2.2.6.6 1.4 1.1 2.2 1.5s1.8.5 2.7.5h3.2c1 0 1.9-.2 2.7-.5.8-.4 1.6-.9 2.2-1.5.6-.6 1.1-1.4 1.5-2.2.3-.8.5-1.7.5-2.7zm20.7 10.7H409v-55.7h4.8v55.7z" clip-rule="evenodd"/></g><path fill="#A8A7A7" fill-rule="evenodd" stroke="#A8A7A7" stroke-miterlimit="9.944" stroke-width=".746" d="M283.7 255.4v.9c0 1-.2 1.9-.6 2.8-.4.9-.9 1.6-1.6 2.2-.7.6-1.4 1.1-2.3 1.5-.9.4-1.8.6-2.8.6h-2.1c-1 0-1.9-.2-2.8-.6-.9-.4-1.6-.9-2.3-1.5-.7-.6-1.2-1.4-1.6-2.2-.4-.9-.6-1.8-.6-2.8v-1.1l2.6-.4v1.6c0 .6.1 1.2.4 1.8.3.6.6 1 1.1 1.5.4.4 1 .8 1.5 1 .6.2 1.2.4 1.8.4h1.8c.6 0 1.3-.1 1.8-.4.6-.2 1.1-.6 1.5-1 .4-.4.8-.9 1.1-1.5.3-.6.4-1.2.4-1.8v-.9c0-1-.2-1.8-.6-2.5-.4-.7-.9-1.2-1.5-1.7s-1.4-.9-2.2-1.2c-.8-.3-1.6-.6-2.5-1-.9-.3-1.7-.7-2.5-1.1-.8-.4-1.5-.9-2.2-1.5-.6-.6-1.2-1.3-1.5-2.1-.4-.8-.6-1.9-.6-3.1v-.5c0-1 .2-1.9.6-2.8s.9-1.6 1.5-2.2c.6-.6 1.4-1.1 2.3-1.5s1.8-.6 2.8-.6h1.8c1 0 1.9.2 2.8.6.9.4 1.6.9 2.2 1.5.6.6 1.1 1.4 1.5 2.2.4.9.6 1.8.6 2.8v.7l-2.6.4v-1.2c0-.6-.1-1.2-.4-1.8-.2-.6-.6-1-1-1.5-.4-.4-.9-.7-1.5-1-.6-.2-1.2-.4-1.8-.4h-1.6c-.6 0-1.2.1-1.8.4-.6.2-1 .6-1.5 1-.4.4-.8.9-1 1.5-.2.6-.4 1.2-.4 1.8v.5c0 .9.2 1.7.6 2.3.4.6.9 1.2 1.5 1.6.6.4 1.4.8 2.2 1.2.8.3 1.6.7 2.5 1 .9.3 1.7.7 2.5 1.1.8.4 1.5.9 2.2 1.5.6.6 1.2 1.3 1.5 2.2.6 1 .8 2.1.8 3.3z" clip-rule="evenodd"/><path fill="#A8A7A7" fill-rule="evenodd" d="M212.6 223.3 202 263.6h-1.9l-7.9-30.4-.1-1.5-.2 1.6-7.8 30.4h-1.9l-10.7-40.4h3.7l8 30.7.1 1.5.1-1.5 7.8-30.7h2L201 254l.1 1.5.1-1.5 7.9-30.7h3.5zm21 31.9c0 1.2-.2 2.3-.7 3.3-.4 1-1.1 1.9-1.8 2.7-.8.8-1.7 1.4-2.7 1.8-1 .4-2.1.7-3.3.7h-2.3c-1.2 0-2.3-.2-3.3-.7-1-.4-1.9-1.1-2.7-1.8-.8-.8-1.4-1.7-1.8-2.7-.4-1-.7-2.1-.7-3.3v-13c0-1.2.2-2.3.7-3.3.4-1 1.1-1.9 1.8-2.7.8-.8 1.7-1.4 2.7-1.8 1-.4 2.1-.7 3.3-.7h2.3c1.2 0 2.3.2 3.3.7 1 .4 1.9 1.1 2.7 1.8.8.8 1.4 1.7 1.8 2.7.4 1 .7 2.1.7 3.3v6.8h-15.8v6.5c0 .7.1 1.4.4 2 .3.6.6 1.1 1.1 1.6.5.5 1 .8 1.6 1.1.6.3 1.3.4 2 .4h2.3c.7 0 1.4-.1 2-.4.6-.3 1.1-.6 1.6-1.1.5-.5.8-1 1.1-1.6.3-.6.4-1.3.4-2v-1.9l3.5.6-.2 1zm-3.5-9v-4.3c0-.7-.1-1.4-.4-2-.3-.6-.6-1.1-1.1-1.6-.5-.5-1-.8-1.6-1.1s-1.3-.4-2-.4h-2.3c-.7 0-1.4.1-2 .4-.6.3-1.1.6-1.6 1.1-.5.5-.8 1-1.1 1.6-.3.6-.4 1.3-.4 2v4.3h12.5zm29.6 9c0 1.2-.2 2.3-.7 3.3-.4 1-1.1 1.9-1.8 2.7-.8.8-1.7 1.4-2.7 1.8-1 .4-2.1.7-3.3.7H249c-1.2 0-2.3-.2-3.3-.7-1-.4-1.9-1.1-2.7-1.8-.8-.8-1.4-1.7-1.8-2.7-.4-1-.7-2.1-.7-3.3v-32.5h3.5v13.9c.8-.9 1.7-1.7 2.9-2.2 1.1-.5 2.3-.8 3.6-.8h.9c1.2 0 2.3.2 3.3.7 1 .4 1.9 1.1 2.7 1.8.8.8 1.4 1.7 1.8 2.7s.7 2.1.7 3.3v13.1h-.2zm-3.4.1v-13.4c0-.7-.1-1.4-.4-2-.3-.6-.6-1.1-1.1-1.6-.5-.5-1-.8-1.6-1.1-.6-.3-1.3-.4-2-.4h-2.3c-.7 0-1.4.1-2 .4-.6.3-1.1.6-1.6 1.1-.5.5-.8 1-1.1 1.6-.3.6-.4 1.3-.4 2v13.4c0 .7.1 1.4.4 2 .3.6.6 1.1 1.1 1.6.5.5 1 .8 1.6 1.1.6.3 1.3.4 2 .4h2.3c.7 0 1.4-.1 2-.4.6-.3 1.1-.6 1.6-1.1.5-.5.8-1 1.1-1.6.3-.7.4-1.3.4-2zm47.6 8.5h-3.2c-1.1 0-2.1-.2-3-.6-.9-.4-1.7-.9-2.4-1.6-.7-.7-1.2-1.5-1.6-2.4-.4-.9-.6-1.9-.6-3v-17.9H288V235h5.2v-7l3.5-.6v7.5h7.4v3.3h-7.4v18.1c0 .6.1 1.1.3 1.6.2.5.5.9.9 1.3s.8.7 1.3.9c.5.2 1.1.3 1.6.3h3.2v3.4zm26.7-.6h-1.2l-1.9-3c-.8 1.1-1.8 1.9-3.1 2.7-1.2.6-2.6.9-4 .9h-.9c-1.2 0-2.4-.2-3.4-.7-1-.4-1.9-1.1-2.8-1.8-.8-.8-1.4-1.8-1.9-2.8-.4-1-.7-2.2-.7-3.4v-21.6h3.6v21.8c0 .7.1 1.4.4 2.1.3.6.6 1.1 1.1 1.6.5.5 1 .8 1.6 1.1.6.3 1.3.4 2.1.4h2.4c.7 0 1.4-.1 2.1-.4.6-.3 1.1-.6 1.6-1.1.5-.5.8-1 1.1-1.6.3-.6.4-1.3.4-2.1v-21.8h3.6v29.7h-.1zm25.5-.2h-1.2l-1.9-2.9c-.8 1.1-1.8 1.9-3 2.6-1.2.6-2.5.9-3.9.9h-.9c-1.2 0-2.3-.2-3.3-.7-1-.4-1.9-1.1-2.7-1.8-.8-.8-1.4-1.7-1.8-2.7-.4-1-.7-2.1-.7-3.3v-13c0-1.2.2-2.3.7-3.3.4-1 1.1-1.9 1.8-2.7.8-.8 1.7-1.4 2.7-1.8 1-.4 2.1-.7 3.3-.7h.9c1.3 0 2.5.3 3.6.8s2.1 1.3 2.9 2.2v-13.9h3.5V263zm-3.5-7.7v-13.4c0-.7-.1-1.4-.4-2-.3-.6-.6-1.1-1.1-1.6-.5-.5-1-.8-1.6-1.1-.6-.3-1.3-.4-2-.4h-2.3c-.7 0-1.4.1-2 .4-.6.3-1.1.6-1.6 1.1-.5.5-.8 1-1.1 1.6-.3.6-.4 1.3-.4 2v13.4c0 .7.1 1.4.4 2 .3.6.6 1.1 1.1 1.6.5.5 1 .8 1.6 1.1.6.3 1.3.4 2 .4h2.3c.7 0 1.4-.1 2-.4.6-.3 1.1-.6 1.6-1.1.5-.5.8-1 1.1-1.6.3-.7.4-1.3.4-2zm14.8-28h-3c-.1 0-.2-.1-.2-.2V223c0-.1.1-.2.2-.2h3.1c.1 0 .2.1.2.2v4.1c0 .1-.1.2-.3.2zm.3 36.6h-3.6v-29.7h3.6v29.7zm26.3-8.7c0 1.2-.2 2.3-.7 3.3-.4 1-1.1 1.9-1.8 2.7-.8.8-1.7 1.4-2.7 1.8-1 .4-2.1.7-3.3.7h-2.3c-1.2 0-2.3-.2-3.3-.7-1-.4-1.9-1.1-2.7-1.8-.8-.8-1.4-1.7-1.8-2.7-.4-1-.7-2.1-.7-3.3v-13c0-1.2.2-2.3.7-3.3.4-1 1.1-1.9 1.8-2.7.8-.8 1.7-1.4 2.7-1.8 1-.4 2.1-.7 3.3-.7h2.3c1.2 0 2.3.2 3.3.7 1 .4 1.9 1.1 2.7 1.8.8.8 1.4 1.7 1.8 2.7.4 1 .7 2.1.7 3.3v13zm-3.5.1v-13.4c0-.7-.1-1.4-.4-2-.3-.6-.6-1.1-1.1-1.6-.5-.5-1-.8-1.6-1.1-.6-.3-1.3-.4-2-.4h-2.3c-.7 0-1.4.1-2 .4-.6.3-1.1.6-1.6 1.1-.5.5-.8 1-1.1 1.6-.3.6-.4 1.3-.4 2v13.4c0 .7.1 1.4.4 2 .3.6.6 1.1 1.1 1.6.5.5 1 .8 1.6 1.1.6.3 1.3.4 2 .4h2.3c.7 0 1.4-.1 2-.4.6-.3 1.1-.6 1.6-1.1.5-.5.8-1 1.1-1.6.3-.7.4-1.3.4-2z" clip-rule="evenodd"/></svg>
