<svg xmlns="http://www.w3.org/2000/svg" xmlns:xlink="http://www.w3.org/1999/xlink" xml:space="preserve" viewBox="0 0 492.3 333.1"><path fill="#FE5275" d="M231.9 123.3c5.2.5 11.7 3.6 12.7 10.4.4 3-.3 5.7-2.1 7.6-1.8 1.9-4.4 2.8-7.3 2.6-3.9-.3-7.1-2-9.6-5.1-2.9-3.7-4.3-8.8-4.7-13.8 3.5-1.4 7.2-2.1 11-1.7zm18.6-.4c-3.9-5.6-9.7-9-16.5-9.7-3.9-.4-8.2 0-12.4 1.2 2.9-13.6 12.4-22.5 22.3-30.2 1.3-1 1.7-3 .9-4.6-.7-1.5-2.2-2.3-3.8-1.9-16.4 4-26.7 21.5-29.2 36-.3 1.7-.5 3.5-.6 5.3-2.4 1.5-4.8 3.2-6.9 5.1-14.9 13.7-24.3 33.8-27.2 57.9-.2 1.3.4 2.5 1.4 3.1.4.3.9.5 1.5.6 1.8.2 3.3-1 3.5-2.8 1.7-13 7.3-26.5 16.2-38.9 3.3-4.6 7.4-9.5 12.1-13.4 2.1 11.2 8.6 20.9 20 23.2 7.8 1.6 15-1.2 19.2-7.6 4.6-6.9 4.4-16.3-.5-23.3"/><path fill="#AAA" d="M131.1 96.3c-1.9 2.3-5.9 5.9-10.9 4.6-2.4-.6-4.2-2.1-4.7-4-.5-1.5 0-3.1 1.3-4.6 1.6-1.8 3.5-2.6 5.9-2.7 3.5-.1 7.3 1.5 10.6 3.7-.7 1.1-1.4 2.1-2.2 3zm23 73.9c4.7-19.2 8.4-37.8 3.6-55.8-2.4-8.8-7.5-18.2-14.8-24.6 1.6-3.7 2.7-7.5 3.4-11 3.4-18-2.2-36.6-14.6-48.6-1.3-1.2-3.1-1.2-4.4 0-1.2 1.2-1.8 3.3-.4 4.9 9.6 11.5 14.1 26.1 12.5 39.9-.4 3.8-1.2 7.3-2.4 10.5-3.8-2.1-7.9-3.4-12.4-3.6-6.7-.3-14.3 3.5-15.9 11.2-1.2 6.1 2.6 12 9 14 4.5 1.5 8.9 1 13-1.5 3-1.8 5.7-4.6 8-8 6 6.2 9 14.3 10.5 20.1 3.4 13.1 1.6 26.9-.2 40.3-.5 3.5-.9 7.1-1.3 10.6-.1 1.3.5 2.5 1.6 3.2.4.3.9.5 1.4.6 1.6.4 3-.5 3.4-2.2"/><defs><path id="a" d="M33.9 111.7h89.3v87.8H33.9z"/></defs><clipPath id="b"><use xlink:href="#a" overflow="visible"/></clipPath><g clip-path="url(#b)"><path fill="#68CDDF" d="M72.4 160.8c.3 7.5-2.1 15-8.9 19.9-4.2 3-10.7 5.2-16.6 2.4-3.4-1.7-5.6-4.4-5.9-7.7-.3-3.2 1.3-6.4 4.4-8.6 7.5-5.2 17.6-6.8 27-6zm50.3 34.7c-5.4-18.5-19.1-32.9-36.7-38.6-2.2-.7-4.5-1.3-6.8-1.7-4-20.4-22.6-32.8-40.5-42.3-1.4-.7-3-.2-3.8 1.2-.7 1.3-.6 3.2 1 4.2 11.5 6.8 25.8 15.2 32.7 28.7 1.1 2.2 2.1 4.7 2.7 7.2-12.3-.8-25 2-32.4 10-4.5 4.9-5.5 10.8-2.6 16.2.4.7.8 1.3 1.2 2 4.2 5.7 12 9 19.1 7.8 13.3-2.1 23-14.3 23.1-28.3 1.4.3 2.7.7 3.9 1 16.2 5 28.7 17.8 33.7 34.2.4 1.5 1.8 2.3 3.3 1.8 1.5-.2 2.6-1.7 2.1-3.4"/></g><path fill="#68CDDF" d="M196.4 98.7c-3 2.5-6.1 5.8-7.3 9.5-.5 1.5 1.5 3.2 2.5 1.6 2.1-3.2 3.6-6.2 6.5-8.8 1.2-1.1-.3-3.4-1.7-2.3"/><path fill="#FE5275" d="M118.5 154.4c-3.9-6.6-8.9-12.3-14.9-17-1.4-1.1-2.9 1.2-1.6 2.2 5.9 4.6 10.7 10.1 14.5 16.5.9 1.6 2.9-.3 2-1.7M38.4 154.7c1.5-6 5.6-10.5 11.4-12.7 1.6-.6.6-3.3-1-2.7-6.4 2.4-11.1 7.6-12.8 14.2-.5 1.7 1.9 3 2.4 1.2"/><path fill="#43E1B0" d="M88.1 77.1c.6-8.7-3.1-17.3-11.1-21.4-8.1-4.2-17.8-2.1-24.3 4-1.3 1.2.3 3.6 1.7 2.4 12-10.5 31.9-1.6 31.1 14.6-.1 1.7 2.5 2.3 2.6.4M133.4 142.4c-.9-14.7-20.6-21.2-32.9-19.6-1.9.2-1.4 3.2.4 3.1 5.9-.1 11.9 1.2 17.3 3.7 5.1 2.4 12 6.9 12.6 13.1.2 1.9 2.7 1.5 2.6-.3"/><defs><path id="c" d="M255.2 87.7H276V97h-20.8z"/></defs><clipPath id="d"><use xlink:href="#c" overflow="visible"/></clipPath><g clip-path="url(#d)"><path fill="#43E1B0" d="M257.9 96.4c4.3-4.2 10.2-5.9 16.1-4.8 1.7.3 2-2.5.3-2.8-6.5-1.3-13.2.7-18 5.3-1.2 1.2.3 3.5 1.6 2.3"/></g><path fill="#FE5275" d="m22.3 119.2-1.4-2.5c-.2-.3-.2-.7 0-1l1.3-2.5c.4-.8-.3-1.7-1.2-1.6l-2.8.5c-.4.1-.7 0-1-.3l-2-2c-.7-.6-1.8-.2-1.9.7l-.3 2.8c0 .4-.3.7-.6.8l-2.5 1.3c-.8.4-.8 1.6 0 2l2.6 1.2c.3.2.6.5.6.8l.5 2.8c.2.9 1.3 1.2 1.9.6l1.9-2.1c.2-.3.6-.4 1-.3l2.8.4c.9.1 1.5-.8 1.1-1.6"/><path fill="#68CDDF" d="m104.8 40.8-1.4-2.5c-.2-.3-.2-.7 0-1l1.3-2.5c.4-.8-.3-1.7-1.2-1.6l-2.8.5c-.4.1-.7 0-1-.3l-2-2c-.7-.6-1.8-.2-1.9.7l-.3 2.8c0 .4-.3.7-.6.8L92.4 37c-.8.4-.8 1.6 0 2l2.6 1.2c.3.1.6.5.6.8l.5 2.8c.2.9 1.3 1.2 1.9.6l1.9-2.1c.2-.3.6-.4 1-.3l2.8.4c.8.1 1.5-.8 1.1-1.6"/><path fill="#AAA" d="m217.7 40.7-1.4-2.5c-.2-.3-.2-.7 0-1l1.3-2.5c.4-.8-.3-1.7-1.2-1.6l-2.8.5c-.4.1-.7 0-1-.3l-2-2c-.7-.6-1.8-.3-1.9.7l-.3 2.8c0 .4-.3.7-.6.8l-2.5 1.3c-.8.4-.8 1.6 0 2l2.6 1.2c.3.2.6.5.6.8l.5 2.8c.2.9 1.3 1.2 1.9.6l1.9-2.1c.2-.3.6-.4 1-.3l2.8.4c.9.1 1.6-.8 1.1-1.6"/><path fill="#68CDDF" d="M77.5 109.8c1.2-1.7.7-4-.9-5.1-1.7-1.2-4-.7-5.1.9-1.2 1.7-.7 4 .9 5.1 1.7 1.1 4 .7 5.1-.9"/><path fill="#7870DE" d="M179.9 68.6c1.2-1.7.7-4-.9-5.1-1.7-1.2-4-.7-5.1.9-1.2 1.7-.7 4 .9 5.1 1.7 1.2 4 .8 5.1-.9"/><path fill="#FE5275" d="M16.9 76.5c1.2-1.7.7-4-.9-5.1-1.7-1.2-4-.7-5.1.9-1.2 1.7-.7 4 .9 5.1 1.7 1.2 3.9.7 5.1-.9M126.3 5.8c1.2-1.7.7-4-.9-5.1-1.7-1.2-4-.7-5.1.9-1.2 1.7-.7 4 .9 5.1s4 .7 5.1-.9M179.4 125.1c1.2-1.7.7-4-.9-5.1-1.7-1.2-4-.7-5.1.9-1.2 1.7-.7 4 .9 5.1 1.7 1.2 3.9.8 5.1-.9"/><defs><path id="e" d="M0 159.7h8.6v9.3H0z"/></defs><clipPath id="f"><use xlink:href="#e" overflow="visible"/></clipPath><g clip-path="url(#f)"><path fill="#AAA" d="M7.3 166.5c1.2-1.7.7-4-.9-5.1-1.7-1.2-4-.7-5.1.9-1.2 1.7-.7 4 .9 5.1 1.6 1.2 3.9.8 5.1-.9"/></g><path fill="#FFC200" d="M120.8 287.8h47.8c5.1 0 9.1 4.1 9.1 9.1v1.7c0 5.1-4.1 9.1-9.1 9.1h-47.8c-5.1 0-9.1-4.1-9.1-9.1v-1.7c-.1-5 4-9.1 9.1-9.1z"/><defs><path id="g" d="M127.2 313h34.7v20.1h-34.7z"/></defs><clipPath id="h"><use xlink:href="#g" overflow="visible"/></clipPath><g clip-path="url(#h)"><path fill="#FFC200" d="M135 314h19.3c4 0 7.2 3.2 7.2 7.2v4.8c0 4-3.2 7.2-7.2 7.2H135c-4 0-7.2-3.2-7.2-7.2v-4.8c.1-4 3.3-7.2 7.2-7.2z"/></g><defs><path id="i" d="M77.9 121.1h133.3V281H77.9z"/></defs><clipPath id="j"><use xlink:href="#i" overflow="visible"/></clipPath><g clip-path="url(#j)"><path fill="#FFC200" fill-rule="evenodd" d="M107.1 265.1c-.5 8.4 6.4 16.4 9.9 15.4h53.4c6.1-.4 9.6-5 10.8-13.6-1.2-22.8 27.5-43.5 28.9-78.7 1.4-35.2-27.3-66-65.2-67s-66.9 29.2-67 65.2c.1 35.9 22.7 43.5 29.2 78.7zm18.1-12.7c1.8 7.3 1.4 8.9 9.9 9h19c3.7.4 8.1-2.7 9.1-8.2 2.2-17.6 26.2-40.1 27.1-65.2 1-25.2-18.5-47.3-45.5-47.9-26.9-.6-45.1 21.5-46.8 47.1s21 40 27.2 65.2z" clip-rule="evenodd"/></g><defs><path id="k" d="M249.9 167.7h242.4v72H249.9z"/></defs><clipPath id="l"><use xlink:href="#k" overflow="visible"/></clipPath><g clip-path="url(#l)"><path fill="#ECECEC" fill-rule="evenodd" d="M282.5 188.5c0 1.9-.4 3.7-1.1 5.4-.7 1.7-1.7 3.1-2.9 4.4-1.2 1.2-2.7 2.2-4.4 2.9-1.7.7-3.5 1.1-5.4 1.1h-12.6v21.4h-5V168h17.6c1.9 0 3.7.4 5.4 1.1 1.7.7 3.1 1.7 4.4 2.9 1.2 1.2 2.2 2.7 2.9 4.4.7 1.7 1.1 3.5 1.1 5.4v6.7zm-5.1 0v-7c0-1.2-.2-2.4-.7-3.5-.5-1.1-1.1-2-1.9-2.9-.8-.8-1.8-1.5-2.9-1.9-1.1-.5-2.2-.7-3.5-.7h-12.3v24.8h12.4c1.2 0 2.4-.2 3.5-.7 1.1-.5 2-1.1 2.9-1.9.8-.8 1.5-1.8 1.9-2.8.4-1 .6-2.2.6-3.4zm39.6 24.1c0 1.6-.3 3.1-.9 4.6-.6 1.4-1.5 2.7-2.5 3.8-1.1 1.1-2.3 1.9-3.8 2.5-1.4.6-3 .9-4.6.9H302c-1.6 0-3.1-.3-4.6-.9-1.4-.6-2.7-1.5-3.8-2.5-1.1-1.1-1.9-2.3-2.5-3.8-.6-1.4-.9-3-.9-4.6v-17.9c0-1.6.3-3.1.9-4.6.6-1.4 1.5-2.7 2.5-3.8 1.1-1.1 2.3-1.9 3.8-2.5 1.4-.6 3-.9 4.6-.9h3.2c1.6 0 3.1.3 4.6.9 1.4.6 2.7 1.5 3.8 2.5 1.1 1.1 1.9 2.3 2.5 3.8.6 1.4.9 3 .9 4.6v17.9zm-4.8.3v-18.5c0-1-.2-1.9-.5-2.7-.4-.8-.9-1.6-1.5-2.2-.6-.6-1.4-1.1-2.2-1.5-.8-.4-1.8-.5-2.7-.5h-3.2c-1 0-1.9.2-2.7.5-.8.4-1.6.9-2.2 1.5-.6.6-1.1 1.4-1.5 2.2-.4.8-.5 1.8-.5 2.7v18.5c0 1 .2 1.9.5 2.7.4.8.9 1.6 1.5 2.2.6.6 1.4 1.1 2.2 1.5.8.4 1.8.5 2.7.5h3.2c1 0 1.9-.2 2.7-.5.8-.4 1.6-.9 2.2-1.5.6-.6 1.1-1.4 1.5-2.2.3-.8.5-1.7.5-2.7zm30.8-24.5h-4.8c-1 0-1.9.2-2.7.5-.8.4-1.6.9-2.2 1.5-.6.6-1.1 1.4-1.5 2.2-.4.8-.5 1.8-.5 2.7v28.3h-4.8v-39.8h1.6l2.6 4.1c1.1-1.5 2.5-2.7 4.1-3.5 1.7-.9 3.5-1.3 5.4-1.3h2.8v5.3zm25.2 35.2h-4.4c-1.5 0-2.8-.3-4.1-.8-1.3-.5-2.4-1.3-3.4-2.3-1-1-1.7-2.1-2.3-3.4-.6-1.3-.8-2.6-.8-4.1v-24.7H346v-4.6h7.2v-9.5l4.8-.8v10.3h10.1v4.6H358v25c0 .8.1 1.6.5 2.2.3.7.7 1.3 1.2 1.8s1.1.9 1.8 1.2c.7.3 1.5.4 2.3.4h4.4v4.7zm35.4 0H402l-2.7-4.1c-1.1 1.5-2.5 2.7-4.1 3.5-1.6.9-3.4 1.3-5.4 1.3h-1.2c-1.6 0-3.1-.3-4.6-.9-1.4-.6-2.7-1.5-3.8-2.5-1.1-1.1-1.9-2.3-2.5-3.8-.6-1.4-.9-3-.9-4.6v-28.8h4.8v29.1c0 1 .2 1.9.5 2.7.4.8.9 1.6 1.5 2.2.6.6 1.4 1.1 2.2 1.5.8.4 1.8.5 2.7.5h3.2c1 0 1.9-.2 2.7-.5.8-.4 1.6-.9 2.2-1.5.6-.6 1.1-1.4 1.5-2.2.4-.8.5-1.8.5-2.7v-29h4.8v39.8h.2zm36.5 5c0 1.6-.3 3.1-.9 4.5-.6 1.4-1.5 2.5-2.5 3.5-1.1 1-2.3 1.7-3.8 2.2-1.4.5-3 .8-4.6.8h-2c-1.6 0-3.1-.3-4.6-.8-1.4-.5-2.7-1.3-3.8-2.2-1.1-1-1.9-2.1-2.5-3.5-.6-1.4-.9-2.8-.9-4.5v-.2c0-1.6.3-3 .9-4.3.6-1.3 1.4-2.4 2.3-3.4-1.2-.8-2.2-1.8-3-3.1-.7-1.3-1.1-2.7-1.1-4.3 0-1.4.3-2.7.9-3.9.6-1.2 1.4-2.2 2.5-2.9-1.3-1.1-2.2-2.4-3-3.9-.7-1.5-1.1-3.2-1.1-5v-3c0-1.6.3-3.1.9-4.6.6-1.4 1.5-2.7 2.5-3.8 1.1-1.1 2.3-1.9 3.8-2.5 1.4-.6 3-.9 4.6-.9h2c2 0 3.8.4 5.4 1.3 1.7.9 3 2.1 4.1 3.5l2.6-4.1h1.6v13.9c0 1.6-.3 3.1-.9 4.6-.6 1.4-1.5 2.7-2.5 3.8-1.1 1.1-2.3 1.9-3.8 2.5-1.4.6-3 .9-4.6.9h-7c-.5 0-1.1.1-1.6.3-.5.2-.9.5-1.3.9s-.7.8-.9 1.3c-.2.5-.3 1-.3 1.6 0 .5.1 1.1.3 1.6.2.5.5.9.9 1.3s.8.7 1.3.9c.5.2 1 .3 1.6.3h6.6c1.6 0 3.1.3 4.6.8 1.4.5 2.7 1.3 3.8 2.2 1.1 1 1.9 2.1 2.5 3.5.6 1.5.9 2.9 1 4.7zm-4.4-30.6v-3.6c0-1-.2-1.9-.5-2.7-.4-.8-.9-1.6-1.5-2.2-.6-.6-1.4-1.1-2.2-1.5-.8-.4-1.8-.5-2.7-.5h-4c-1 0-1.9.2-2.7.5-.8.4-1.6.9-2.2 1.5-.6.6-1.1 1.4-1.5 2.2-.4.8-.5 1.8-.5 2.7v3.6c0 1 .2 1.9.5 2.7.4.8.9 1.6 1.5 2.2.6.6 1.4 1.1 2.2 1.5.8.4 1.8.5 2.7.5h4c1 0 1.9-.2 2.7-.5.8-.4 1.6-.9 2.2-1.5.6-.6 1.1-1.4 1.5-2.2.3-.9.5-1.8.5-2.7zm-.2 30.8v-.6c0-1-.2-1.8-.5-2.6-.4-.8-.9-1.4-1.5-1.9s-1.4-.9-2.2-1.2-1.8-.4-2.7-.4h-2.5c-1 0-1.9.1-2.7.4-.8.3-1.6.7-2.2 1.2-.6.5-1.1 1.2-1.5 1.9-.4.8-.5 1.6-.5 2.6v.6c0 1 .2 1.8.5 2.6.4.8.9 1.4 1.5 1.9s1.4.9 2.2 1.2c.8.3 1.8.4 2.7.4h2.5c1 0 1.9-.1 2.7-.4s1.6-.7 2.2-1.2c.6-.5 1.1-1.2 1.5-1.9.3-.8.5-1.6.5-2.6zm40.3-16.2c0 1.6-.3 3.1-.9 4.6-.6 1.4-1.5 2.7-2.5 3.8-1.1 1.1-2.3 1.9-3.8 2.5-1.4.6-3 .9-4.6.9h-3c-1.6 0-3.1-.3-4.6-.9-1.4-.6-2.7-1.5-3.8-2.5-1.1-1.1-1.9-2.3-2.5-3.8-.6-1.4-.9-3-.9-4.6v-17.9c0-1.6.3-3.1.9-4.6.6-1.4 1.5-2.7 2.5-3.8 1.1-1.1 2.3-1.9 3.8-2.5 1.4-.6 3-.9 4.6-.9h3.2c1.6 0 3.1.3 4.6.9 1.4.6 2.7 1.5 3.8 2.5 1.1 1.1 1.9 2.3 2.5 3.8.6 1.4.9 3 .9 4.6l-.2 17.9zm-4.8.3v-18.5c0-1-.2-1.9-.5-2.7-.4-.8-.9-1.6-1.5-2.2-.6-.6-1.4-1.1-2.2-1.5-.8-.4-1.8-.5-2.7-.5H461c-1 0-1.9.2-2.7.5-.8.4-1.6.9-2.2 1.5-.6.6-1.1 1.4-1.5 2.2-.4.8-.5 1.8-.5 2.7v18.5c0 1 .2 1.9.5 2.7.4.8.9 1.6 1.5 2.2.6.6 1.4 1.1 2.2 1.5.8.4 1.8.5 2.7.5h3.2c1 0 1.9-.2 2.7-.5.8-.4 1.6-.9 2.2-1.5.6-.6 1.1-1.4 1.5-2.2.2-.8.4-1.7.4-2.7zm20.7 10.7h-4.8v-55.7h4.8v55.7z" clip-rule="evenodd"/></g><path fill="#A8A7A7" fill-rule="evenodd" stroke="#A8A7A7" stroke-miterlimit="9.944" stroke-width=".746" d="M361.6 275.9v.9c0 1-.2 1.9-.6 2.8-.4.9-.9 1.6-1.6 2.2-.7.6-1.4 1.1-2.3 1.5-.9.4-1.8.6-2.8.6h-2.1c-1 0-1.9-.2-2.8-.6-.9-.4-1.6-.9-2.3-1.5-.7-.6-1.2-1.4-1.6-2.2-.4-.9-.6-1.8-.6-2.8v-1.1l2.6-.4v1.6c0 .6.1 1.2.4 1.8.3.6.6 1 1.1 1.5.4.4 1 .8 1.5 1 .6.2 1.2.4 1.8.4h1.8c.6 0 1.3-.1 1.8-.4.6-.2 1.1-.6 1.5-1 .4-.4.8-.9 1.1-1.5.3-.6.4-1.2.4-1.8v-.9c0-1-.2-1.8-.6-2.5s-.9-1.2-1.5-1.7-1.4-.9-2.2-1.2c-.8-.3-1.6-.6-2.5-1-.9-.3-1.7-.7-2.5-1.1-.8-.4-1.5-.9-2.2-1.5-.6-.6-1.2-1.3-1.5-2.1-.4-.8-.6-1.9-.6-3.1v-.5c0-1 .2-1.9.6-2.8.4-.9.9-1.6 1.5-2.2.6-.6 1.4-1.1 2.3-1.5.9-.4 1.8-.6 2.8-.6h1.8c1 0 1.9.2 2.8.6.9.4 1.6.9 2.2 1.5.6.6 1.1 1.4 1.5 2.2.4.9.6 1.8.6 2.8v.7l-2.6.4v-1.2c0-.6-.1-1.2-.4-1.8-.2-.6-.6-1-1-1.5-.4-.4-.9-.7-1.5-1-.6-.2-1.2-.4-1.8-.4h-1.6c-.6 0-1.2.1-1.8.4-.6.2-1 .6-1.5 1-.4.4-.8.9-1 1.5-.2.6-.4 1.2-.4 1.8v.5c0 .9.2 1.7.6 2.3.4.6.9 1.2 1.5 1.6.6.4 1.4.8 2.2 1.2.8.3 1.6.7 2.5 1 .9.3 1.7.7 2.5 1.1.8.4 1.5.9 2.2 1.5.6.6 1.2 1.3 1.5 2.2.6 1 .8 2.1.8 3.3z" clip-rule="evenodd"/><path fill="#A8A7A7" fill-rule="evenodd" d="m290.5 243.8-10.6 40.4H278l-7.9-30.4-.1-1.5-.2 1.6-7.8 30.4h-1.9l-10.7-40.4h3.7l8 30.7.1 1.5.1-1.5 7.8-30.7h2l7.8 30.7.1 1.5.1-1.5 7.9-30.7 3.5-.1zm21 31.9c0 1.2-.2 2.3-.7 3.3-.4 1-1.1 1.9-1.8 2.7-.8.8-1.7 1.4-2.7 1.8s-2.1.7-3.3.7h-2.3c-1.2 0-2.3-.2-3.3-.7-1-.4-1.9-1.1-2.7-1.8-.8-.8-1.4-1.7-1.8-2.7-.4-1-.7-2.1-.7-3.3v-13c0-1.2.2-2.3.7-3.3.4-1 1.1-1.9 1.8-2.7.8-.8 1.7-1.4 2.7-1.8 1-.4 2.1-.7 3.3-.7h2.3c1.2 0 2.3.2 3.3.7 1 .4 1.9 1.1 2.7 1.8.8.8 1.4 1.7 1.8 2.7.4 1 .7 2.1.7 3.3v6.8h-15.8v6.5c0 .7.1 1.4.4 2 .3.6.6 1.1 1.1 1.6.5.5 1 .8 1.6 1.1.6.3 1.3.4 2 .4h2.3c.7 0 1.4-.1 2-.4.6-.3 1.1-.6 1.6-1.1.5-.5.8-1 1.1-1.6.3-.6.4-1.3.4-2v-2l3.5.6-.2 1.1zm-3.5-9v-4.3c0-.7-.1-1.4-.4-2-.3-.6-.6-1.1-1.1-1.6-.5-.5-1-.8-1.6-1.1s-1.3-.4-2-.4h-2.3c-.7 0-1.4.1-2 .4-.6.3-1.1.6-1.6 1.1-.5.5-.8 1-1.1 1.6-.3.6-.4 1.3-.4 2v4.3H308zm29.7 9c0 1.2-.2 2.3-.7 3.3-.4 1-1.1 1.9-1.8 2.7-.8.8-1.7 1.4-2.7 1.8s-2.1.7-3.3.7h-2.3c-1.2 0-2.3-.2-3.3-.7-1-.4-1.9-1.1-2.7-1.8-.8-.8-1.4-1.7-1.8-2.7-.4-1-.7-2.1-.7-3.3v-32.5h3.5v13.9c.8-.9 1.7-1.7 2.9-2.2 1.1-.5 2.3-.8 3.6-.8h.9c1.2 0 2.3.2 3.3.7 1 .4 1.9 1.1 2.7 1.8.8.8 1.4 1.7 1.8 2.7.4 1 .7 2.1.7 3.3v13.1h-.1zm-3.5.2v-13.4c0-.7-.1-1.4-.4-2-.3-.6-.6-1.1-1.1-1.6-.5-.5-1-.8-1.6-1.1-.6-.3-1.3-.4-2-.4h-2.3c-.7 0-1.4.1-2 .4-.6.3-1.1.6-1.6 1.1-.5.5-.8 1-1.1 1.6-.3.6-.4 1.3-.4 2v13.4c0 .7.1 1.4.4 2 .3.6.6 1.1 1.1 1.6.5.5 1 .8 1.6 1.1.6.3 1.3.4 2 .4h2.3c.7 0 1.4-.1 2-.4.6-.3 1.1-.6 1.6-1.1.5-.5.8-1 1.1-1.6.3-.8.4-1.3.4-2zm47.6 8.4h-3.2c-1.1 0-2.1-.2-3-.6-.9-.4-1.7-.9-2.4-1.6-.7-.7-1.2-1.5-1.6-2.4-.4-.9-.6-1.9-.6-3v-17.9h-5.2v-3.3h5.2v-7l3.5-.6v7.5h7.4v3.3h-7.4v18.1c0 .6.1 1.1.3 1.6.2.5.5.9.9 1.3s.8.7 1.3.9c.5.2 1.1.3 1.6.3h3.2v3.4zm26.7-.6h-1.2l-1.9-3c-.8 1.1-1.8 1.9-3.1 2.7-1.2.6-2.6.9-4 .9h-.9c-1.2 0-2.4-.2-3.4-.7-1-.4-1.9-1.1-2.8-1.8-.8-.8-1.4-1.8-1.9-2.8-.4-1-.7-2.2-.7-3.4V254h3.6v21.8c0 .7.1 1.4.4 2.1.3.6.6 1.1 1.1 1.6.5.5 1 .8 1.6 1.1.6.3 1.3.4 2.1.4h2.4c.7 0 1.4-.1 2.1-.4.6-.3 1.1-.6 1.6-1.1.5-.5.8-1 1.1-1.6.3-.6.4-1.3.4-2.1V254h3.6v29.7h-.1zm25.5-.2h-1.2l-1.9-2.9c-.8 1.1-1.8 1.9-3 2.6-1.2.6-2.5.9-3.9.9h-.9c-1.2 0-2.3-.2-3.3-.7-1-.4-1.9-1.1-2.7-1.8-.8-.8-1.4-1.7-1.8-2.7-.4-1-.7-2.1-.7-3.3v-13c0-1.2.2-2.3.7-3.3.4-1 1.1-1.9 1.8-2.7.8-.8 1.7-1.4 2.7-1.8 1-.4 2.1-.7 3.3-.7h.9c1.3 0 2.5.3 3.6.8s2.1 1.3 2.9 2.2v-13.9h3.5v40.3zm-3.5-7.6v-13.4c0-.7-.1-1.4-.4-2-.3-.6-.6-1.1-1.1-1.6-.5-.5-1-.8-1.6-1.1-.6-.3-1.3-.4-2-.4h-2.3c-.7 0-1.4.1-2 .4-.6.3-1.1.6-1.6 1.1-.5.5-.8 1-1.1 1.6-.3.6-.4 1.3-.4 2v13.4c0 .7.1 1.4.4 2 .3.6.6 1.1 1.1 1.6.5.5 1 .8 1.6 1.1.6.3 1.3.4 2 .4h2.3c.7 0 1.4-.1 2-.4.6-.3 1.1-.6 1.6-1.1.5-.5.8-1 1.1-1.6.3-.8.4-1.3.4-2zm14.9-28.1h-3c-.1 0-.2-.1-.2-.2v-4.1c0-.1.1-.2.2-.2h3.1c.1 0 .2.1.2.2v4.1c-.1.1-.2.2-.3.2zm.2 36.6H442v-29.7h3.6v29.7zm26.3-8.7c0 1.2-.2 2.3-.7 3.3-.4 1-1.1 1.9-1.8 2.7-.8.8-1.7 1.4-2.7 1.8-1 .4-2.1.7-3.3.7h-2.3c-1.2 0-2.3-.2-3.3-.7-1-.4-1.9-1.1-2.7-1.8-.8-.8-1.4-1.7-1.8-2.7-.4-1-.7-2.1-.7-3.3v-13c0-1.2.2-2.3.7-3.3.4-1 1.1-1.9 1.8-2.7.8-.8 1.7-1.4 2.7-1.8 1-.4 2.1-.7 3.3-.7h2.3c1.2 0 2.3.2 3.3.7 1 .4 1.9 1.1 2.7 1.8.8.8 1.4 1.7 1.8 2.7s.7 2.1.7 3.3v13zm-3.5.2v-13.4c0-.7-.1-1.4-.4-2-.3-.6-.6-1.1-1.1-1.6-.5-.5-1-.8-1.6-1.1-.6-.3-1.3-.4-2-.4H461c-.7 0-1.4.1-2 .4-.6.3-1.1.6-1.6 1.1-.5.5-.8 1-1.1 1.6-.3.6-.4 1.3-.4 2v13.4c0 .7.1 1.4.4 2 .3.6.6 1.1 1.1 1.6.5.5 1 .8 1.6 1.1.6.3 1.3.4 2 .4h2.3c.7 0 1.4-.1 2-.4.6-.3 1.1-.6 1.6-1.1.5-.5.8-1 1.1-1.6.3-.8.4-1.3.4-2z" clip-rule="evenodd"/></svg>
