<svg xmlns="http://www.w3.org/2000/svg" xmlns:xlink="http://www.w3.org/1999/xlink" xml:space="preserve" viewBox="0 0 414.4 212"><path fill="#FFC200" d="M42.9 166.7h47.8c5.1 0 9.1 4.1 9.1 9.1v1.7c0 5.1-4.1 9.1-9.1 9.1H42.9c-5.1 0-9.1-4.1-9.1-9.1v-1.7c-.1-5.1 4-9.1 9.1-9.1z"/><defs><path id="a" d="M49.3 191.9H84V212H49.3z"/></defs><clipPath id="b"><use xlink:href="#a" overflow="visible"/></clipPath><g clip-path="url(#b)"><path fill="#FFC200" d="M57.1 192.9h19.3c4 0 7.2 3.2 7.2 7.2v4.8c0 4-3.2 7.2-7.2 7.2H57.1c-4 0-7.2-3.2-7.2-7.2v-4.8c.1-4 3.3-7.2 7.2-7.2z"/></g><defs><path id="c" d="M0 0h133.3v159.9H0z"/></defs><clipPath id="d"><use xlink:href="#c" overflow="visible"/></clipPath><g clip-path="url(#d)"><path fill="#FFC200" fill-rule="evenodd" d="M29.1 144c-.5 8.4 6.4 16.4 9.9 15.4h53.4c6.1-.4 9.6-5 10.8-13.6-1.2-22.8 27.5-43.5 28.9-78.7C133.7 31.8 104.9 1 67 0S.1 29.3 0 65.2c.1 35.9 22.7 43.6 29.1 78.8zm18.2-12.7c1.8 7.3 1.4 8.9 9.9 9h19c3.7.4 8.1-2.7 9.1-8.2 2.2-17.6 26.2-40.1 27.1-65.2 1-25.2-18.5-47.3-45.5-47.9-26.9-.6-45.1 21.5-46.8 47.1-1.7 25.7 21 40 27.2 65.2z" clip-rule="evenodd"/></g><defs><path id="e" d="M172 46.6h242.4v72H172z"/></defs><clipPath id="f"><use xlink:href="#e" overflow="visible"/></clipPath><g clip-path="url(#f)"><path fill="#ECECEC" fill-rule="evenodd" d="M204.6 67.3c0 1.9-.4 3.7-1.1 5.4-.7 1.7-1.7 3.1-2.9 4.4-1.2 1.2-2.7 2.2-4.4 2.9-1.7.7-3.5 1.1-5.4 1.1h-12.6v21.4h-5V46.8h17.6c1.9 0 3.7.4 5.4 1.1 1.7.7 3.1 1.7 4.4 2.9 1.2 1.2 2.2 2.7 2.9 4.4.7 1.7 1.1 3.5 1.1 5.4v6.7zm-5.1 0v-7c0-1.2-.2-2.4-.7-3.5-.5-1.1-1.1-2-1.9-2.9-.8-.8-1.8-1.5-2.9-1.9-1.1-.5-2.2-.7-3.5-.7h-12.3v24.8h12.4c1.2 0 2.4-.2 3.5-.7 1.1-.5 2-1.1 2.9-1.9.8-.8 1.5-1.8 1.9-2.8.4-.9.6-2.1.6-3.4zm39.6 24.2c0 1.6-.3 3.1-.9 4.6-.6 1.4-1.5 2.7-2.5 3.8-1.1 1.1-2.3 1.9-3.8 2.5-1.4.6-3 .9-4.6.9h-3.2c-1.6 0-3.1-.3-4.6-.9-1.4-.6-2.7-1.5-3.8-2.5-1.1-1.1-1.9-2.3-2.5-3.8-.6-1.4-.9-3-.9-4.6V73.6c0-1.6.3-3.1.9-4.6.6-1.4 1.5-2.7 2.5-3.8 1.1-1.1 2.3-1.9 3.8-2.5 1.4-.6 3-.9 4.6-.9h3.2c1.6 0 3.1.3 4.6.9 1.4.6 2.7 1.5 3.8 2.5 1.1 1.1 1.9 2.3 2.5 3.8.6 1.4.9 3 .9 4.6v17.9zm-4.8.3V73.3c0-1-.2-1.9-.5-2.7-.4-.8-.9-1.6-1.5-2.2-.6-.6-1.4-1.1-2.2-1.5-.8-.4-1.8-.5-2.7-.5h-3.2c-1 0-1.9.2-2.7.5-.8.4-1.6.9-2.2 1.5-.6.6-1.1 1.4-1.5 2.2-.4.8-.5 1.8-.5 2.7v18.5c0 1 .2 1.9.5 2.7.4.8.9 1.6 1.5 2.2.6.6 1.4 1.1 2.2 1.5s1.8.5 2.7.5h3.2c1 0 1.9-.2 2.7-.5.8-.4 1.6-.9 2.2-1.5.6-.6 1.1-1.4 1.5-2.2.3-.8.5-1.7.5-2.7zm30.8-24.6h-4.8c-1 0-1.9.2-2.7.5-.8.4-1.6.9-2.2 1.5-.6.6-1.1 1.4-1.5 2.2-.4.8-.5 1.8-.5 2.7v28.3h-4.8V62.7h1.6l2.6 4.1c1.1-1.5 2.5-2.7 4.1-3.5 1.7-.9 3.5-1.3 5.4-1.3h2.8v5.2zm25.2 35.2h-4.4c-1.5 0-2.8-.3-4.1-.8-1.3-.5-2.4-1.3-3.4-2.3-1-1-1.7-2.1-2.3-3.4-.6-1.3-.8-2.6-.8-4.1V67.2h-7.2v-4.6h7.2v-9.5l4.8-.8v10.3h10.1v4.6h-10.1v25c0 .8.1 1.6.5 2.2.3.7.7 1.3 1.2 1.8s1.1.9 1.8 1.2c.7.3 1.5.4 2.3.4h4.4v4.6zm35.4 0h-1.6l-2.7-4.1c-1.1 1.5-2.5 2.7-4.1 3.5-1.6.9-3.4 1.3-5.4 1.3h-1.2c-1.6 0-3.1-.3-4.6-.9-1.4-.6-2.7-1.5-3.8-2.5-1.1-1.1-1.9-2.3-2.5-3.8-.6-1.4-.9-3-.9-4.6V62.6h4.8v29.1c0 1 .2 1.9.5 2.7.4.8.9 1.6 1.5 2.2.6.6 1.4 1.1 2.2 1.5.8.4 1.8.5 2.7.5h3.2c1 0 1.9-.2 2.7-.5.8-.4 1.6-.9 2.2-1.5.6-.6 1.1-1.4 1.5-2.2.4-.8.5-1.8.5-2.7v-29h4.8v39.8h.2zm36.5 5.1c0 1.6-.3 3.1-.9 4.5-.6 1.4-1.5 2.5-2.5 3.5-1.1 1-2.3 1.7-3.8 2.2-1.4.5-3 .8-4.6.8h-2c-1.6 0-3.1-.3-4.6-.8-1.4-.5-2.7-1.3-3.8-2.2-1.1-1-1.9-2.1-2.5-3.5-.6-1.4-.9-2.8-.9-4.5v-.2c0-1.6.3-3 .9-4.3.6-1.3 1.4-2.4 2.3-3.4-1.2-.8-2.2-1.8-3-3.1-.7-1.3-1.1-2.7-1.1-4.3 0-1.4.3-2.7.9-3.9.6-1.2 1.4-2.2 2.5-2.9-1.3-1.1-2.2-2.4-3-3.9-.7-1.5-1.1-3.2-1.1-5v-3c0-1.6.3-3.1.9-4.6.6-1.4 1.5-2.7 2.5-3.8 1.1-1.1 2.3-1.9 3.8-2.5 1.4-.6 3-.9 4.6-.9h2c2 0 3.8.4 5.4 1.3 1.7.9 3 2.1 4.1 3.5l2.6-4.1h1.6v13.9c0 1.6-.3 3.1-.9 4.6-.6 1.4-1.5 2.7-2.5 3.8-1.1 1.1-2.3 1.9-3.8 2.5-1.4.6-3 .9-4.6.9h-7c-.5 0-1.1.1-1.6.3-.5.2-.9.5-1.3.9s-.7.8-.9 1.3c-.2.5-.3 1-.3 1.6 0 .5.1 1.1.3 1.6.2.5.5.9.9 1.3s.8.7 1.3.9c.5.2 1 .3 1.6.3h6.6c1.6 0 3.1.3 4.6.8 1.4.5 2.7 1.3 3.8 2.2 1.1 1 1.9 2.1 2.5 3.5.6 1.5.9 2.9 1 4.7zm-4.4-30.6v-3.6c0-1-.2-1.9-.5-2.7-.4-.8-.9-1.6-1.5-2.2-.6-.6-1.4-1.1-2.2-1.5-.8-.4-1.8-.5-2.7-.5h-4c-1 0-1.9.2-2.7.5-.8.4-1.6.9-2.2 1.5-.6.6-1.1 1.4-1.5 2.2-.4.8-.5 1.8-.5 2.7v3.6c0 1 .2 1.9.5 2.7.4.8.9 1.6 1.5 2.2.6.6 1.4 1.1 2.2 1.5.8.4 1.8.5 2.7.5h4c1 0 1.9-.2 2.7-.5.8-.4 1.6-.9 2.2-1.5.6-.6 1.1-1.4 1.5-2.2.3-.9.5-1.8.5-2.7zm-.2 30.8v-.6c0-1-.2-1.8-.5-2.6-.4-.8-.9-1.4-1.5-1.9s-1.4-.9-2.2-1.2-1.8-.4-2.7-.4h-2.5c-1 0-1.9.1-2.7.4-.8.3-1.6.7-2.2 1.2-.6.5-1.1 1.2-1.5 1.9-.4.8-.5 1.6-.5 2.6v.6c0 1 .2 1.8.5 2.6.4.8.9 1.4 1.5 1.9s1.4.9 2.2 1.2c.8.3 1.8.4 2.7.4h2.5c1 0 1.9-.1 2.7-.4.8-.3 1.6-.7 2.2-1.2.6-.5 1.1-1.2 1.5-1.9.3-.8.5-1.6.5-2.6zm40.3-16.2c0 1.6-.3 3.1-.9 4.6-.6 1.4-1.5 2.7-2.5 3.8-1.1 1.1-2.3 1.9-3.8 2.5-1.4.6-3 .9-4.6.9H383c-1.6 0-3.1-.3-4.6-.9-1.4-.6-2.7-1.5-3.8-2.5-1.1-1.1-1.9-2.3-2.5-3.8-.6-1.4-.9-3-.9-4.6V73.6c0-1.6.3-3.1.9-4.6.6-1.4 1.5-2.7 2.5-3.8 1.1-1.1 2.3-1.9 3.8-2.5 1.4-.6 3-.9 4.6-.9h3.2c1.6 0 3.1.3 4.6.9 1.4.6 2.7 1.5 3.8 2.5 1.1 1.1 1.9 2.3 2.5 3.8.6 1.4.9 3 .9 4.6l-.1 17.9zm-4.8.3V73.3c0-1-.2-1.9-.5-2.7-.4-.8-.9-1.6-1.5-2.2-.6-.6-1.4-1.1-2.2-1.5-.8-.4-1.8-.5-2.7-.5H383c-1 0-1.9.2-2.7.5-.8.4-1.6.9-2.2 1.5-.6.6-1.1 1.4-1.5 2.2-.4.8-.5 1.8-.5 2.7v18.5c0 1 .2 1.9.5 2.7.4.8.9 1.6 1.5 2.2.6.6 1.4 1.1 2.2 1.5s1.8.5 2.7.5h3.2c1 0 1.9-.2 2.7-.5.8-.4 1.6-.9 2.2-1.5.6-.6 1.1-1.4 1.5-2.2.3-.8.5-1.7.5-2.7zm20.7 10.6H409V46.8h4.8v55.6z" clip-rule="evenodd"/></g><path fill="#A8A7A7" fill-rule="evenodd" stroke="#A8A7A7" stroke-miterlimit="9.944" stroke-width=".746" d="M283.7 154.7v.9c0 1-.2 1.9-.6 2.8-.4.9-.9 1.6-1.6 2.2-.7.6-1.4 1.1-2.3 1.5-.9.4-1.8.6-2.8.6h-2.1c-1 0-1.9-.2-2.8-.6-.9-.4-1.6-.9-2.3-1.5-.7-.6-1.2-1.4-1.6-2.2-.4-.9-.6-1.8-.6-2.8v-1.1l2.6-.4v1.6c0 .6.1 1.2.4 1.8.3.6.6 1 1.1 1.5.4.4 1 .8 1.5 1 .6.2 1.2.4 1.8.4h1.8c.6 0 1.3-.1 1.8-.4.6-.2 1.1-.6 1.5-1 .4-.4.8-.9 1.1-1.5.3-.6.4-1.2.4-1.8v-.9c0-1-.2-1.8-.6-2.5-.4-.7-.9-1.2-1.5-1.7s-1.4-.9-2.2-1.2c-.8-.3-1.6-.6-2.5-1-.9-.3-1.7-.7-2.5-1.1-.8-.4-1.5-.9-2.2-1.5-.6-.6-1.2-1.3-1.5-2.1-.4-.8-.6-1.9-.6-3.1v-.5c0-1 .2-1.9.6-2.8.4-.9.9-1.6 1.5-2.2.6-.6 1.4-1.1 2.3-1.5s1.8-.6 2.8-.6h1.8c1 0 1.9.2 2.8.6.9.4 1.6.9 2.2 1.5.6.6 1.1 1.4 1.5 2.2.4.9.6 1.8.6 2.8v.7l-2.6.4V140c0-.6-.1-1.2-.4-1.8-.2-.6-.6-1-1-1.5-.4-.4-.9-.7-1.5-1-.6-.2-1.2-.4-1.8-.4h-1.6c-.6 0-1.2.1-1.8.4-.6.2-1 .6-1.5 1-.4.4-.8.9-1 1.5-.2.6-.4 1.2-.4 1.8v.5c0 .9.2 1.7.6 2.3.4.6.9 1.2 1.5 1.6.6.4 1.4.8 2.2 1.2.8.3 1.6.7 2.5 1 .9.3 1.7.7 2.5 1.1.8.4 1.5.9 2.2 1.5.6.6 1.2 1.3 1.5 2.2.6 1 .8 2.1.8 3.3z" clip-rule="evenodd"/><path fill="#A8A7A7" fill-rule="evenodd" d="M212.6 122.6 202 163h-1.9l-7.9-30.4-.1-1.5-.2 1.6-7.8 30.4h-1.9l-10.7-40.4h3.7l8 30.7.1 1.5.1-1.5 7.8-30.7h2l7.8 30.7.1 1.5.1-1.5 7.9-30.7 3.5-.1zm21 31.9c0 1.2-.2 2.3-.7 3.3-.4 1-1.1 1.9-1.8 2.7-.8.8-1.7 1.4-2.7 1.8s-2.1.7-3.3.7h-2.3c-1.2 0-2.3-.2-3.3-.7-1-.4-1.9-1.1-2.7-1.8-.8-.8-1.4-1.7-1.8-2.7-.4-1-.7-2.1-.7-3.3v-13c0-1.2.2-2.3.7-3.3.4-1 1.1-1.9 1.8-2.7.8-.8 1.7-1.4 2.7-1.8 1-.4 2.1-.7 3.3-.7h2.3c1.2 0 2.3.2 3.3.7 1 .4 1.9 1.1 2.7 1.8.8.8 1.4 1.7 1.8 2.7.4 1 .7 2.1.7 3.3v6.8h-15.8v6.5c0 .7.1 1.4.4 2 .3.6.6 1.1 1.1 1.6.5.5 1 .8 1.6 1.1.6.3 1.3.4 2 .4h2.3c.7 0 1.4-.1 2-.4.6-.3 1.1-.6 1.6-1.1.5-.5.8-1 1.1-1.6.3-.6.4-1.3.4-2v-1.9l3.5.6-.2 1zm-3.5-8.9v-4.3c0-.7-.1-1.4-.4-2-.3-.6-.6-1.1-1.1-1.6-.5-.5-1-.8-1.6-1.1s-1.3-.4-2-.4h-2.3c-.7 0-1.4.1-2 .4-.6.3-1.1.6-1.6 1.1-.5.5-.8 1-1.1 1.6-.3.6-.4 1.3-.4 2v4.3h12.5zm29.6 8.9c0 1.2-.2 2.3-.7 3.3-.4 1-1.1 1.9-1.8 2.7-.8.8-1.7 1.4-2.7 1.8s-2.1.7-3.3.7H249c-1.2 0-2.3-.2-3.3-.7-1-.4-1.9-1.1-2.7-1.8-.8-.8-1.4-1.7-1.8-2.7-.4-1-.7-2.1-.7-3.3V122h3.5v13.9c.8-.9 1.7-1.7 2.9-2.2 1.1-.5 2.3-.8 3.6-.8h.9c1.2 0 2.3.2 3.3.7 1 .4 1.9 1.1 2.7 1.8.8.8 1.4 1.7 1.8 2.7.4 1 .7 2.1.7 3.3v13.1h-.2zm-3.4.2v-13.4c0-.7-.1-1.4-.4-2-.3-.6-.6-1.1-1.1-1.6-.5-.5-1-.8-1.6-1.1-.6-.3-1.3-.4-2-.4h-2.3c-.7 0-1.4.1-2 .4-.6.3-1.1.6-1.6 1.1-.5.5-.8 1-1.1 1.6-.3.6-.4 1.3-.4 2v13.4c0 .7.1 1.4.4 2 .3.6.6 1.1 1.1 1.6.5.5 1 .8 1.6 1.1.6.3 1.3.4 2 .4h2.3c.7 0 1.4-.1 2-.4.6-.3 1.1-.6 1.6-1.1.5-.5.8-1 1.1-1.6.3-.7.4-1.3.4-2zm47.6 8.5h-3.2c-1.1 0-2.1-.2-3-.6-.9-.4-1.7-.9-2.4-1.6-.7-.7-1.2-1.5-1.6-2.4-.4-.9-.6-1.9-.6-3v-17.9H288v-3.3h5.2v-7l3.5-.6v7.5h7.4v3.3h-7.4v18.1c0 .6.1 1.1.3 1.6.2.5.5.9.9 1.3s.8.7 1.3.9c.5.2 1.1.3 1.6.3h3.2v3.4zm26.7-.7h-1.2l-1.9-3c-.8 1.1-1.8 1.9-3.1 2.7-1.2.6-2.6.9-4 .9h-.9c-1.2 0-2.4-.2-3.4-.7-1-.4-1.9-1.1-2.8-1.8-.8-.8-1.4-1.8-1.9-2.8-.4-1-.7-2.2-.7-3.4v-21.6h3.6v21.8c0 .7.1 1.4.4 2.1.3.6.6 1.1 1.1 1.6.5.5 1 .8 1.6 1.1.6.3 1.3.4 2.1.4h2.4c.7 0 1.4-.1 2.1-.4.6-.3 1.1-.6 1.6-1.1.5-.5.8-1 1.1-1.6.3-.6.4-1.3.4-2.1v-21.8h3.6v29.7h-.1zm25.5-.1h-1.2l-1.9-2.9c-.8 1.1-1.8 1.9-3 2.6-1.2.6-2.5.9-3.9.9h-.9c-1.2 0-2.3-.2-3.3-.7-1-.4-1.9-1.1-2.7-1.8-.8-.8-1.4-1.7-1.8-2.7-.4-1-.7-2.1-.7-3.3v-13c0-1.2.2-2.3.7-3.3.4-1 1.1-1.9 1.8-2.7.8-.8 1.7-1.4 2.7-1.8 1-.4 2.1-.7 3.3-.7h.9c1.3 0 2.5.3 3.6.8s2.1 1.3 2.9 2.2v-13.9h3.5v40.3zm-3.5-7.7v-13.4c0-.7-.1-1.4-.4-2-.3-.6-.6-1.1-1.1-1.6-.5-.5-1-.8-1.6-1.1-.6-.3-1.3-.4-2-.4h-2.3c-.7 0-1.4.1-2 .4-.6.3-1.1.6-1.6 1.1-.5.5-.8 1-1.1 1.6-.3.6-.4 1.3-.4 2v13.4c0 .7.1 1.4.4 2 .3.6.6 1.1 1.1 1.6.5.5 1 .8 1.6 1.1.6.3 1.3.4 2 .4h2.3c.7 0 1.4-.1 2-.4.6-.3 1.1-.6 1.6-1.1.5-.5.8-1 1.1-1.6.3-.7.4-1.3.4-2zm14.8-28h-3c-.1 0-.2-.1-.2-.2v-4.1c0-.1.1-.2.2-.2h3.1c.1 0 .2.1.2.2v4.1c0 .1-.1.2-.3.2zm.3 36.6h-3.6v-29.7h3.6v29.7zm26.3-8.8c0 1.2-.2 2.3-.7 3.3-.4 1-1.1 1.9-1.8 2.7-.8.8-1.7 1.4-2.7 1.8s-2.1.7-3.3.7h-2.3c-1.2 0-2.3-.2-3.3-.7-1-.4-1.9-1.1-2.7-1.8-.8-.8-1.4-1.7-1.8-2.7-.4-1-.7-2.1-.7-3.3v-13c0-1.2.2-2.3.7-3.3.4-1 1.1-1.9 1.8-2.7.8-.8 1.7-1.4 2.7-1.8 1-.4 2.1-.7 3.3-.7h2.3c1.2 0 2.3.2 3.3.7 1 .4 1.9 1.1 2.7 1.8.8.8 1.4 1.7 1.8 2.7.4 1 .7 2.1.7 3.3v13zm-3.5.2v-13.4c0-.7-.1-1.4-.4-2-.3-.6-.6-1.1-1.1-1.6-.5-.5-1-.8-1.6-1.1-.6-.3-1.3-.4-2-.4h-2.3c-.7 0-1.4.1-2 .4-.6.3-1.1.6-1.6 1.1-.5.5-.8 1-1.1 1.6-.3.6-.4 1.3-.4 2v13.4c0 .7.1 1.4.4 2 .3.6.6 1.1 1.1 1.6.5.5 1 .8 1.6 1.1.6.3 1.3.4 2 .4h2.3c.7 0 1.4-.1 2-.4.6-.3 1.1-.6 1.6-1.1.5-.5.8-1 1.1-1.6.3-.7.4-1.3.4-2z" clip-rule="evenodd"/></svg>
