<svg xmlns="http://www.w3.org/2000/svg" xmlns:xlink="http://www.w3.org/1999/xlink" xml:space="preserve" viewBox="0 0 483 212"><defs><path id="a" d="M25.1 20h89v74h-89z"/></defs><clipPath id="b"><use xlink:href="#a" overflow="visible"/></clipPath><g clip-path="url(#b)"><path fill="#FFF" d="M31.4 53.8zm53.4-22zm29-10.6c-.1.1 0 .3 0 .5s0 .4-.1.6V22.6c-.2.1 0 .3 0 .4 0 .2 0 .5-.1.7v.6c0 .1 0 .1-.1.1s0 0 0 .1c.1.2 0 .3-.1.5 0 .1-.1.1-.1.2s.1.2-.1.1c-.1 0-.1.1-.1.1 0 .1 0 .1.1.1s0 .1 0 .1c0 .2-.1.4-.1.6-.3.2-.1.6-.2.8-.1.4-.3.8-.3 1.3 0 .4-.1.7-.2 1.1 0 .1 0 .1-.1.1s-.1 0-.1.1c.1.2 0 .5-.1.7-.1.1 0 .2 0 .3 0 .2-.1.4-.1.6-.1.3-.1.5-.2.8-.2.3-.3.6-.3.9 0 .3-.1.6-.2.9-.1.1-.1.2-.1.4-.1.3-.2.6-.3.8-.1.3-.2.6-.2.9-.1.4-.2.8-.3 1.3 0 .1-.1.1-.1.2-.1.2-.2.3-.2.6 0 .2-.1.3-.1.5-.2.5-.4 1-.5 1.5-.1.1-.1.3-.2.4-.1.1-.1.3-.1.4-.1.2-.1.5-.2.7-.2.2-.1.4-.2.5-.1.2-.1.4-.3.6v.1c.2.2-.2.4-.1.6 0 .2-.1.4-.2.6-.1.3-.2.6-.3.8-.2.3-.3.7-.4 1.1-.1.2-.2.4-.4.5-.1 0-.1.1-.1.2 0 .2-.1.3-.1.5-.1.1-.1.2-.2.4l-.3.9c-.1.3-.3.5-.5.8-.2.3-.4.6-.5.8-.4.5-.6 1.1-.9 1.7-.1.1-.2.3-.2.4 0 0 0 .1-.1.1-.2 0-.2.3-.3.4 0 .1 0 .2-.1.2-.2.1-.3.3-.4.5-.2.3-.5.6-.6.9-.1.2-.2.3-.3.5-.1.1-.2.1-.3.1.1.2-.1.6-.3.7h-.1c-.1.4-.4.7-.6 1.1-.2.3-.3.7-.7.9-.2.1-.1.3-.2.4-.3.4-.5.9-.9 1.3-.2.2-.3.5-.5.8-.1.1-.1.2-.2.3s-.1.2-.2.3c-.1.1-.2.2-.2.3-.2.2-.3.5-.5.7-.1.1-.2.2-.2.3-.1 0-.1.2-.2.1 0 0 0 .1-.1.2-.2.2-.4.6-.7.8-.2.2-.4.5-.6.6-.2.2-.4.4-.5.7 0 .1-.2.2-.2.2-.1.1-.3.2-.4.4-.2.3-.4.5-.7.7-.2.1-.2.3-.3.5-.5.4-.9.9-1.3 1.3-.3.3-.5.6-.8.8-.3.2-.5.5-.8.7-.4.2-.6.6-.9.9 0 0-.1.1 0 .2s0 .1-.1.2c-.1-.2-.2-.2-.3 0-.1.1-.2 0-.2.1-.1.1-.2.3-.4.4-.3.3-.6.5-.9.8l-.9.6c-.5.5-1.1.9-1.7 1.3-.1.1-.3.3-.5.2H85c-.2.2-.4.3-.7.4-.3.1-.5.3-.8.5-.3.1-.7.3-1 .5-.2.1-.5.2-.8.2-.4.1-.7.2-1.1.3-.2 0-.3.1-.5.2-.3.1-.5 0-.8 0-.2 0-.2 0-.2-.1-.1.3-.3.2-.5.2s0-.2-.1-.2c-.2.3-.5.2-.7.2-.2 0-.5-.1-.7 0-.1 0-.2 0-.2-.1s0-.1-.1-.1 0 .1-.1.1c0 0 0 .1-.1.1-.1-.1-.3.1-.3 0-.2-.1-.4-.1-.6 0-.1 0-.3 0-.3-.2-.1.1-.1.1-.2.1-.2 0-.4-.2-.7-.1-.1 0-.3 0-.5-.1-.1-.1-.2 0-.3 0-.1-.1-.3 0-.5-.1-.1 0-.2-.1-.3-.1-.5-.1-1-.2-1.5-.5-.1-.1-.3-.1-.4-.1-.1 0-.2 0-.2-.2 0-.1-.1-.1-.1 0-.1.1-.2 0-.2 0-.1-.1-.3-.1-.5-.2h-.1c-.2.2-.3.4-.5.7-.2.4-.5.8-.8 1.2l-.4.4c-.2.2-.2.4-.5.5-.1 0-.1.2-.2.3-.2.2-.3.4-.5.6-.2.2-.4.4-.5.6-.3.4-.6.7-.9 1-.4.5-1 .8-1.4 1.3-.2.2-.5.5-.8.6-.2.1-.4.2-.5.4-.2-.2-.1.1-.2.1-.2.1-.3.2-.5.3-.1 0-.1 0-.1.1-.1.2-.2.2-.3 0 0 0 0-.1-.1-.1v.1c.2.3-.1.4-.3.5-.2.1-.3.2-.5.3-.9-.2-1.2-.1-1.5-.1-.2 0-.4.1-.5.2-.1.1-.3.1-.5.2-.1 0-.1-.1-.1-.2-.1 0-.1.2-.2.2s0-.1-.1-.2c-.1.3-.4.3-.7.3-.1 0-.2 0-.3.1-.1.1-.2 0-.2 0-.1 0-.2-.1-.3 0-.1-.2-.2-.1-.3-.1h-.8c-.1-.1-.2-.1-.4-.1-.1 0-.3 0-.4-.1-.2-.1-.5-.1-.7-.1-.2 0-.4-.1-.6-.1-.1 0 0-.2-.2-.1-.3 0-.6-.1-.9-.2-.1 0-.1 0-.1-.1s0-.1-.1-.1c-.2.2-.3 0-.5 0-.1 0-.3-.1-.3-.3 0 0-.1-.1-.2-.1s0 .1-.1.1c0 .1-.1.1-.2.1-.3-.2-.6-.3-1-.4-.1 0-.2 0-.2-.1 0-.2-.2-.2-.3-.2 0 0-.1 0-.1-.1v-.1c-.3.2-.4-.2-.6-.2-.2 0-.3-.1-.5-.3-.1-.1-.3-.1-.3-.3 0-.1 0-.2-.1-.3-.1 0 0 .2-.1.2s-.2-.1-.3-.1c-.1-.1-.2-.2-.3-.2-.1 0-.1-.1 0-.2v-.3c0 .1 0 .2-.1.3-.1 0-.2-.1-.2-.1-.1-.1-.3-.2-.4-.2-.2-.1-.4-.3-.5-.5 0-.1-.1-.1-.1-.1-.3-.2-.5-.4-.7-.7 0-.1 0-.2-.2-.1h-.1c0-.2-.2-.2-.2-.2-.1-.2-.4-.3-.5-.6 0-.1-.2-.1-.2-.2-.2-.3-.6-.5-.7-.9-.1-.2-.4-.4-.6-.5-.2-.2-.6-.4-.7-.8 0 0 0-.1-.1-.1-.2-.1-.2-.3-.3-.5-.1-.1-.2-.3-.3-.4-.1-.2-.2-.3-.4-.4-.2-.3-.4-.6-.7-.9-.1-.1 0-.2-.1-.3-.1.2-.2.1-.2 0-.1-.1-.2-.2-.2-.4 0-.1-.1-.2-.2-.2-.3-.3-.4-.6-.5-1 0-.1-.1-.1-.2-.2l-.9-1.8c-.2-.5-.5-1-.7-1.5-.1-.3-.3-.6-.4-.9-.1-.1.1-.3-.2-.3 0 0-.1-.2-.2-.3-.1-.5-.4-.9-.5-1.4-.1-.5-.5-.9-.6-1.4-.1-.5-.4-.9-.5-1.3-.1-.2-.1-.5-.3-.6-.1-.1-.2-.1-.2-.2.1 0 .2 0 .2-.1s-.1-.2-.2-.1h-.1v-.1c.1 0 .1-.1.1-.2s0-.2-.1-.1-.1 0-.2-.1c0-.1-.2-.3 0-.4.1 0 .1.2.2.3-.1-.3-.2-.7-.3-1 0-.1.1-.3-.1-.4-.1-.1-.2-.3-.3-.5-.1 0-.1.1-.1.1 0 .1 0 .2-.1.1-.1 0 0-.1 0-.2 0-.2 0-.3.1-.4-.1-.1-.1 0-.1.1-.1-.1-.1-.2 0-.4-.2.1-.2 0-.2-.1s.1-.2.1-.3c-.1 0-.1.2-.2 0-.2-.7-.3-1.3-.7-1.9 0-.1 0-.2-.1-.3 0 0 0-.1.1-.1s.1-.1.1-.1c.1.1.1.3.2.4l-.3-1.2c0-.1 0-.3-.1-.4-.1-.2-.2-.4-.2-.6V53c-.2-.2-.2-.6-.2-.9 0-.1-.2-.5-.3-.6h-.1v.1c.2.1.1.3.2.5s.1.4.1.6v.3c0 .1 0 .2.1.3.1.2-.1.4-.1.6-.2-.2-.2-.4-.2-.7v-.3c-.1-.1-.1-.2 0-.3 0 0 .1-.1 0-.2-.1 0-.1-.2-.1-.3-.1-.1-.1-.2.1-.2v-.1c-.2-.1 0-.3-.2-.3.1-.3-.2-.5-.1-.9.1-.1 0-.3 0-.5-.2-.3 0-.6-.1-1-.1-.2-.1-.4-.1-.7v-.1c-.1 0-.1-.1-.1-.2 0-.3-.2-.6-.1-.9v-.1c-.3-.4-.2-1-.4-1.5-.1-.3-.1-.7-.2-1-.1-.3-.1-.6-.1-.9 0-.3-.1-.6-.2-.8-.1-.3-.1-.7-.1-1-.1-.3-.1-.7-.2-1-.1-.4-.2-.8-.3-1.3-.1-.5-.1-1-.2-1.6 0-.2-.1-.3-.1-.5 0-.3-.1-.7-.1-1v-.1h-.1c-.1 0-.3.1-.1.2.1.1.1.1.1.2.1.2 0 .2-.1.2.1.1.1.2.2.2s.1.1.1.1c-.1.2.1.4-.1.5.2.3.1.6.1.9 0 .1 0 .1.1.1v.1c0 .1-.1 0-.1 0 0 .1 0 .2-.1.2.1.1-.1.1 0 .2.1 0 .2-.1.2.1 0 .1 0 .1-.1.1 0 0-.1 0 0 .1 0 0 .1 0 .1.1h-.1c-.1 0-.1-.1-.1-.1s.1-.1 0-.1c0 .1-.1 0-.2.1-.1 0-.1.1-.1 0 0-.3 0-.5-.1-.8 0-.1-.1-.2 0-.3.1-.1 0-.1 0-.1-.1-.1 0-.1.1-.2-.1.3.1.3.4.3-.2-.2-.3-.4-.4-.6 0-.1-.1-.1 0-.1.1-.1.1-.2.1-.3-.2 0-.2-.1-.2-.2v-.2c0-.1 0-.2.1-.2s.1.1.1.1h.1c0-.2-.2-.4-.3-.6v-.3c.1 0 0 .1.1.2 0-.2 0-.3-.1-.4 0-.1.1-.1.1-.2.1 0 .1.1.1.1v-.2c-.1-.1-.2-.1-.3-.2-.1-.1.1-.2.1-.3 0-.2-.1-.3-.2-.4-.1-.2 0-.5 0-.7v-.3c0-.1.1-.2.2-.1h.1v-.1c-.1-.1-.2-.1-.2-.1-.1 0 0 .1-.1.1v-.6c0-.1 0-.2.1-.3.1-.1.1-.2 0-.2-.1-.1-.1-.1 0-.2.1-.2 0-.3 0-.5 0-.1-.1-.2.1-.2 0 0 .1 0 .1-.1 0 0 0-.1-.1-.1-.2-.1-.1-.2-.1-.3.2 0 .2-.1.1-.2 0-.1 0-.2-.1-.2s0-.1 0-.1c.1-.1 0-.3 0-.4 0-.3 0-.6-.1-1 0-.1 0-.1-.1-.1h-.1v.1c.2.2 0 .5 0 .7v.4c-.1.1-.1.1 0 .2.1 0 .1.1.1.1-.1.2 0 .5.1.7 0 0 .1.1 0 .1h-.2c-.1-.2-.2-.3-.1-.5-.2-.2-.1-.5-.1-.7 0-.1-.1-.3 0-.4 0 0 0-.1.1-.1v-.1c-.1-.1-.1-.2-.1-.3-.1-.2 0-.2.2-.2 0-.1-.1-.1-.1-.1 0-.1-.2-.1 0-.2v-.1c-.2-.2 0-.5-.1-.7 0-.1 0-.1.1-.1s.1-.1.1-.2c0 0 0-.1-.1-.1s-.1.1-.2.1c-.1-.1 0-.3 0-.4 0-.1.1 0 .1 0 .1 0 .1 0 0-.1 0-.1-.1 0-.1 0s-.1 0-.1-.1c0-.3.1-.7.1-1.1 0-.3.1-.7-.1-1 .2-.2-.1-.4 0-.6v-.1c-.1-.2 0-.2.1-.2-.2-.2-.3-.3-.1-.5 0 0 .1-.1 0-.1h-.1s-.1.1-.1 0 0-.1.1-.1c0 0 0-.1.1-.2 0-.2-.1-.4-.1-.7 0-.1-.1-.2-.2-.3-.1-.1-.1-.1-.1-.2 0-.2 0-.3-.2-.4l-.1-.1c.1 0 .4.1.3-.2v-.1c.1-.1.1-.2 0-.4s-.1-.3 0-.5v-.1c-.1-.1-.1-.2-.1-.3h.6c0 .1.1.2 0 .3-.1.1-.1.2 0 .2.1.2.1.3.1.5v.2c.2.2.1.4 0 .6 0 .2 0 .3.1.5 0 .1.1.1 0 .2 0 .1-.1.1 0 .2h.2c.1 0 .1-.1.1-.2V22c.1 0 .1.1.2 0 0-.1 0-.2-.1-.3 0 0-.1-.1 0-.1.2-.1.1-.2 0-.3-.1-.2.1-.4 0-.5.1-.1.1-.3 0-.4-.1-.2 0-.4 0-.6h.1c0 .1-.1.1 0 .2.2 0 .1.2.1.3-.1-.1-.1-.2-.1 0v.4c.1 0 .1-.1.2-.1 0 .1.1.3 0 .4.1.1 0 .2 0 .3.1.2.1.4 0 .5v.1c0 .1.1.2 0 .3-.1.1-.1.2 0 .2s0 .4-.1.4c0 0-.1 0 0 .1 0 0 0 .1.1.1s0 .1.1.1c-.2 0-.2-.1-.4-.4 0 .3 0 .6.1.9.1 0 0-.1.1-.2 0-.1.1-.1.1-.1h.1c0 .1 0 .1-.1.2-.2.2-.1.4-.2.5v.1c.1.2.2.4.1.7v.2c.1.2.1.4.1.7 0 .2 0 .3.1.5s.1.2-.2.3c.3.1.2.3.2.5v1c0 .1 0 .1-.2.1.2.1.2.2.1.4v.4c-.1.1-.1 0-.1-.1h-.1v.1s0 .1.1.1c.2 0 .1.1.1.2 0 .3.1.5-.1.8v.1c.1.2 0 .5.1.7.1.2 0 .5 0 .7 0 .2.1.3 0 .5v.1c0 .1.1.1 0 .2-.1.4.1.8.1 1.2 0 .2.1.4.1.6.1.4.2.9.2 1.3 0 .2.1.3.1.5 0 .1 0 .2-.1.2h.2c.1 0 .1 0 .1.1s.1.2.1.3c0 .2.3.3.2.6.2 0 .2.1.2.2s.1.2.1.3c.1.2.2.5.4.7.1.2.2.4.4.5.1.1.1.4.2.4.1.1.1.1.1.2v.1c.3.2.3.6.3.9v.7c0 .2-.2.5 0 .8.1.1.1.2 0 .3-.1.4 0 .8 0 1.2 0 .2 0 .4.1.6v.6c.1.2.1.2-.1.2.1 0 .2 0 .2.2v1.1c0 .3.1.6 0 .9 0 .2.1.4.1.6v.1c-.3.1-.1.2 0 .3v.1c-.1.2 0 .5 0 .8 0 .3.2.6 0 .9-.1.1.1.2.1.3 0 0 .1 0 .1.1 0 .4.1.9.3 1.3.1.3.1.5.2.8.1.2.2.5.2.8 0 .2.1.3.1.4 0 .1.1.3.1.5 0 .1 0 .2.1.3.1.2.2.4.2.7v.1c.2.2.2.5.3.8.2.4.2.8.3 1.2 0 .1 0 .1.1.2s.1.3.1.5.1.3.1.4c.1.3.3.5.3.8v.2c0 .1.1.1 0 .2s-.1 0-.2 0c-.1.1.2.2.1.3.1-.1.1-.2.1-.3.1.2.2.5.3.8.1.4.2.8.4 1.2.1.4.3.7.4 1.1.1.2.1.5.1.7 0 .1-.1.3.2.3.1 0 .1.2.1.4 0 .1 0 .2.2.2.1 0 .1.1.1.1 0 .1.1.3.2.4v.1c-.1.4.3.7.3 1.1.2.1.2.3.3.5.1.1.1.3.2.4.1.1 0 .2 0 .3 0 .1-.1.1 0 .2.1 0 .1 0 .1-.1.1-.1.1 0 .1 0l.3.6c0 .1 0 .1.1.2l.3.6c.1.2.1.4.3.6l.1.1c0 .2.2.4.2.6 0 .1.1.1.1.2.1 0 .1.1.1.2s0 .3.2.4c.1.1.1.2.1.4.2-.1.2.1.2.2s0 .2.2.3c.1 0 .1.2.1.2 0 .1 0 .3.2.2.1.1.1.2.2.3 0 .1.3.1.2.3-.1.1 0 .1.1.1.1-.1.2 0 .2.1s.1.2.2.3c.2.2.4.5.5.7 0 0 0 .1.1.1.3.1.4.4.6.7.1.1.3.3.3.4.2.4.6.7.9 1.1l.6.6c.2.3.6.5.8.8.2.2.4.4.4.7.1-.1.2-.1.2 0s.1.1.1.2c.2.1.2.2.3.3.3.2.5.5.7.7l.3.3c.2.1.3.2.5.3.2.1.3.2.4.3.1.1.1.2.2.1.1 0 .1.1.2.1.2.1.4.3.5.4.2.1.4.2.6.4.1 0 .2.1.2.2.1.1.3.1.4.2.2.1.5.2.7.3 0 0 .1.1.2.1s.2 0 .2.2c.2-.1.4.1.5.1.3.1.5.3.8.4.2.1.2.2.2.4.1-.1 0-.3.1-.3.1-.1.2.1.3.1.2 0 .4.1.5.1.1 0 .2.1.2.2v.1c0 .1 0 .2.1.2s.1 0 .1-.1v-.1c0-.2 0-.2.2-.2.1 0 .2 0 .3.1h.1c.1 0 .1-.1.1 0 0 0 0 .1.1 0 .3-.1.6 0 .9.1h.3c.1 0 .3 0 .4.1.1.1.2 0 .4.1s.5 0 .7.2c.2-.2.5-.1.7-.1.1 0 .2-.1.4-.1.1 0 .3.1.4-.1.3.2.5-.1.8-.1.1 0 .3-.2.4-.2.1 0 .1-.1.2 0 .1 0 .2 0 .3-.1 0 0 0-.1.1-.1.2 0 .4-.1.6-.2.1 0 .1-.1.2 0s.3-.1.3-.2.1 0 .1-.1c.1-.2.3-.2.4-.4.1-.1.3-.2.5-.1-.1-.2.1-.2.1-.3.1.1 0 .2.1.2.1-.1 0-.1 0-.2 0 0-.1-.1 0-.1 0 0 .1-.1.2 0h.1s.1-.1 0-.1-.1 0-.1-.1c0 0 0-.1.1-.1.3 0 .6-.1.8-.3.2-.1.3-.2.4-.4.4-.1.4-.6.8-.7.1-.2.2-.3.4-.4.1-.1.3-.2.3-.4l.3-.3.1-.1c0-.1 0-.1.1-.1.1.1.2 0 .2-.2 0-.1 0-.1.1-.1.3-.2.5-.4.6-.7 0-.1.1-.1.1-.1.2-.1.4-.3.5-.5.1-.2.2-.3.3-.4.2-.2.3-.4.5-.5.2-.2.4-.4.5-.7.1-.2.1-.1.2 0 0-.1.1-.2 0-.3v-.1c.3 0 .1-.2.2-.3 0 0 .1-.1.1-.2.1-.1.1-.2 0-.2-.2 0-.4-.2-.6-.3-.2-.1-.5-.2-.7-.4-.3-.3-.8-.4-1.1-.7l-.9-.9c-.3-.2-.5-.4-.2-.8-.2.1-.2.2-.2.3h-.1c-.2-.3-.5-.5-.7-.8 0 0 0-.2-.2-.1h-.1c-.2-.2-.4-.3-.6-.6l-.1-.1c.1-.1-.1-.2-.1-.3-.2.2-.2 0-.3-.1l-.3-.3c-.3-.3-.5-.6-.7-1-.1-.2-.3-.3-.4-.4-.4-.4-.8-.9-1.1-1.4-.1-.1-.2-.2-.2-.3-.3-.1-.4-.2-.4-.5 0-.1 0-.1-.1-.1s-.3-.2-.4-.3c-.2-.1-.3-.3-.4-.5-.1-.1-.1-.2-.2-.2l-.3-.3c-.4-.6-.8-1.1-1.2-1.6-.3-.4-.6-.9-.9-1.3-.1-.2-.3-.3-.5-.5s-.3-.5-.6-.7c-.1 0 0-.1-.1-.2 0-.1 0-.2-.2-.2-.1 0-.1-.1-.1-.1-.2-.3-.4-.6-.6-.8-.2-.2-.4-.4-.5-.7 0-.1-.1-.1-.2-.2-.1-.2-.2-.4-.2-.7 0-.1 0-.2-.1-.3-.2.2.1.4 0 .5-.3-.1-.1-.4-.2-.7 0 0 0 .1-.1.1 0 .1.1.2 0 .2s-.1-.1-.2-.2c-.1-.3-.4-.4-.5-.6-.1-.2-.2-.5-.4-.6-.2-.2-.2-.5-.4-.7v-.1c-.1-.1-.1-.3-.2-.4-.2 0-.2-.1-.3-.2-.1-.1-.2-.2-.2-.3 0-.1-.2-.1-.2-.2-.3-.5-.6-1-.9-1.4 0 0 0-.1-.1-.1 0-.3-.3-.4-.4-.6-.1-.2-.2-.4-.4-.6-.1-.1-.3-.2-.3-.5-.3-.1-.3-.4-.3-.6v-.1c-.1.3-.2.2-.2 0-.1-.2-.3-.4-.4-.7-.1-.2-.4-.4-.5-.7-.1-.2-.3-.4-.4-.6-.1-.4-.3-.6-.6-.9-.2-.2-.4-.5-.5-.7-.1-.2-.3-.5-.3-.7 0-.1-.1-.1-.1-.2-.1 0 0 .1-.1.1-.1-.1-.2-.1-.2-.3v-.1c-.3-.2-.3-.3-.4-.8V44c-.2-.1-.4-.3-.6-.7-.1-.2-.2-.4-.4-.6-.2-.4-.4-.7-.6-1.1-.1-.2-.2-.5-.4-.7-.1-.1-.2-.3-.2-.4-.1-.3-.3-.5-.5-.7l-.3-.6c-.1-.2-.1-.3-.2-.4-.1-.2-.2-.3-.3-.5-.1-.2-.3-.4-.4-.6-.1-.3-.4-.7-.6-1l-.3-.6c-.1 0 0 .1-.1.1 0-.1 0-.3-.2-.3-.1 0 0-.1 0-.1v-.1c-.2-.1-.2-.3-.3-.4-.3-.2-.3-.6-.6-.8-.1-.1-.1-.3-.2-.4-.1-.2-.2-.3-.3-.5 0-.2-.2-.4-.2-.7 0-.1 0-.1-.1-.1-.1-.1-.1-.3-.2-.5l-.6-1.2c-.1-.2-.3-.5-.3-.8 0-.1-.1-.4-.2-.5-.2-.3-.3-.6-.4-.9-.1-.3-.3-.5-.4-.8 0-.1-.1-.2-.2-.4-.2-.2-.2-.4-.1-.6-.2-.1-.3-.2-.3-.4 0-.1-.1-.2-.2-.3-.1-.1-.2-.2-.1-.4 0 0 0-.1 0 0-.1 0-.1 0-.2-.1-.1-.2-.2-.5-.3-.7 0-.1.1-.2 0-.3-.1-.1-.1-.2-.2-.3-.1-.1-.2-.1-.1-.2-.2 0-.1-.2-.2-.3-.1-.1-.1-.3-.1-.4v-.1c-.2-.2-.3-.4-.3-.7 0 0 0-.1-.1-.1-.1-.1-.2-.2-.2-.4 0 0 0-.1-.1-.1s-.1-.2-.2-.3v-.2c0-.1 0 .1-.1 0 0-.1 0-.1-.1-.2 0-.1 0-.2-.2-.2-.1 0-.2-.2-.2-.3 0-.2-.2-.3-.2-.4h.3l.6.9c0-.1.1-.1.1-.1h.1v.1s-.1.1 0 .1c0 .1.1 0 .1 0 .1 0 .2.1.1.2 0 .1 0 .2.1.3.1.2.2.4.3.7 0 .1.1.3.2.4.2.2.2.5.3.8.1.2.2.3.2.5 0 .1.1.2.1.3 0 .1 0 .1.1.1l.1.1c0 .4.3.7.4 1 .2.4.3.8.5 1.1.2.4.4.8.6 1.1.1.2.2.5.3.8.2.3.3.7.5 1.1l.9 1.8c.2.3.3.6.4.9 0 .1.2.2.2.4.1.2.3.4.3.6 0 .2.1.3.2.5.1.1 0 .2 0 .3.3 0 .3.1.5.3l.6 1.2c.1.2.3.4.3.6 0 .2.2.3.3.4.1.1.2.3.2.4 0 .2.3.3.2.6.3-.1.2.2.3.3.1.2.1.4.3.6.1.1 0 .4.2.5.1 0 0 .4.3.3 0 .2.2.3.2.5s.1.3.2.3c.1.1.1.1 0 .2s.1.2.2.3c.2.1.2.3.3.4.1.3.3.5.4.8.1.2.3.4.4.7.1.3.3.5.5.8 0 .1.1.1.1.2v.1c.1.1.1.1 0 .2.2 0 .3.1.5.3.1.1.1.3.2.4.1.1 0 .2.1.3.1.2.4.4.5.7 0 0 .1 0 .2.1.2.2.2.5.5.7.2.1 0 .2 0 .3.1.1.2 0 .3.1.1.2.3.4.4.6.1.3.4.5.5.8 0 .1.1.1.1.2s0 .1.1.2c.1 0 .1.1.2.2.1.3.3.5.5.7.2.2.2.5.4.7.2.2.3.4.5.6.1.1.2.2.2.4v.1c.2.1.3.2.3.4.1.3.3.5.5.7.1.1.2.3.3.4.2.2.3.4.4.5.1.1.1.2.1.3-.1.1 0 .1.1.1s.2 0 .2.1c0 .3.2.3.3.5.1.3.3.4.4.7.1.3.3.5.6.7.1.1.3.2.2.4v.1c.2 0 .2.4.5.4.2.4.7.7.9 1.2.1.1.1.2.2.3.1.1.1.2 0 .3-.1.1 0 .2.1.1h.2c.1.2.4.4.5.7 0 .1.1.2.2.2l.3.3c.1.1.1.2.2.3.1 0-.1.1 0 .1s.3-.1.3.2c0 .1.1.1.2.2s.2.3.3.4c.1.2.2.4.4.6.2.1.3.3.3.5 0 .1.1.1.2.2.1 0 .2.1.2.2.1.3.5.5.5.8 0 .1.1 0 .1 0 .1 0 .2.1.2.2 0 .3.2.3.4.5.1.1.3.2.4.4.1.3.3.5.5.7.1.1.2.3.4.4.1 0 .1.1.1.2s0 .2.1.2c.3 0 .3.3.5.5 0 0 .1.1 0 .1-.1.1 0 .1.1.1s.1 0 .1.1c.2.3.5.6.7.9v.1c.1.2.1.3.3.4.2.1.3.3.5.5s.3.4.5.5v.1c0 .2.1.2.2.3.1.1.3.1.3.3 0 .1.2 0 .2.1l.6.6c.2.1.3.3.2.5.3-.2.4.2.6.3.2.1.2.4.3.6 0 .1.1.1.1.2v-.2c0-.1.1-.1.1-.1.3.3.7.4 1 .7.1.1.2.2.3.2.2.1.2.3.3.3.1-.2.2-.2.3-.1.1.1.1.1.2.1.2 0 .2.2.4.2.3.1.3.1.4-.2 0-.2.1-.3.3-.2-.1-.1 0-.2.1-.3.1-.1.2-.3.2-.5 0-.1.1-.3.3-.4.1-.2.3-.5.3-.7 0-.1 0-.1.1-.1 0 0 .1 0 0-.1-.2-.1.1-.3 0-.4v-.1c.1-.1.1-.1.1-.2v-.1c.1-.1 0 .1.1.1 0-.1 0-.1-.1-.2v-.4c0-.1.1-.2.1-.4 0-.1 0-.3.2-.3 0 0 .1 0 .1-.1 0-.3.1-.5.2-.7.1-.2.1-.4.2-.6.1-.2.1-.4.2-.6 0 0 .1.1.2.1.4-.9.4-1.1.6-1.2.1 0 .1-.1.1-.2-.1-.3.1-.3.2-.5l.1-.1c-.1-.1 0-.2 0-.2 0-.1.1-.2.1-.3 0-.1.1-.1.2-.2h.1v.2c-.1.2-.3.4-.3.7 0 0 0 .1-.1.1-.1.1-.2.2-.1.4 0 .1-.1.2-.2.4s-.1.5-.3.7v.2c0 .1 0 .3-.2.3 0 0-.1 0-.1.1.1.3-.2.6-.2.8-.1.3-.2.5-.2.8 0 .1 0 .2-.1.3v.1c.1 0 .1 0 .1-.1 0-.2.3-.3.1-.5-.1-.1.1-.2.2-.3.1-.1.2-.2.2-.4 0-.1.1-.2.2-.3.3-.2.3-.6.4-.9.1-.3.2-.6.4-.8v-.2c.1 0 .1.1.2.1-.1-.4.2-.8.3-1.2 0 0 0-.1.1-.1.2.1.2-.1.2-.2s0-.2.1-.3c.1 0 .1-.2.1-.3 0-.1 0-.2.1-.3.1-.1.2-.2.2-.3v.1l.1.1c.1 0 0-.1 0-.2s.1-.3-.1-.4v-.2c.1 0 .1-.1.1-.2.1 0 .1.1.1.1s0 .1.1 0v-.1c0-.1-.1-.2.1-.3.1 0 0-.2 0-.2-.1-.2 0-.3.1-.3.2-.1.2-.3.2-.5.1-.2.1-.5.3-.7.1-.1.1-.2.1-.3 0-.1 0-.2.2-.1.1 0 .1 0 .1-.1-.1-.2-.2-.3.1-.4 0-.3.2-.4.3-.6.1-.2.1-.5.3-.7 0 0 .1-.1.1-.2v-.1c.3-.1.1-.3.1-.4 0-.1 0-.2.1-.1.1 0 .1 0 .1-.1s0-.3.1-.4c-.2 0-.2 0-.2.2v.2c-.2.2-.2.5-.4.7-.3.4-.5.9-.8 1.3-.1.2-.2.4-.4.6 0 0-.1.2-.1.3l-.3.6-.1.1c0 .3-.2.4-.3.7 0 0 0 .1-.1.1 0-.2-.2-.3 0-.5l.1-.1c.2 0 .2-.1.1-.2s.1-.2.1-.3c0-.1.1-.1.1-.2s.1-.1.2 0c0 .1.1.1.1 0v-.1c-.1-.1 0-.2 0-.3 0-.3.2-.5.3-.7v-.1c0-.2 0-.2.2-.2.1-.1 0-.1 0-.2s0-.2.1-.1c.1 0 .1-.1.1-.1 0-.2-.1-.3.2-.4 0-.2.2-.3.3-.5.1-.2.2-.3.3-.5 0-.1.1-.1 0-.1-.1-.2 0-.1.2-.1-.1-.2 0-.4.1-.5.1 0 .1-.1.1-.2s0-.1.1-.1c.2-.1.2-.2.2-.4-.1-.1 0-.2.1-.3 0-.1.1-.1.1-.2v-.1c.2 0 .2-.2.1-.3 0-.1 0-.1.1-.1s.1-.1.1-.2c-.1-.3.1-.5.2-.7 0-.1 0-.3.2-.3v-.1c-.1-.3.2-.6.2-.9 0-.2.1-.4.2-.6V52c0-.1 0-.3.2-.1 0-.2 0-.2-.1-.2s0-.1 0-.1c.2-.3.3-.7.4-1.1 0-.2.1-.4.1-.6.3-.1.2-.4.2-.6 0-.2.1-.3.1-.5v-.1c.3 0 .1-.2.1-.4 0-.1 0-.2.1-.2l.1-.1c-.2-.3.2-.5.1-.8 0-.1.1-.1.1-.2 0-.3.2-.5.2-.8v-.1c.1.1.1.3.2.4v-.3c-.1-.2-.1-.3 0-.4.1-.1.1-.2.1-.3-.1-.2 0-.3.1-.4.1-.2.3-.4.2-.7 0-.1.1-.3 0-.5 0 0 0-.1.1-.1h.1c0-.2.2-.5.2-.7 0-.4.3-.7.2-1.1.2-.4.3-.8.4-1.2.1-.3.1-.6.1-1 0-.1 0-.2.1-.2.2-.1.2-.1.1-.3-.1-.3.1-.5.2-.8 0-.1.1-.2 0-.2 0-.1-.1-.2.1-.4.1 0 .1-.2 0-.3-.1-.1 0-.3.1-.3.2-.2.2-.5.3-.7.1-.2.1-.5.1-.7.1-.3.1-.6.2-.9v-.2c-.1-.4.1-.7.2-1 .1 0 .1.1.2.1v-1.1c0-.3.2-.5.3-.8.1-.3.2-.6.1-1 0-.1-.1-.2.1-.2v-.1c-.1-.2.1-.3.1-.5 0-.1.1-.2-.1-.3-.1-.1 0-.3 0-.4.2-.2 0-.3.1-.5v-.1c.3 0 .1-.2.1-.2 0-.2.1-.4.1-.6 0 0 0-.1.1-.1s.1-.1 0-.1c-.2-.1-.1-.2 0-.3 0-.1.1-.1.1-.2 0-.4.2-.8.2-1.2 0-.4.1-.9.2-1.3.1-.2 0-.4 0-.7 0-.1 0-.3.2-.4.1 0 .1-.1 0-.1v-.1c.3-.1.1-.3.1-.4 0-.1 0-.1.1-.1 0-.2.2-.3.2-.6-.1.1-.1.2-.2.3-.1 0 0-.1-.1-.2v-.1c.3-.1 0-.3.1-.4.1-.2 0-.4.1-.5-.2-.2.1-.5-.1-.8-.1-.1 0-.3-.1-.4v-.1c.2-.3-.1-.5-.1-.8h.7c-.1.1 0 .3-.1.4.2-.1.2-.3.1-.4h1.4c-.2.2-.1.5-.1.7v.2c-.1.2-.1.3 0 .4.1.2.1.4.1.6 0 .1-.1 0-.2 0-.1.3-.1.3.2.2-.1.2 0 .4 0 .6v.7c0 .2-.1.4-.1.7 0 .1 0 .2-.1.3-.1.2-.1.4-.1.5-.1.1-.1.2 0 .3.1.2 0 .2-.1.2 0 0-.1 0-.1.1s0 .1.1.1c.1.1.2.5.1.6-.1.1-.1.1-.1.2s0 .2-.2.2c.1 0 .1-.1 0-.2l-.1.1c0 .1 0 .1-.1.2-.1 0 0 .1 0 .1.1 0 .1.1.1.2-.1.1.2 0 .1.2 0 .1 0 .1.1.1.2.1.1.3 0 .3v.6c0 .1 0 .2-.1.2 0-.1-.1-.2 0-.4 0 0 0-.2-.1-.2-.1.1-.1.3-.1.5s-.1.3 0 .5c.1.1-.1.3-.2.5 0 .1-.1.5-.1.5 0 .1.2-.1.2.1s-.1 0-.2.1v.1c.1.2 0 .2-.1.3-.1 0-.1-.1-.1-.2.1-.4 0-.8.1-1.1 0-.1 0-.1.1-.1 0 0 .1 0 0-.1-.2-.3-.1-.7 0-1 .1-.4 0-.9.1-1.3 0-.2 0-.2.2-.3 0 0 .2 0 .1-.1 0-.1-.1-.1-.1-.1 0 .6 0 .4.1.3.1.1 0 .1 0 .2s0 .1.1.1c0 0 .1-.1 0-.1-.1-.1 0-.3-.2-.3v-.1c0-.1.1 0 .2 0-.2-.4-.1-.8 0-1.3 0-.2.1-.3 0-.5-.1-.1 0-.2 0-.3.1-.3-.1-.6 0-.9v-.3c0-.3.1-.6.1-.9 0-.3 0-.5-.1-.8 0-.1.1-.2.1-.3h-.1c-.2 0-.3.1-.1.2.1.1 0 .4-.1.5-.1.1-.1.1 0 .1 0 0 .1 0 0 .1v.8c0 .3 0 .5-.1.8v.1c.1.2 0 .2-.2.2.1.2.1.4-.2.3.3.1.2.3.2.6 0 .2 0 .4.1.6v.1c0 .1-.1.2-.1.3 0 .1.1.1.1.2s0 .2-.1.3c-.1.1 0 .2 0 .3 0 .2.1.3-.1.5-.1.1-.1.2-.1.4 0 .1 0 .2-.2.2.2.1.2.1.2.3-.1.1-.1.3 0 .5 0 .2 0 .4-.1.5-.1.1-.1.1 0 .2v.1c-.1.1-.1.2-.1.3 0 .1-.1.2-.2.1.2.2.2.4 0 .6v.1c0 .1.1.2 0 .2-.2.2-.1.4-.1.6 0 .1-.1.2-.2.4-.1.1-.3.2 0 .3 0 0 .1.1 0 .1-.1.2 0 .3 0 .5v.1c0-.1-.1 0-.2-.1s-.2-.2-.1-.3c.1-.3.1-.5.1-.8 0-.2 0-.3.2-.2-.2-.1-.1-.2-.1-.3.1-.3 0-.7.1-1 .2-.4.1-.9.4-1.3.1-.2.1-.3 0-.5s.1-.5.1-.7v-.2c0-.1 0-.2.1-.2s.1-.1 0-.1c.2-.1.1-.2.1-.4-.1-.2 0-.3.1-.5V25c-.1-.1-.1-.2.1-.2 0 0 .1 0 .1-.1v-.1c0 .1 0 .1-.1 0 0-.1-.1-.2 0-.2.2 0 .1-.1 0-.2s-.2-.2 0-.3c.1 0-.1-.2 0-.3-.1.1-.2.3-.2.5 0 .1 0 .2-.1.2l-.3 1.8c-.1.3-.1.7-.2 1v.2c0 .1 0 .2-.1.3-.1.1 0 .2 0 .4-.1.5-.1 1-.2 1.5l-.3 1.2s0 .1-.1.1-.1 0-.1.1c.2.1.1.3 0 .4 0 .1.1.3-.1.4v.2c-.1.3-.3.6-.3 1 0 .1-.1.1-.1.2s-.1.3-.1.4c0 .3-.1.6-.1 1 0 .1 0 .1-.1.2 0 0-.1 0-.1.1.1.4-.2.8-.2 1.2 0 .1 0 .2-.1.2s0 .1 0 .1c.1.2 0 .4 0 .6 0 .1-.1.3-.1.4-.1.7-.4 1.3-.5 2 0 .3-.1.7-.3 1-.1.1-.2.1-.1.3.1.1-.1.3-.1.5 0 0-.1.1 0 .1 0 .2 0 .3-.1.5v.1c.1.4-.1.7-.2 1.1-.1.3-.1.6-.3.9-.2.1-.2.4-.2.6 0 .1 0 .2-.1.3v.1c0 .5-.3.9-.4 1.4 0 .1 0 .3-.1.4 0 .1 0 .2-.1.3.1.3-.2.6-.2.9 0 .2-.1.4-.2.6 0 .1 0 .1-.1.2v.2h.1c.1 0 .1-.1.1-.2-.1-.1 0-.2 0-.4l.1-.1c.1 0 .1.1.1.1.1.2 0 .4-.1.5-.1.2-.3.4-.3.6 0 .3-.2.5-.3.7-.1.3-.3.6-.3.9-.1.2-.1.5-.2.7v.4c-.4.6-.6 1.3-.8 2 0 .2-.1.4-.2.6-.1.3-.2.7-.4 1-.1.3-.2.7-.3 1-.1.2-.1.4-.2.5-.1.2-.2.5-.2.7-.1.4-.3.8-.4 1.1-.2.5-.4.9-.6 1.3-.1.3-.2.7-.4 1-.2.4-.3.7-.5 1.1-.1.3-.2.6-.3.8-.1.2-.2.5-.3.7 0 .2-.1.3-.2.4-.2.2-.2.6-.4.8-.1.1 0 .2-.1.3-.2.3-.3.7-.6 1.1-.1.1-.1.3-.2.5s-.2.3-.3.5c-.1.1-.1.3-.2.4-.2.3-.4.7-.5 1.1-.1 0-.1-.2-.2-.2.2.3 0 .6-.1.8-.1.2-.3.4-.3.7 0 .1-.1.2-.2.3-.1.2-.3.3-.3.5s-.2.3-.2.4c-.2.5-.5 1-.8 1.5l-.1.1c.2.1.3.2.5.2.1 0 .3.1.3.2s.2 0 .2.1l.9.3c.1 0 .2-.1.3 0 .1.1.3.1.5.2.2 0 .3.2.5.2.3 0 .5 0 .8.1.2 0 .5 0 .7.2h.1c.1-.2.2-.1.3 0 .1.1.1.1.2 0s.2-.1.2 0h.1c.2-.2.5 0 .7-.1h2.3c.1 0 .2 0 .3.1.1.1.1 0 .1 0 0-.1.1-.1.2-.1.2.1.3 0 .5-.1.1 0 .1-.1.2 0h.1c0-.1.1-.1.2-.1.2 0 .5-.1.7-.1.5-.1.9-.4 1.4-.5.1 0 .1-.1.1-.1.1 0 .1-.1.2-.1.2.1.3.1.3-.2h.1c.1.1.2.1.2-.1.2 0 .3 0 .4-.2 0 0 .1 0 .1.1 0 0 0 .1.1.1V73c.1-.3.2-.3.5-.2.1-.1.1-.3.2-.4.1-.1.2-.1.4-.1.1 0 .1 0 .1-.1s.1-.1.1-.2c.3-.2.7-.3.9-.7.1-.2.4-.2.5-.5 0-.1.2-.1.3-.1.2 0 .3-.1.3-.3 0-.1 0-.1.1-.1 0 0 .1 0 .1-.1.1-.1.1-.2.3-.2.1 0 .1-.2.2-.2.1-.1.1 0 .2.1 0-.2.1-.3.2-.4l.1.1c0-.2.1-.4.3-.5.1 0 .2-.1.2-.3.1 0 .1.1.2.1v-.2c.2.3.3.3.4.2.2 0 .3-.1.3-.3 0-.1 0-.2.1-.2 0 .1 0 .2.1.2.1-.2.3-.4.3-.6 0-.1.1-.1.1 0 .2.1.2 0 .2-.1s0-.2.1-.1c.1 0 .1.1.1.2v.1s.1 0 0-.1c-.1-.3.1-.4.2-.6h.1c.2 0 .3-.1.4-.3.1-.1.2-.2.2-.3 0 0 .1-.1.1 0 .2.1.2-.1.2-.2v-.1c0-.2.2-.1.3-.1.1-.1 0-.2.2-.2.1 0 .1-.1.1-.1 0-.2.2-.3.4-.4.1-.1.3-.1.3-.3.3.2.2-.2.2-.2 0-.2.1-.3.2-.4.1-.1.2-.1.2-.2s.1-.1.1-.1c.3 0 .3-.2.3-.4 0-.1 0-.1.1-.1.2 0 .3-.2.4-.3 0 0 0-.1.1-.1s.1-.1.2-.1c.2-.1.3-.4.6-.5.1 0 .1-.1.1-.1 0-.1-.1-.1 0-.2.1 0 0 .1.1.1 0-.2.2-.2.3-.4 0-.3.4-.3.3-.6 0 0 0-.1.1-.1.2 0 .3-.1.2-.3 0-.1 0-.1.1-.1s.1 0 .2-.1c0-.1-.1-.3.2-.2-.1-.1.1-.2.1-.3 0-.1 0-.1.1-.1.3-.1.5-.3.6-.6.1-.2.1-.3.3-.3.2 0 .2-.2.3-.3v-.1c.2 0 .2-.3.3-.4.2-.1.2-.4.5-.5.1 0 .1-.1.1-.1 0-.1.1-.3.2-.4.1-.1.2-.2.2-.3 0 0 0-.1.1-.1.2-.1.3-.2.3-.4 0-.1 0-.1.1-.1s.1 0 .1-.1c0-.3.2-.4.3-.5.1-.1.1-.2.2-.3.1-.3.3-.6.5-.9.1-.2.2-.3.3-.5.1-.2.3-.4.4-.6.2-.4.5-.7.8-1.1.3-.1.2-.5.6-.5 0-.3.4-.4.4-.7 0-.2.1.1.2 0-.1-.1.1-.2 0-.4.1 0 .1 0 .1-.1.1-.1.2-.2.2-.3 0-.1.1-.2.2 0 0-.3.1-.5.3-.7.1-.2.3-.4.4-.7.2-.3.4-.7.6-1 .1-.2.3-.4.4-.6.2-.3.3-.7.4-1 0-.2.2-.2.2-.4.1-.3.2-.5.2-.8 0-.1.1-.2.1-.3.1-.2 0-.3.1-.5s.2-.3.1-.5c0 0 0-.1.1-.1 0 0 .1 0 .1-.1-.1-.5.2-.9.2-1.4v-.1c.1-.1.2-.3.2-.5 0-.1.1-.1.2-.1-.1-.1-.3-.2 0-.2v-.1c.1-.4.2-.8.4-1.2.1-.1.1-.2.1-.4.1-.1.1 0 .1-.1v-.1c-.1-.1-.2-.2 0-.3.1-.1.2-.1.3-.1h.1c-.2-.1 0-.3 0-.4 0-.1.1-.2.1-.3.1-.2.1-.2.3-.1v-.2c-.1-.1-.1-.2 0-.3.1-.2.2-.4.3-.5.1 0 .1-.2.1-.3 0-.4.2-.6.3-.9.2-.4.2-.8.4-1.2.1-.2 0-.3.1-.4.1-.1.1-.3.1-.5.1-.2.1-.5.2-.8 0-.1.1-.3.2-.3-.1-.1-.2 0-.1-.2.1-.4.1-.7.2-1.1s.2-.7.2-1.1c0-.1-.1-.2.1-.3.1 0 0-.2 0-.2-.1-.2 0-.4.1-.6 0-.1.1-.2 0-.3v-.1c0-.1 0-.2.1-.2s.1.1.1.2.2.1.2.3c0 .1 0 .1-.1.1h-.1s0 .1.1.1c.2 0 .1.1.1.1-.1.2-.1.4-.1.7 0 .1 0 .1-.1.2s-.1.2-.1.4c.1.2-.1.3 0 .5h-.1c-.1 0-.1.1-.1.1 0 .1.1.1.1.1.1 0 .1 0 .1-.1.1-.2.1-.5.2-.7.1-.3.1-.7.3-1 .2-.5.2-1 .4-1.5s.2-1.1.3-1.6v-.1c.2-.2.1-.6.2-.8.1-.3.2-.6.2-.9 0-.2 0-.4.1-.6.1-.5.3-.9.3-1.3 0-.5.1-1 .1-1.5 0-.3 0-.6.1-.8v-.4c0-.1-.1-.2.1-.3-.1-.2 0-.5.1-.7h.3v.2c-.3.4-.4.7-.6 1.1zm-27.7 6.6c0 .1.1 0 .1.1.1 0 .1 0 .2-.1v-.2l-.1-.1c-.2.1-.1.1-.2.3.2 0 0-.1 0 0zM46.6 46.1c-.1.1-.1.2-.1.3h.1c.1-.2 0-.2 0-.3zM27.2 28.7c-.1-.1-.1-.2 0-.3v-.1c-.1 0-.1.1-.2.1v.4c.1 0 .1-.1.2-.1zm.2-5c0-.1-.1-.3 0-.4-.2.1-.1-.1-.2-.1-.2.4.1.8 0 1.1.1-.3.3-.4.2-.6zm.2 8.6h-.2c-.1 0 0 .1 0 .1 0 .1.1.2.1.3.1-.1 0-.2.1-.3v-.1zm.2-4.5c-.1-.2-.1-.3-.1-.5v-1c0-.4-.2-.8-.1-1.2 0-.1 0-.3-.1-.4 0-.1 0-.2-.1-.2 0 .2-.1.3-.1.5 0 .3-.1.7 0 1 .1.5 0 1 .2 1.5.1.2.1.3.3.3zm.4 8.4c0-.1-.1-.2 0-.4v-.1c-.1 0-.3-.2-.2.1 0 .3 0 .3.2.4zM30.8 48c0-.1-.1-.1-.1-.1-.1 0-.1.1-.1.1s0 .1.1.1c0 0 .1 0 .1-.1zm.1-.7c-.1-.1-.1-.2-.1-.3.1-.2-.1-.5 0-.7v-.1c-.1-.1-.1-.2-.1-.3v-.4c0-.1.1-.1.1-.2 0 0 0-.1-.1-.1-.1.1-.1 0-.1-.1v-.3c-.1-.2 0-.4.3-.5-.1-.1-.1-.1-.2 0 0 .1-.1 0-.1 0 .1-.2 0-.3 0-.5-.1-.3 0-.6-.1-.9v-.1c.1-.1.1-.1 0-.2s0-.2 0-.2c.1 0 .1-.1.1-.1V42c0-.3 0-.6-.1-.8-.1-.6-.2-1.2-.4-1.8 0-.1.1-.2 0-.2-.2 0 0-.2-.1-.3-.1 0-.2 0-.3-.1 0-.1-.1-.1-.1-.2-.1-.2-.3-.3-.3-.6-.3-.2-.3-.5-.4-.8 0-.1 0-.1-.2-.1.2.2.1.4.1.6.1.4.2.8.1 1.2v.1c.1.1.1.2.2.4.1.5.1 1 .3 1.4.2.5.1 1 .3 1.4.1.3.2.7.2 1.1 0 .4.2.7.2 1.1 0 .2 0 .4.1.6.1.3.1.5.2.8 0 .3 0 .6.2.8.1.1.1.3.1.4 0 .2 0 .4.2.5-.1-.1.1-.2 0-.2zm2.1 9.6c0-.2-.2-.3-.2-.5.1.2 0 .4.2.5zm52.1 15.5s0-.1 0 0c-.1-.1-.1-.1-.1 0v.3c0-.1.1-.2.1-.3zm16.5-18c-.1.1-.2.2-.2.4.1-.2.2-.2.2-.4.1 0 .1 0 0 0zm.5-.7c-.2 0-.2.1-.2.2v.1c.1 0 .2-.1.2-.3 0 .1 0 .1 0 0zm5.4-10.2c-.2.1-.2.2-.1.4.1-.2.1-.3.1-.4zm.2-.4c0-.1 0-.1-.1-.1 0 0-.1 0-.1.1s0 .1.1.1.1-.1.1-.1zm.7-1.7s-.1 0 0 0c-.2-.1-.3 0-.2.3-.1-.2 0-.2.2-.3-.1.1 0 .1 0 0zM26.1 21.5c-.1.1-.1.1 0 0-.1.3-.1.5 0 .7.1.1 0 .2-.1.3-.1.1-.1.3.1.3.1.1 0 .2.1.3-.1 0-.1 0-.2-.1 0-.2-.2-.2-.2-.1-.1 0-.1.2 0 .2.1.2.1.5.1.7-.2.1 0 .3-.1.5.1 0 .1-.1.1-.1s.1.2 0 .2c-.2 0-.1.2-.1.3 0 .2-.1.4 0 .6v.2c.1.4 0 .8 0 1.2 0 .2.1.4-.1.6v.1c0 .1.2.2 0 .3v.1c.2.1.1.3.1.5v.2h.1s.1 0 0-.1c0-.1-.1-.2 0-.2s0 .1.1.2c0 0 0 .1.1.1.1.1.1.1 0 .2 0 .1-.1 0-.2 0-.1-.1-.1-.2-.2 0-.2.3-.2.3 0 .6.1.1 0 .2 0 .3-.1.1-.2.2 0 .2v.1s-.1.1-.1 0c-.1 0 0-.1 0-.1v-.4c.1-.1.1-.1 0-.2-.2 0-.2-.2-.1-.3.1-.1.1-.2.1-.3-.1-.2 0-.3-.1-.5 0-.1-.1-.2.1-.2v-.1c-.1-.2 0-.3 0-.5 0 0 0-.1-.1-.1 0 0-.1-.1 0-.2.2-.2 0-.4.1-.5v-.4c.1-.2 0-.4 0-.6 0-.1-.1-.2.1-.2v-.1c-.2-.2-.1-.4-.1-.6 0-.2 0-.4-.1-.6-.1-.1 0-.2 0-.3 0-.1 0-.2.1-.1 0 0 .1 0 0-.1 0-.1 0-.1-.1-.2-.2-.2 0-.5 0-.7 0-.1.2 0 .1-.1 0-.1-.2-.1-.2-.1 0-.1-.1-.2 0-.3.1 0 0-.2 0-.2-.2-.1-.1-.3-.1-.5V19.7h.9c0 .1-.3.1 0 .2v.4c0 .2-.1.4 0 .6-.1.5-.1.6-.1.6zm-.6-.6c0 .1-.2.1 0 .2h.1s0-.1-.1-.2zm.6.6zm.1 1.7zm-.2 5.6zm42.8-7c0 .1-.1.2.1.1.1 0 .1.1 0 .1s-.1.1-.1.2.1.3.1.4v.3c.1.3.2.7.1 1.1v.1c.2.2.1.4.1.5-.1.2.2.2.1.3h.1c0-.1.1-.3 0-.4 0 0-.1-.1 0-.1.1-.1 0-.2 0-.2-.1-.1-.1-.2 0-.3v-.2c.1-.4-.2-.8-.1-1.2 0-.2-.1-.3-.1-.5s-.1-.4 0-.7v-.6c0-.2 0-.5-.1-.7h-.3c0 .5.1.9.1 1.4-.1.1 0 .3 0 .4zm39.6-1.2c.1.1.1.2 0 .3-.1.1-.1.2-.1.3.1.2.2.4.1.6-.1.1.1.2.1.3-.1.2-.1.5 0 .7v.1c-.1 0-.1.1 0 .2 0 .1.2.2 0 .3v.1c0 .1.1.2.1.3-.1.1-.1.2 0 .4.1.3-.2.6 0 .9-.2.1 0 .2-.1.3.1-.1.1 0 .2 0v-.3c0-.2 0-.4.1-.6 0-.3-.1-.6.1-.8V23c0-.2-.1 0-.1 0 0-.1-.1-.3.1-.4.1 0 0 .1 0 .2.1 0 .1-.1 0-.1-.1-.2-.1-.5-.1-.7 0-.1 0-.2-.1-.3-.1-.1 0-.3-.1-.4 0 0 0-.1.1-.1.2 0 .1-.1.1-.2s-.1-.2 0-.3c0-.2-.1-.3-.1-.5h-.2c-.2 0-.3.2-.1.4zm-38.9-.2c.1.6.2 1.2.2 1.8.1-.1.2 0 .3-.1.1-.1-.1-.2 0-.3.1 0 .2.2.2 0v-.5c0-.1 0-.2-.1-.2 0 0-.1 0 0-.1 0-.2.1-.3 0-.4-.1-.2-.2-.4-.2-.6h-.4c.1.2-.1.3 0 .4zm40.1.3c-.1-.1-.1-.3 0-.4.1-.1.1-.2 0-.3-.2.1-.1.3-.1.4 0 .2.1.4.2.6 0-.1 0-.2-.1-.3zm-22-.2s-.1 0 0 0zm0-.1c0 .1 0 .1 0 0 .1 0 .1-.1.1-.2s-.1-.2-.1-.2h-.3v.1c0 .2 0 .4.3.3zm25.3.1c.1 0 0-.1 0 0 .2-.2 0-.4.1-.5h-.2v.4c0 .1 0 .1.1.1zm-85 19.3c.2.2.2.4.3.6.1.3.1.7.1 1 0 .1-.1.1-.2.2 0 0-.1.1 0 .1.2.1.1.2 0 .4v.1c.1.1.1.3.2.4-.3.1 0 .2 0 .2v.6c.1.1 0 .1-.1.1s-.1 0-.1.1.1.1.1.1c0 .1.1.2.1.4s-.2.3 0 .5c.1.1 0 .2 0 .3 0 .1 0 .2.1.3-.2 0-.2.2-.3.3h.1c.1-.1.1-.1.1 0 0 .2 0 .4-.1.6 0 .1-.1.3.1.4.1.1.1.1-.1.2-.1 0-.1.1-.1.2s.1 0 .1 0c.1.2-.1.3 0 .5 0 0 0 .1-.1.2-.2.1-.1.1 0 .2 0 0 .1 0 .1.1-.1.2.1.4 0 .7-.1.2-.2.4 0 .6v.1c.1.3-.1.6.1.9 0 .1-.1.1-.1.2-.1 0-.1-.1-.1-.1-.1-.1-.2-.1-.2-.2s0-.2.1-.2c.1-.1.2-.2.1-.4-.1.1 0 .2-.1.3 0-.1-.2-.3 0-.4v-.1c-.1-.2-.1-.2.1-.3 0 0 .1-.1 0-.2-.2-.1-.2-.3 0-.5.1-.1 0-.2.1-.2-.2-.1-.1.1-.2.1.1-.2-.1-.4 0-.6v-1.1c0-.3 0-.6-.1-.9 0-.1.1-.2 0-.3 0 0 .1-.1.1 0 .1 0 .1.1.1 0v-.2c-.1 0-.1-.1 0-.3v-2.4s.1 0 0-.1c-.2-.3 0-.6-.1-.9-.1-.2 0-.4 0-.6 0-.1 0-.2.2-.1.1 0 .1-.1.1-.1 0-.1 0-.1-.1-.1-.2.1-.2-.1-.2-.2s-.1-.3-.1-.5zm.2 3.1c.1.1.1.2 0 .3v.1c.1 0 .1 0 .1-.1s0-.2.1-.3c-.2 0-.2 0-.2-.2v.2zm0-2c-.1 0-.1 0-.1.1s0 .2.1.2h.2c-.1-.1-.1 0-.2-.1 0 0 .1-.1 0-.2zm-2 5.5c0 .1.1.1 0 .2s0 .2.1.3c.2-.5.2-1 .1-1.5v-.1c.1-.3 0-.7.1-1 0-.1 0-.1-.1-.2-.1 0-.1 0 0-.1.1-.2.2-.3 0-.5v-.1c.2-.2.1-.5.1-.8v-1.2c0-.2-.1-.4 0-.6v-.3c0-.3.1-.7-.1-1v-.1c0-.1.1-.2-.1-.2 0 0-.1-.1 0-.1.2-.1.2-.2.1-.3 0-.1-.1-.1 0-.2.1-.2.1-.3 0-.5V38c.1-.1.1-.2-.1-.3-.1 0-.3 0-.3.2s.1.3.1.5c0 .3.1.7 0 1 0 .1 0 .2.1.2 0 0 .1.1 0 .1-.1.2 0 .2.1.1 0 0 .1 0 .1.1-.1 0-.3.2-.4-.1v.3c0 .1.1.3.1.4-.1.2 0 .4 0 .6 0 .1-.1.2.1.2-.2.2-.1.3 0 .5v.1s-.1.1 0 .1c0 .1.1.1.1 0h.1c0 .1 0 .1-.1.1 0 0-.1 0-.1.1v.5c0 .2-.1.4 0 .6.1.2.1.3 0 .5s-.1.5 0 .7c0 .1.1.1 0 .1-.1.1-.1.2-.1.3.1.1.1.2 0 .3v.2c0 .1.1.3 0 .4 0 .3.1.4.1.6zm.5 8.7c0-.1-.3-.2 0-.2v-.1c0-.2 0-.3-.2-.4.2 0 .2 0 .2-.2v-.1c.1-.2.1-.5 0-.6-.1-.2 0-.4 0-.5 0-.2-.1-.4 0-.7 0 0 0-.1-.1-.1s-.1 0-.1-.1.1-.2.1-.2c0-.1.2-.3 0-.4.1-.1 0-.2 0-.2 0-.1-.1-.1 0-.2.1 0 0-.1 0-.2-.1-.1-.2-.2 0-.4v-.4c.1-.2 0-.4 0-.7 0-.2 0-.3-.1-.5 0-.2.1-.4 0-.6-.1-.3 0-.6 0-1v-.5c-.1 0 0 .1-.1.1-.2 0-.1.1-.1.2.2.1.2.4.1.6-.1.1-.1.3-.1.4v.3c-.1.3 0 .5 0 .8 0 .1 0 .2.1.2.2.1.1.2 0 .2 0 .1-.1.2-.1.2 0 .1.2.2.1.4 0 0 .1-.1.1 0 0 0 0 .1-.1.1s-.1 0-.1.1c0 .2.1.4 0 .6-.1.4.1.8 0 1.2-.1.3.2.5 0 .8v.4c0 .1.1.2 0 .3-.1.1 0 .2 0 .3v.3c-.1.4.1.8 0 1.2v.1c.1 0 .1-.1 0-.1 0-.1 0-.1.1-.1 0 0 0-.1.1-.1.2.1.2 0 .2-.2zm-.1.6zm-1-25.5c-.1 0 0 .1 0 .2v.8c0 .1 0 .2.1.3v.1c0 .2-.1.4.1.5v.1c-.1.3 0 .5-.1.8-.1.4.2.7.1 1.1-.1.3 0 .5.1.8v.1c0 .2.1.2.2.2s0-.1 0-.2c0-.2.1-.4-.1-.5v-.1c.2-.3.1-.6.1-.9 0-.2-.1-.4 0-.6 0-.3-.1-.6 0-.9v-.3c0-.1-.2-.1-.1-.1 0-.2.1.1.2 0v-.3c0-.1 0-.2-.1-.1-.1-.1-.2 0-.2 0 0-.1 0-.2-.1-.2 0 0-.1-.1 0-.1.2 0 .1-.2.1-.3h-.1c-.1-.3-.1-.4-.2-.4zm.2.1zm1.5 42.8c.1 0 .1-.1.1-.2 0 0-.1-.1 0-.1.1-.2 0-.5 0-.7 0-.3-.1-.6-.1-.8V71c0-.2-.1-.4-.1-.6v-.6c0-.2-.3-.3 0-.5-.1-.1 0-.2 0-.2 0-.1.1-.1 0-.2s-.1.1-.2 0c0-.1-.1-.3.1-.4 0 0 .1-.1 0-.1-.1-.1 0-.2 0-.3-.1 0-.1.1-.2.1s-.1 0-.1.1c.1.3-.1.5.1.8v.3c0 .2 0 .4.1.5 0 .1.1.2 0 .3-.1.1-.1.2.1.2v.1h-.1c-.1 0-.1 0-.1.1 0 .3.2.6 0 .9 0 .1 0 .1.1.1.1.1.1.1 0 .2 0 0-.1.1 0 .1 0 .3.1.5.1.8v.1c.1 0 0-.1.1-.1 0 .1.1.2-.1.3-.1 0-.1.2 0 .2 0-.1.1-.1.2-.1zm-.7-8.3c0 .1.2 0 .1 0 0-.1.2-.2.1-.4s0-.4 0-.6v-.6c0-.1-.1-.1-.1-.2.2-.2.1-.4 0-.5 0-.2.1-.3-.1-.5.1-.1 0-.3.1-.5.1-.1-.1-.2-.1-.3h-.1c-.1.1-.1.1-.1.2v.5c0 .1 0 .1.1.1.2 0 .1.1.1.2s-.1.2 0 .2c.1.1 0 .1 0 .2v.3c.2 0 .1.1.1.2s-.1.2 0 .2c0 0 .1.2 0 .2-.1.1-.1.3.1.4 0 0 .1 0 .1.1 0 0 0 .1-.1.1s-.1 0-.1.1.1 0 .1 0c0 .1-.1.1-.1.2-.2.2-.2.3-.1.4zm0-5.9zm0-.5c.1-.1.1-.2.1-.3 0-.3-.1-.6 0-.8v-.6s0-.1-.1-.1c0 0-.1.1-.1 0v-.1c.1 0 .1-.1.1-.2 0-.2-.1-.3 0-.5 0 0 .1-.2-.1-.2-.1.1 0 .4-.2.4v.1c.1.2.1.3 0 .4-.1.2.3.3 0 .4h.1c.1 0 .1.1 0 .1-.1.3 0 .6 0 .8v.6c0 .1 0 .2.1.2 0 .1-.1 0-.2.1.1 0 .1.1.2.1.1-.1.3-.2.1-.4zm1 19.3c-.1 0-.1-.1-.1-.2s.1-.1.1-.1v-.1c-.1-.1 0-.3 0-.4-.1-.3 0-.6 0-.8v-.4c.1-.3-.1-.5 0-.8 0-.1 0-.1-.1-.1-.1-.1-.2-.2-.2-.3v.3c-.1.3.4.4.1.7.1.2-.1.4.1.6-.1.1.1.2 0 .3-.1.1 0 .2 0 .2 0 .2.1.3 0 .5-.1.4-.1.5.2.6-.2.1-.1.1-.1 0zm-.1.2zm.3 7v.1c.1 0 .1-.1.1-.1 0-.1 0-.1-.1-.2 0 0-.1-.1-.1-.2.1-.1.1-.2.1-.4-.1-.2-.1-.4-.1-.6 0-.4-.2-.8-.1-1.2v-.2c-.1-.2-.2-.4 0-.5v-.1c0-.2-.2-.2-.3-.3v.1c0 .1.2.2.1.4v.3c-.2.2 0 .2.1.3v.4c-.1.4 0 .7 0 1.1 0 .1-.1.3 0 .3.1.1 0 .3 0 .4 0 .1 0 .2.1.2.2.1.3.1.2.2zm-1-17.7c0 .2.2 0 .2.1h.1c-.1-.1 0-.4-.3-.4.2.1.2 0 .2-.1-.1-.2 0-.5 0-.7 0-.3 0-.5-.1-.8 0-.1-.2-.2-.3-.2-.1 0 0 .1 0 .2v.1c-.1.1 0 .2 0 .2-.1.1.2.2.1.2-.1.1-.1.1 0 .2 0 .1.1.2.1.3-.2.3 0 .6 0 .9zm-.3-6.4c.1 0 0 0 0 0 0 .1-.1.2 0 .2.1.1 0 .1 0 .1-.1 0-.1 0-.1.1s.1.1.1.1c.1-.1.2-.1.2-.3 0-.2-.1-.3 0-.5v-.7c0-.1 0-.2-.2-.1.2-.3.2-.5.1-.7 0 .1 0 .1-.1.1-.2 0-.2.1-.2.2 0 .4.1.8 0 1.1.1.1 0 .3.2.4zm.1-1.9zm.8 20.3c0 .2 0 .4.1.6v.1c-.2 0 0 .1-.1.2 0 .1.1.2 0 .2-.1.1 0 .3 0 .4 0 .1.1 0 .2.1.1 0 0 0 .1-.1 0-.1 0-.1-.1 0h-.1c.1-.2-.1-.4.1-.5.1-.1.2-.2 0-.3-.1 0-.1-.1 0-.1.2-.1 0-.3.1-.5 0-.4-.1-.8-.1-1.2-.2.2-.2.4-.3.6v.1c.1 0 .1.2.1.4zm.1-1.3zm-1.2-40.6c0-.2-.1-.5 0-.7v-.1c-.1-.2-.2-.4-.2-.6h-.1v.9c0 .1.1.3 0 .4v.1c.1.1.1.2 0 .3.2.1.3 0 .3-.3zm-.3-1.4zm2.3 14.6c0 .6.2 1.2.2 1.9.1 0 0-.1.1-.1 0 .1 0 .1.1.3 0-.1.1-.1.1-.2-.1-.2-.1-.4-.1-.6 0-.1.1-.2-.1-.3.1-.1 0-.3 0-.4 0-.4-.2-.4-.3-.6zM26 28.8zm-.1.3c-.1.2-.1.4 0 .5v.4c-.1.1-.1.2-.1.4l.1.1c-.1.2.1.3.2.4 0-.1 0-.1.1-.2.1-.3-.2-.6.1-.8v-.1c0-.2-.1-.3 0-.5 0-.2 0-.3-.1-.5-.3.1-.4.1-.3.3zM28 87.8c.1-.1 0-.1 0-.1v-.1c0-.1.1-.2 0-.3-.1-.1-.1-.2 0-.2.1-.1 0-.1 0-.2 0-.2-.1-.5 0-.8 0-.1 0-.2-.1-.3-.1 0-.2.1-.2.2.1.2.1.5 0 .7v.1c.1.2.1.4.1.6 0 .2.2.2.1.4 0-.1 0 0 .1 0zm-.2-.1zm-.5-13.1c.1 0 0-.1 0-.2 0-.4 0-.8-.1-1.2V73h-.1c-.1 0 0 .1 0 .1v.2c-.1.4-.1.7.1 1.1 0 .2 0 .2.1.2zm-1.1-47.3c0-.2.1-.4 0-.6v-.1c.3-.2 0-.5.1-.7.1-.1-.1-.1-.1-.1s-.1-.1-.1 0v.1s.1.1 0 .1c-.2.1-.1.2-.1.4 0 .3-.1.6-.1 1 .2-.1.3 0 .3-.1zm5.6 27.1c.2-.2-.1-.4 0-.7 0-.1 0-.1-.1-.2 0 0 0-.1-.1-.1s0 .1 0 .1c0 .1 0 .1-.1.2 0 .1 0 .3.2.3v.1c-.2.1 0 .2 0 .2 0 .1.1.1.1.2 0 .2 0 .3.2.3-.1 0 0-.2-.2-.4zm-5.9-18.5zm.1.1c0-.2.1-.5 0-.7l-.1.1c0-.1 0-.1-.1-.2h-.1v.1c.1.1.1.2 0 .3v.1c.1.1.1.2.1.3h.2zm2 55c.2-.3.2-1-.1-1.3v.1c.1.2.1.4.1.6-.1.2-.1.5 0 .6zm0-1.3c.1-.3 0-.5 0-.8 0-.1.1-.2-.1-.3 0 0 0-.1-.1 0v.1c.1.1-.1.3 0 .4-.1.3.2.4.2.6zm-1.8-66s-.1.1 0 0c.1.2.1.4.1.6 0 0 0 .1.1.1v-.1c0-.3.1-.6.1-.9-.2.1-.3.2-.3.3zm1.6 61.5c0-.1-.1-.1-.2-.1h-.1c0 .1 0 .1.1.2.1 0 0 .1 0 .1 0 .1-.1.2 0 .3.1 0 .1.1.2.1.1-.2 0-.4 0-.6zm1-32.1c0-.2 0-.3-.2-.2 0 .2.1.3.1.5v.1c-.2 0-.2.1-.1.2 0-.1 0-.1.1-.2s.2-.1.1-.2-.1-.2 0-.2zm-2.1 14.8c.1.1.1-.1.2-.1s0-.1 0-.1c.1-.2 0-.3-.3-.4.1.1.1.2 0 .3 0 .1 0 .2.1.3zm1.1 19.8zm.2.5c0-.2-.2-.3-.2-.4-.1.1-.1.6 0 .7h.1c0-.2.1-.2.1-.3zm.1 5.8c.1-.2.1-.5-.1-.7 0 .2 0 .5.1.7zm1.4-30.4c.1-.1 0-.1 0-.2s-.1-.2-.1-.3l-.1.1c.2.1.1.3.1.4h.1c-.1 0-.1 0 0 0zm.4 4.9c.1 0 .1 0 0 0 0-.2 0-.3-.1-.4h-.1c0 .1.1.4.2.4zm.1 1.6c0-.1-.2-.2 0-.3v-.1s0-.1-.1 0c0 0-.1 0-.1.1 0 .2 0 .4.1.5.1-.1.1-.1.1-.2zm-.5-6.2c-.1 0-.2 0-.1.1 0 0 .1.1 0 .2v.1c.1 0 .1-.2.1-.3.1 0 .1-.1 0-.1zm-2.2 17c.2-.1.1.1.1.2s0 .1.1.2c0-.2-.1-.4-.1-.6 0 0-.1-.1-.1 0v.2c-.1 0 0 .1 0 0zm.9 12.1c0-.1 0-.2-.1-.2s0 .2-.1.3v.1c.1-.1.3 0 .2-.2zm-.1-.6v-.3c0-.1 0-.1-.1-.1v.1c-.1.2.1.2.1.3zm-2-44.7c.1-.1.2-.3 0-.5 0 .2-.1.4 0 .5zM28 91.8c.2 0 .1-.1.1-.2 0 0 0-.1-.1-.1s0 .1 0 .1c-.1.1 0 .2-.1.4l.1-.2zm2.1-20.2c.1-.1 0-.3 0-.4-.2.1-.1.3 0 .4-.1.1 0 0 0 0zm3.1-12.5c.1.1.1.2.1.3 0 .1.1.1.1.1s.1 0 .1-.1c-.1-.2-.2-.3-.3-.3zm0-.4c0-.1 0-.1-.1-.2 0 0-.1 0-.1.1v.2c.1.1.1.1.2.1.1-.1 0-.1 0-.2zM26 27.5c-.1.1.1.1.1.2 0 0 0 .1.1.1v-.1c0-.1.1-.2 0-.2H26zm.2-1.8c0 .1 0 .1.1.1s.1 0 .1-.1v-.2c-.2 0-.1.1-.2.2 0-.1 0-.1 0 0zm3.9 46.7c.2-.1 0-.3.1-.4-.2.2-.2.3-.1.4zm-3.7-49.1c.1 0 .1.1.1.1 0-.1 0-.2-.1-.3-.1-.1-.1.1-.2.1 0 .1 0 .2.2.1zm-.2-.1zm2.9 36.5c-.1.1-.2.2 0 .4-.1-.1.1-.2 0-.4zM26 28.1s.1.1.2 0 0-.2 0-.2c-.1.1-.3.1-.2.2zm3.4 34.5c0-.1-.1-.1 0 0-.2-.1-.2 0-.1 0 .1.1 0 .2 0 .3.1-.1.1-.2.1-.3zm-.8-7.6c0 .1 0 .2.1.3 0-.3 0-.3-.1-.3zm-2.2-32.4c.1-.1.1-.2.1-.3 0 0 0-.1-.1-.1s-.1.1 0 .1v.3zm2.1 30.2zm0-.3c-.1.2-.1.2 0 .3 0-.1.2-.2 0-.3zm-2.2-27.9c0 .1.1.1.1.2V24.5c-.1 0-.1 0-.1.1-.1 0 0 0 0 0zm3.3 40s0-.1 0 0c-.1-.1-.1 0 0 0-.1.1 0 .2 0 .3.1-.1 0-.2 0-.3zm40.6-41.8v-.2c-.1 0-.1-.2-.2-.3 0-.1-.1-.1-.1-.1-.1 0-.1.1-.1.1-.1.2-.1.5.1.7v.1c0 .3.1.5.3.7 0 0 .1.1 0 .1v.1c.1 0 .1-.1.1-.1-.1-.2.1-.3-.1-.5.1-.1 0-.2 0-.3 0-.1.1-.3-.1-.4 0 .2 0 .1.1.1zm2.9 41.7c.1 0 .1-.1.2-.2 0-.2 0-.3.2-.4.2-.2.2-.5.3-.7v-.1c0-.1 0-.2-.1-.2s-.1.1-.1.2 0 .2-.1.3c-.2.1-.2.2-.1.3 0 .2-.1.1-.2.2s-.1.2-.1.3c-.1.1 0 .2 0 .3zM70.7 21v.5c0 .1.2.2.1.4 0 0 0 .1.1.1.2-.1.1-.3 0-.5 0-.2-.1-.2 0-.4s.1-.6.1-.8c-.1 0 0 .1-.1.1v-.1c0-.1 0-.1-.1-.1s-.1.1-.1.1v.7zm3.4 40.8zm-.2-.1c-.1 0 0 .1 0 .2 0 .2 0 .4-.1.5-.1.2-.1.5 0 .7.1 0 .1-.1.1-.2.1-.3.1-.5.2-.8v-.3H74s0-.1-.1-.1zm-3.1-36.2zm.2-.1v-.8h-.1v.2c.1.1.1.1 0 .2v.1c.1.1 0 .3 0 .4 0-.1.1 0 .1-.1zm-.1 2.7c0 .2 0 .3-.1.5v.2c0 .1.1 0 .1 0-.1-.1.2-.3 0-.4v-.1c0-.1 0 0 .1 0s.1 0 .1-.1 0-.2-.2-.1c0-.1 0-.1 0 0zm-1.3-.3c.1 0 .2 0 .1-.1-.1-.2 0-.4-.1-.7-.1.1-.1.1-.1.2 0 0 .1-.1.1 0 0 0 0 .1-.1.1s-.1 0 0 .1 0 .2 0 .3c0 .1 0 .1.1.1zm-.5-2c0 .1.1.2 0 .3 0 .1 0 .1.1.2.1 0 .1 0 .1-.1s.1-.1 0-.2c-.1 0-.1-.1 0-.2 0-.1.1-.1.1-.3-.2.1-.3.1-.3.3zm1.9 6.1c-.1.1 0 .2 0 .3 0 0-.1.1 0 .1h.1c.1 0 .1-.1.1-.1-.1-.1-.1-.3-.2-.3zm-.2-5.1v.3c0 .1 0 .1.1.1 0 0 .1 0 .1-.1s-.1-.2-.1-.4c0 0 0 .1-.1.1zm-1.4-4.1c.2-.2.1-.4 0-.5 0 .1-.1.3 0 .5zM71 33.8s.1 0 0 0c0-.2.1-.4.1-.5 0 .1-.2 0-.1.2 0 .1.1.2 0 .2v.1zm-1.9-8.7c0 .1 0 .2.1.3 0-.1 0-.2.1-.2 0-.1 0-.1-.1-.2-.1 0-.1.1-.1.1zm.3-2c0 .2.1.4.1.6.1-.2.1-.4-.1-.6zm1.6 7.8c0-.2.1-.4-.1-.5.1.1-.1.3.1.5zm.8 19.2c0 .1 0 .2.1.2s.1-.1.1-.1c-.1-.1 0-.2-.1-.2-.1-.1 0 .1-.1.1zm-1.5-27.5c0-.2-.1-.3-.1-.6-.1.3 0 .5.1.6zm.7 12.8c.1 0 0 .1 0 0 .1.1.1 0 .1 0 .1-.1 0-.2-.1-.3.1.1 0 .2 0 .3zm.8 13.5v.2c.1-.1.1-.2 0-.2zm0 .5c.1-.1.1-.2 0-.3 0 0-.1.2 0 .3zm-.9-21.8c.1-.1.1-.2.1-.3-.1 0-.2.1-.1.3-.1 0 0 0 0 0zm0-4.3-.1.1s0 .1.1.1c0 0 .1 0 .1-.1 0 0 0-.2-.1-.1zm0 6.7c.1 0 0-.2.2-.1v-.1c-.1 0-.1-.1-.2-.2v.4zm0-5.8c0-.1 0-.1 0 0-.1.1-.1.1-.1.2s0 .1.1.1 0-.1 0-.1c.1-.1.1-.2 0-.2zM72 51.3s0 .1.1.1 0-.1 0-.1c0-.1-.1-.1-.1-.1-.2-.1 0 0 0 .1zm-.9-20c-.1-.1-.1-.1-.1 0v.2s0 .1.1.1c0 0-.2-.2 0-.3zm-.1-2V29c0-.1 0-.1-.1-.1h-.1v.2c.2 0 .2.1.2.2zm0 4.7c0 .1-.1.2 0 .3.1-.1.1-.1.1-.2.1 0 0-.1-.1-.1.1 0 0 0 0 0zm0 .8s0 .1.1.1.1-.1.1-.2v-.1l-.2.2zm1 16.3zm-.1-.4c-.1.1 0 .1 0 .2s.1.1.1.2v-.2c0-.1 0-.1-.1-.2zm-.6-10.3v-.1.1c-.1 0-.2.2-.1.3 0-.1.1-.2.1-.3zm-2-13.7c0 .1 0 .1.1.2s.1 0 .1-.1 0-.2-.2-.1c0-.1 0-.1 0 0zm-36-6.2v-.1h-.1c0 .1-.1.2.1.4-.1-.2-.1-.2 0-.3zm38 22.5s0-.1 0 0c-.1 0-.1 0 0 0 .1.1 0 .2.1.3 0-.1 0-.2-.1-.3zm17-3.9c-.2.1-.2.1-.1.3.1.1.2.4 0 .5-.2.2-.1.4-.1.6 0 0 0 .1.1.1s.1-.1.2 0c0 .1 0 .1-.1.1 0 0-.1 0-.1.1 0 0 0 .1.1.1s.1 0 .1.1c-.1.1 0 .2 0 .3v.1c-.1 0-.1 0-.1.1s0 .1.1.1c.1.1.1.2.1.3-.1.1-.1.2-.1.4v2.9c0 .1 0 .3.1.4 0 0 .1.1 0 .1s-.1.1-.1.2c.1.1-.1.3.1.4-.2.2 0 .4 0 .6 0 .3.1 0 .2.1-.1.3.1.6.1.8-.1 0 0-.1-.1-.1v.1c0 .2.1.4 0 .6 0 .1.1.2 0 .3 0 0-.1.1 0 .1s.1 0 .1-.1v-.2c-.1-.5 0-.9 0-1.4 0-.2.1-.4-.1-.5-.1 0 0-.1 0-.1 0-.1 0-.1.1-.1.2 0 .2 0 .1-.2v-.1c.1-.2.2-.3 0-.5-.1 0 0-.1 0-.1.1-.1.2-.1 0-.2.1-.1-.1-.1-.1-.2.1-.3-.1-.6-.1-.9 0-.2-.1-.3-.1-.5s.1-.4-.1-.6V43c.1 0 .1-.1.1-.2s-.1-.1-.2-.1c.1-.1.1-.1.1-.3v-.1s.1-.1 0-.2c-.1-.3.1-.6-.1-.8v-.1c.1-.3.2-.7-.2-.9.2 0 .3-.1.2-.2v-.2c0-.4 0-.6-.1-.8.1 0 .1 0 0 0zm.5 17.9c0-.4.1-.7-.1-1.1 0 0-.1-.1 0-.1h.1c.1.1.1 0 .1 0 0-.1 0-.1-.1-.1s-.1-.1-.1-.1c.1 0 .1 0 .1-.1-.1-.1-.1-.2 0-.2v-.1c-.1-.5 0-1-.1-1.5-.1-.2-.1-.4 0-.6V53c-.2-.2.1-.5-.2-.7.1-.1 0-.3 0-.4 0-.1-.1-.2 0-.4 0-.1.1-.1 0-.2-.1 0-.2 0-.2.1 0 .2-.1.4 0 .5.2.2 0 .3 0 .4.1.2.1.2 0 .4v.1c.2 0 .1.1.1.2s.1.2-.1.3v.1c0 .1.1.1.1.2 0 .2-.1.4 0 .6 0 .1 0 .1.1.1v.2c-.1 0-.1.1-.1.2v.2c-.1.4 0 .7 0 1.1v.8c0 .1.1.2.1.3-.1.2 0 .4 0 .6v.8c0 .3 0 .5.2.7.1-.1 0-.2 0-.2 0-.1-.1-.2 0-.2.1-.2.1-.3 0-.5 0-.1-.1-.2 0-.2.2-.1.1-.3.1-.3-.2-.4 0-.6 0-.8zm-6.2-14.3c0-.1.1-.4-.1-.5-.1.2-.1.4-.2.5-.1.2-.1.3-.2.5-.1.1-.1.3-.2.5 0 0-.1.1 0 .1 0 .1 0 .2-.1.2s-.1.1-.1.2c-.1.2.1.4-.2.5v.1c-.1.3-.4.6-.3 1-.2 0-.1.2-.2.3-.1.3-.3.5-.3.8 0 .1-.1.2-.2.4 0 .1 0 .2.1.2h.1c0-.1 0-.2-.1-.2.1 0 .3-.2.3-.4 0-.1 0-.3.1-.3.2-.2.4-.3.3-.6v-.1c.2 0 .2-.1.2-.2s0-.3.1-.3c.1-.1.1-.2.2-.3 0-.2.2-.4.3-.6 0-.1.1-.3.1-.4.1-.1.2-.3.3-.4.1-.2 0-.2-.1-.2.1-.3.1-.6.2-.8zm29.1-12.9c.1 0 .1 0 0 0-.1-.1-.1-.1-.1-.2s.1.1.1 0c0-.3.1-.6.1-.9 0-.2.2-.4-.1-.5.2.1.2 0 .2-.1s.1-.3.1-.4c0-.2 0-.5.1-.8.1-.2 0-.4 0-.6h-.1c-.2 0-.2 0-.2.3v.2c.1.2-.1.2-.2.3v.6c0 .1 0 .2.1.2.1.1.1.1-.1.2 0 0-.1 0-.1.1 0 .2-.1.3-.1.4 0 .2-.1.4-.1.6-.1.3 0 .5.2.7.1 0 .2 0 .2-.1zm.6-3.6zm.1-.2v-.2c.1-.1.1-.1 0-.2s-.1-.4 0-.5c.2-.1.1-.2.1-.3 0-.2.1-.5-.1-.6.1-.1.1.1.2 0v-.1c0-.1-.1-.1 0-.1s.2-.4.1-.5c-.2 0-.1-.1-.1-.2v-.1c-.1-.1 0-.2 0-.2.1-.1.1.1.2.1v-.3c.1-.3.1-.4-.2-.6 0 .2 0 .2.1.3v.1c-.2.1-.1.2 0 .3v.1c-.3.1-.2.4-.2.6 0 .2 0 .4-.1.5-.1.3-.2.7-.1 1v.1c-.2.3 0 .6-.1.9 0 0 0 .1.1.1 0 0 .1 0 .1.1-.1.1.1.2.1.2-.1-.3-.1-.4-.1-.5zm-3.9.3c0 .1-.2 0-.1.1v1.2c0 .2.1.4 0 .6 0 .1 0 .3.1.3s.1.1 0 .2l-.1-.1c-.1 0 0 .1 0 .1 0 .1.1.2 0 .2-.1.2 0 .2.2.1 0 0 0 .1-.1.1s-.1 0-.1.1v.7c0 .1 0 .2.1.2s.1-.1.1-.1v-.3c0-.5-.1-.9 0-1.4v-.1s-.1-.1 0-.1c.1-.1 0-.2.1-.3 0-.1-.1-.3-.1-.4.1-.2 0-.4.1-.6v-.2c-.2-.1-.2-.2-.2-.3.2-.3 0-.5-.1-.7 0 .2 0 .3-.1.5 0 .1.1.1.2.2zm-22.4 8.5c-.1 0-.2-.1-.3-.1.1-.1.2-.2.2-.4.1-.3-.3 0-.3-.2v.5c0 .1-.1.3.1.3v.1c-.1 0-.1.1-.1.1 0 .2.1.3.1.4-.1.2 0 .5-.1.7.1 0 .1-.2.2 0 .1.1 0 .2-.1.2 0 0-.1 0-.1.1s0 .1.1.1l.1.1c-.2.1 0 .2 0 .3 0 .1 0 .2-.1.2-.1-.1 0-.2-.1-.2 0 .4-.2.9.1 1.3.1-.1 0-.3.1-.4.1-.2 0-.5-.1-.6.3 0 .3-.2.2-.3v-.2c0-.1.1-.3.1-.4v-.5c0-.2 0-.4-.1-.5 0 0-.1-.1 0-.1-.1-.3-.1-.5.1-.5zm-.4 15.8s.1 0 .1-.1c.1-.1 0-.1 0-.1s-.1-.1 0-.1c.2-.1.1-.2 0-.3-.1-.1-.1-.2 0-.2.2 0 .1-.2.1-.3 0-.1-.1-.1 0-.1s.1-.1.1-.1c-.1-.3-.1-.6-.1-.8v-.1c-.1 0 0 0 0-.1 0-.2.1-.4 0-.6-.1-.1-.1-.2-.1-.2 0-.1 0-.1.1-.2.1-.2-.1-.1-.1-.1.1-.1-.1-.2 0-.4.2-.2.1-.4.1-.7l-.1.1c-.1-.1-.1-.1-.1 0-.1.1 0 .2.1.3.1.1-.1.2-.1.3.1.1 0 .1 0 .2-.1.3-.1.7.1 1v.1c-.1.1-.1.2-.1.3.1.2.2.5.1.8 0 .1.1.2.1.3-.1.3 0 .7 0 1-.2 0-.3.1-.2.1zm-.9-18.8zm-.3.1c0 .2-.1.5.1.7 0 .1.1.1 0 .2-.2 0-.1.1-.1.2v.1c-.1.2 0 .4-.1.7 0 .2.1.4 0 .7v.1c.1.1 0 .2 0 .3-.1.2 0 .2.1.2l.1-.2c.1-.3.1-.7.1-1.1 0-.1.1-.2.1-.3 0-.2 0-.4-.1-.6v-.1c.1-.2.1-.4 0-.5-.1-.1 0-.1 0-.2 0-.2.2-.3.2-.4-.2.1-.3.1-.4.2zm1.4 9.7c-.2.1-.1-.2-.2-.2 0 .3-.1.6.1.9v.1c-.1 0-.1.1-.1.2 0 .2.1.3 0 .5-.1.1-.1.2 0 .2.1.1 0 .2 0 .2-.1.1 0 .2 0 .4.1 0 0 .2.2.2.1 0 .1 0 .1-.1-.1-.2 0-.4 0-.5.1-.1-.2-.1-.2-.2s.2-.1.2-.2c0-.2-.1-.5.1-.8 0-.3-.2-.5-.2-.7zm-.2-8.4c0 .2-.1.4.1.6 0 0 .1.1.1 0 0 0 .1-.1 0-.1l-.1-.1c-.2-.1-.1-.2 0-.3.1.1-.1.1 0 .2h.1c.1-.1.1-.1 0-.2s0-.1 0-.2c.1-.1.1-.2 0-.3 0-.1-.1-.3-.1-.4s.1-.3 0-.5v-.1c.2-.1 0-.3 0-.4 0-.1-.1-.2-.1-.3-.1.1 0 .2-.1.3v.1c.1.1.1.1 0 .2v.1c.1.2 0 .3 0 .5 0 .1-.1.2.1.3v.1c.1.1 0 .3 0 .5zm-2.6 7.4c-.1.5-.3.9-.5 1.4-.1.1 0 .2.1.2.3.1.2-.2.2-.3 0-.2 0-.3.2-.4.1 0 0-.2.1-.2.2-.2.2-.4.2-.7 0-.1 0-.2-.1-.2-.2 0-.2.1-.2.2zm2.4 5.4c0 .1.1.1.2.1 0 0 .1-.1 0-.1s0-.1 0-.1c.1-.1.1-.2.1-.3 0-.1-.2-.3 0-.4v-.6c0-.1.2-.3-.1-.2v-.1c0-.1 0-.1-.1-.2 0 .3 0 .6-.1.9 0 .2.1.3 0 .5-.1.1 0 .3 0 .5zm.1-6.4c.1 0 .1 0 0 0 0 .3 0 .6.1.9 0 .1-.1.2 0 .2s0-.2.1-.2c0 .1 0 .2-.1.3-.1.2-.1.3-.1.5 0 .1.2.1.2.1.1 0 .1-.1 0-.2 0-.1-.1-.1 0-.2s0-.3 0-.4c0-.2-.1-.4 0-.5 0-.1 0-.2-.1-.3 0 0-.1.1-.2 0 0-.1.1-.1.1-.1v-.2c0-.1-.1-.1-.2-.1.2 0 .2.1.2.2-.1 0 0 0 0 0zm-2.2.4v.2c0 .1 0 .2-.2.2-.2-.1 0-.3-.1-.4.1 0 0 .1.1.1 0-.3 0-.6.1-.9.1 0 0 .1.1.1 0-.1-.2-.3 0-.4l.1.1c.1 0 .1.1.1.2 0 .2-.1.5-.2.8zm4.9-6c0-.1-.1-.2-.2-.2s-.1.1-.1.2v.9c.1.1.1.1 0 .2v.2c.1 0 .1 0 .1-.1s.1-.3.1-.4c0-.2-.1-.4-.2-.5h.1c.2-.1.2-.2.2-.3zm24.5-12.2c0 .2.1.2.1.3.1-.1.2-.3 0-.4 0-.1.2-.1.1-.2-.1-.2 0-.4 0-.6 0-.2 0-.2-.1-.2s-.2.1-.1.2 0 .2 0 .3c-.1.2 0 .4 0 .6-.1-.1-.1 0 0 0zM84.4 36.1c0-.2 0-.3-.1-.4-.1.1.1.2 0 .3-.2.1-.1.3-.2.5-.1.1-.1.3-.1.5h.1v-.1c.2 0 .2 0 .1-.1 0-.1-.1-.2-.1-.2 0-.1 0-.1.1-.1 0 0 0 .1.1 0v-.2c0-.1-.1-.1-.1-.2h.2zm3.6-3.8c.2-.2.1-.5.2-.7v-.1c-.2-.2-.1-.4 0-.6-.1.1-.2-.1-.2.1v.5c0 .4.2.6 0 .8zm.2 4.3c.1-.1 0-.3 0-.5 0 0 0-.1-.1-.1s-.1 0-.1.1c-.1.2.1.4-.1.7 0 .1 0 .1.1.2.1 0 .1.1 0 .2 0 0-.1.1 0 .1s.1-.2.2-.1v-.1c0-.1-.1-.2 0-.5zm-2.5 2.5c0 .1 0 .1.1.2 0 0 .1 0 .1-.1s-.1-.1-.2-.1c0-.1 0-.2.1-.2 0-.1.1 0 .1 0 0-.1 0-.2-.1-.2 0-.1.2 0 .2-.1 0-.2-.2-.2-.3-.3.1.2 0 .3 0 .4-.2.2 0 .3 0 .4zm1.9-18.6c-.1 0-.1 0 0 0zm0 .3c-.1 0-.1 0-.2-.1 0 .1 0 .3.1.4.1 0 0 .1 0 .1-.1 0-.1 0-.1.1s.1.1.2.1.1-.1.1-.1v-.1c0-.2.1-.4-.1-.6-.2 0 0 .1 0 .2zm21 10.7c.1-.2 0-.4 0-.5 0-.2-.1-.3 0-.5v-.1c0-.1-.1 0-.1 0v.1c.1.1.1.1 0 .2-.1.2 0 .7.1.8zm-20.5-1.3c-.1.2 0 .4 0 .6 0 0 0 .1 0 0h.1v-.1c-.2-.1-.1-.3-.1-.5.1.1.1.2.1.3.1-.1.2-.5.1-.6h-.1c-.2.1-.1.3-.1.3zm-.7-8.4s0 .1 0 0c0 .1 0 .2.1.2 0 0 .1 0 .2-.1s0-.3.1-.5c-.4.1-.5.2-.4.4zm22.2-.2s-.1-.1-.2-.1 0 .1 0 .1c0 .1.1.3.1.4 0 .1 0 .2.1 0h.1v.1l-.1.1c.2-.1.2-.1.1-.2 0-.1-.2-.2-.1-.4zM88.1 38.5c0 .1.1.2 0 .3-.1.1 0 .2.1.2 0-.2.2-.3 0-.5.3-.1 0-.2 0-.3 0 .1-.1.2-.1.3zm-.2-11.6c.1 0 .1 0 0 0 .1-.2.2-.3.1-.5v-.1c.1-.2.1-.2-.1-.3v.9zm.2 6.6c.2 0 .1.2.1.3.1-.2.1-.6 0-1 0 .1 0 .1-.1.2s0 .3 0 .5zm.1-.7zm-4.1 4.6c0-.1-.1-.1-.2-.2h-.1c0 .1-.1.1 0 .2 0 0 .1.1 0 .1-.1.1 0 .2.1.3.1-.1.2-.3.2-.4zm-3.7 10.5c.1 0 .1-.1 0-.2 0-.1-.1 0-.2-.1-.1 0-.1.1-.1.2s0 .2.2.3c.1-.1 0-.2.1-.2zm7.8-15.6c-.1-.1-.1.1-.2.1-.1.1 0 .3.1.3 0-.1.1-.1.1-.2.1 0 .1-.1 0-.2zm-4.5 6c.2 0 .2-.1.2-.2 0 0 0-.1-.1-.1h-.1c-.1.1-.2.4-.1.5.1-.1 0-.2.1-.2zm2.8-9s0 .1 0 0c.1.1.1 0 .1 0 0-.1.1-.1 0-.2 0-.1-.1-.3-.1-.4-.1 0-.1.2-.1.2.1.1.1.2.1.4zm.3-3.8c-.1 0-.1 0 0 0v.3c0 .2-.1.5 0 .7 0-.3.1-.5.1-.8 0-.1-.1-.1-.1-.2zm0-.3c-.1-.1-.1-.2 0-.3 0-.1.1-.1.1-.2-.2 0-.1.2-.2.3 0 .2.1.4.1.6.1-.2.1-.4 0-.4zm-3.1 13.3zm0 .1h-.1c-.1.2 0 .2.2.3 0-.1-.2-.2 0-.2s.1-.1.1-.1c-.1-.1-.2-.1-.2 0 0-.1 0 0 0 0zm4.3-9.4c.1 0 .2 0 .2-.1 0-.2 0-.3-.2-.3-.1.1 0 .3 0 .4zm-3.4 6.2c0-.1 0-.2-.1-.3 0 0-.1.1-.1.2s.1.2.1.2c.1 0 .1 0 .1-.1zm4.2 24.3v-.2c-.1 0 0 .2-.1 0V59.8h.1c.1 0 0 0 0-.1zM88 20.8c0-.2.1-.3-.1-.5 0 .2-.2.4.1.5zm.2 8.9c-.1-.2.1-.4-.2-.5-.1.2.1.4.2.5zm-1.5 0c0-.1 0-.1-.1-.2 0 0-.1 0-.1.1s0 .3.1.4c0-.1 0-.2.1-.3zm23.3-8v-.3c0-.1 0-.2-.1-.2-.1.2-.1.4.1.5zM88.1 28c0-.1 0-.1 0 0l-.1-.1v.1c0 .1 0 .3.1.4-.1-.2-.1-.3 0-.4zm-2.2 3.1s.1 0 .1-.1-.1-.2-.2-.2c0 0-.1 0-.1.1.1.1.2.1.2.2zm-.1 20.7c.1 0 .1-.1 0 0 0-.2.1-.3 0-.4-.1.1-.1.2 0 .4 0-.1 0 0 0 0zM88 27.1c-.1 0-.1 0 0 0 0 .2-.1.3 0 .4 0-.1.1-.2.1-.2v-.1c0-.2-.1-.1-.1-.1zm-2.3 24.1s.1 0 0 0v-.5c-.1.2-.1.3 0 .5zm2.2-26.5.1.1c.1-.1 0-.2 0-.3 0 0-.2.1-.1.2zm21.6-3.3h.1c.1-.1 0-.1 0-.2 0 0 0-.1-.1-.2 0 .1-.1.1-.1.1 0 .2 0 .2.1.3zm-23.1 5.8c.1-.2.1-.2-.1-.5-.1.3.2.3.1.5zm1.7 1.1c-.2.2-.2.2-.1.4.1-.1-.1-.2.1-.2v.2c.1-.2 0-.3 0-.4zm-1.4 2s-.1 0 0 0c-.1.2 0 .3 0 .4.1-.1 0-.3 0-.4zm2 30.7c.2-.1.1-.2.1-.3 0 .1-.2.2-.1.3zm-.9-38.5c0 .1-.1.1 0 .2.2-.1.1-.2 0-.2.1 0 .1-.1.1-.1v-.1h-.1s-.1 0-.1.1c.1 0 .1 0 .1.1zm20.6 3c0 .1 0 .1 0 0 0 .1 0 0 0 0zm0 0c.2 0 .2 0 .2-.1s0-.1-.1 0c-.1 0-.1-.1-.1-.1-.1.2-.1.2 0 .2z"/></g><path fill="#FFF" d="m107.4 70.8.2-.2c0-.1.1-.1.1 0 .1 0 .2.1.2.1-.1-.1-.2-.2-.3-.2 0 0-.1 0-.1-.1V69.3c0-.1.1-.1.1-.2s.1-.1.1-.2v-.1.1c0 .1-.1.2-.1.3v1s0 .1.1.1.1.1.2.2v-.2c0-.1.1-.2.1-.3l.1-.1c.1-.1.2-.1.3-.1h.2c.2 0 .4.1.5.3.1.1.1.2.1.3.1-.1.1-.2.2-.2V69.9c0-.1 0-.3-.1-.4v-.3s0-.1-.1-.1-.1-.1-.2-.1l-.1-.1v-.1l.1.1s.1.1.2.1c0 0 .1 0 .1.1v.6c0 .1.1.2.1.3.1.2-.1.2-.1.3-.1.1-.1.2-.2.2l.1-.1.1-.1h.1s0 .1.1.1c.1.1.2.1.3.2 0 .1-.1.1-.1.2v-.2c-.1 0-.1-.1-.2-.2h-.1c-.1.1-.2.2-.2.3v.2c.1 0 .1.1.2.1s.1.1.1.2.1.2.1.3v.1c-.1.1 0 .2-.1.3v.1-.5c-.1-.1-.1-.2-.1-.3 0 0 0-.1-.1-.1s-.1-.1-.2-.2h-.1l-.1.1v.1c.1 0 .1.1.2.2s.1.1 0 .2v.5c0 .1 0 .2-.1.3l-.1.1c-.1 0-.1.1-.1.2-.1.1-.1.2-.2.3h-.1v-.1c0-.1.1-.1.1-.2s.1-.2.2-.3c0-.1.1-.1 0-.2v-.4c0-.1 0-.1-.1-.2l-.1-.1v.2c0 .1-.1.2-.2.2s-.2-.1-.3-.2v-.2s-.1 0-.1.1l-.1.1V72.4c.1.1.1.2.2.3v.1h-.1c-.1-.1-.1-.2-.1-.2s0-.1-.1-.1l-.1-.1v-.7c0-.1.1-.1.1-.1s.1 0 .1-.1v-.1c-.1.1-.3.2-.4.4v.1c0 .2 0 .4.1.5v.1s-.1 0-.1-.1c0 0 0-.1-.1-.1v-.6l.2-.2c.1-.1.2-.1.3-.2.1-.1.1-.1 0-.1 0-.1-.1-.1-.1-.2s-.1-.1-.2-.1-.2-.1-.2-.1c.2-.1.2 0 0 0l.1.1v.2-.1c0-.1 0-.1-.1-.2z"/><path fill="#FFF" d="M108.4 32.2c0-.2 0-.4-.1-.6h.2c.1.2 0 .5.1.7 0 .6.1 1.1.1 1.7v.9c0 .1 0 .2-.1.2s-.1.1-.2 0l-.1-.1c0-.3 0-.6.1-1v-.6c-.1-.4 0-.8 0-1.2zm.3 33.4c-.1-.2.1-.5-.1-.7v-.1c.1-.1 0-.3.1-.4 0-.1 0-.1-.1-.1s-.1.1-.1.1v1.3c0 .2 0 .4.1.6v.2c0 .3-.1.7 0 1 0 .1.1.3 0 .5 0 .2.1.3.1.4.1-.2.1-.4 0-.5-.1-.1-.1-.2 0-.2v-.1c0-.2-.2-.3 0-.5-.1-.2 0-.3 0-.5v-.2c0-.1-.1-.2-.1-.3-.1-.2.1-.3.1-.5zm-.1-22.9c0-.1.1-.2.1-.4v-.7c0-.2-.1-.5 0-.7 0-.4.1-.8 0-1.3V39c0-.3 0-.5-.1-.8-.1.1-.1.2-.1.4v2.8c0 .3.1.6 0 .9-.1.1 0 .3.1.4zm-.3 5.9c.1.1 0 .1 0 .2 0 .3.1.5.1.8V52c0 .1 0 .2.1.2.1-.1 0-.2.1-.3.1-.3-.2-.5 0-.8v-1.3c0-.4-.1-.7-.1-1.1.1-.1 0-.1-.2-.1zm.6 21c0-.2 0-.4-.1-.6.1-.2 0-.3-.1-.5-.1.1-.1.3-.1.4.1.3 0 .5 0 .8 0 .1 0 .2-.2.3-.2.1-.2.2-.2.4 0 .1 0 .2.1.2s.2 0 .3-.1c.2-.3.3-.6.3-.9zm-.4-32.1c.2-.2.2-.5.2-.8v-1.4c0-.1 0-.2-.1-.2s-.2.1-.2.2v.1c0 .3 0 .7.1 1v.7c-.1.1-.1.3 0 .4zm-.1 22.9v.9c0 .4.1.8 0 1.2 0 .1 0 .3.1.4 0-.2.1-.3.1-.5 0-.3.1-.7-.1-1-.1-.2 0-.3 0-.5 0-.3-.1-.6-.1-.8v.3zm.1-.2zm-.1-15s.1 0 0 0c.1-.2.2-.3.2-.5-.1-.5.1-.9 0-1.3v-.1c0-.1 0-.2-.1-.2s-.1.1-.1.2c.1.3 0 .5 0 .8-.1.3 0 .6 0 1.1-.1-.1-.1 0 0 0zm-.1 2.6s0 .1.1.1.1-.1.1-.1v-.1c0-.4-.1-.9 0-1.3v-.3c0-.1-.1-.1-.2-.1v1.3c0 .1.1.3 0 .5zm.2 5.9c0 .1-.1.1-.1.2v1.3c0 .1 0 .1.1.1V53.9c.1 0 .2-.2 0-.2zm.1 6.3c-.1-.2-.1-.5-.1-.7V59c0-.1 0-.1-.1-.1 0 .3 0 .7.1 1 0 .1.1.2.2.3-.1-.1-.1-.2-.1-.2zm-.1.2zm0 3.8c0 .1 0 .1.1.1s.1-.1.1-.2-.1-.2 0-.3c0-.1-.2-.2-.1-.3h-.1c-.1 0-.1 0-.1.1s.1.2 0 .4c.1.1.1.2.1.2zm-.1-6.9c.1-.4.1-.7-.1-1 .2.3-.1.6.1 1zm0 .9c.1-.2.1-.5.1-.8-.3.2-.1.5-.1.8zm0-10c-.1.2-.1.4-.1.6.2-.2.2-.2.1-.6zm0-2.3c.1 0 .1-.1.1-.2s0-.1-.1-.2c-.1 0-.1 0-.1.1s0 .2.1.3zm.1 6.7c-.1.1-.1.3 0 .4.2-.2.2-.2 0-.4zm0 3.1c-.2.1-.2.1-.1.4.1-.2.2-.3.1-.4zm-.1-17.5c0 .1 0 .1.1.2.1 0 .1-.1.1-.1 0-.1 0-.2-.2-.1 0-.1 0 0 0 0zm.1 15.3c-.1.1-.1.2-.1.3.2 0 .2-.1.1-.3zm0 .4zm-.2 4.9c.2-.1.2-.1 0-.3 0 .1.1.2 0 .3z"/><defs><path id="c" d="M42.4 15.4h52v51h-52z"/></defs><clipPath id="d"><use xlink:href="#c" overflow="visible"/></clipPath><g clip-path="url(#d)"><path d="M93.7 54.6c-.4-.2-.7-.5-1.1-.8-1.3-.9-2.7-1.9-4.1-2.7-1.5-.8-4.1-2.2-5.9-1.7-.5.1-.9.4-1.2.7-.4.3-.8.6-1.3.9-1 .7-1.9 1.3-2.9 2-.7-.9-1.8-1.5-2.9-1.9-1.5-.5-3.1-.6-4.7-.5-.5 0-.9.1-1.3.1v-1.5c0-3-.1-6.1-.2-9.1-.1-3.9-.1-7.9-.2-11.8v-5.9c0-1.3 0-2.7.1-4 .1-.9.1-.8.2-1.6 0-.1.1-.3.1-.4 0-.1.1-.2 0-.4-.1-.7-.9-.8-1.1-.1-.2.7-.2 1.5-.3 2.2-.1 1-.1 2-.1 3v7c0 7.5.2 15 .4 22.5v.1c-1 0-1.9.1-2.8.2-1.1.2-2.2.4-3.3.9-.2.1-.4.2-.7.3-1.2-.7-2.4-1.6-3.6-2.4-.4-.3-.8-.6-1.3-.9-.4-.3-.8-.5-1.2-.7-1.8-.5-4.3.8-5.9 1.7-1.4.8-2.8 1.7-4.1 2.7-.4.3-.7.5-1.1.8-.5.3-.7.7-.7 1.2 0 .2.1.5.2.7.1.2.2.4.4.5.3.1.5 0 .7-.1.4-.2.7-.5 1.1-.7.5-.4 1.1-.8 1.6-1.2 1.2-.9 2.4-1.7 3.6-2.5.8-.5 1.5-1 2.3-1.4.1 0 .2-.1.2-.1h.1c.1 0 .2-.1.2-.1h.1c.1 0 .2.1.3.1.1 0 .2.1.2.1 1 .6 1.9 1.4 2.9 2.1.7.5 1.5 1 2.3 1.4-.5.5-.8 1.1-1 1.8-.9-.6-1.7-1.3-2.6-1.9-.4-.3-.9-.6-1.4-.9-.2-.1-.3-.2-.5-.2-.1-.1-.2-.1-.4-.2-.1-.1-.2-.1-.4-.1h-.2c-.3.1-.5.3-.7.5-.6.6-1.3 1.2-1.9 1.9-.6.7-1.2 1.3-1.9 2-.3.3-.6.7-.8 1-.2.3-.5.6-.4 1 .1.3.3.6.6.5.3 0 .4-.3.7-.4.5-.4 1-.8 1.4-1.3 1.3-1.2 2.8-2.7 3.7-3.4.1.1.2.1.3.2.6.5 1.2.9 1.8 1.4l1.8 1.4c.1.1.3.2.4.2v.2c0 .5 0 .9.1 1.4-.5-.1-1-.3-1.3-.4-.3-.1-.5-.2-.8-.3l-.6-.3c0-.1-.1-.2-.2-.3-.2-.2-.5-.1-.7.1-.8.8-1.4 1.6-2.1 2.4-.2.2-.3.4-.5.6-.1.1-.1.2-.2.3-.1.3-.1.6.2.8.2.2.5.1.7-.1.2-.2.3-.4.5-.6.3-.4.7-.9 1.1-1.3.2-.2.4-.5.7-.7.1.1.3.1.4.2 1 .5 2 .8 3 1.1.1 0 .2.1.3.1.3 1 .8 1.8 1.5 2.6.6.8 1.4 1.5 2.3 2 2.1 1.2 4.6 1.7 7.1 1.4 2.8-.3 5.5-1.7 7.3-3.8.3-.3.5-.7.7-1h.2c.1 0 .2 0 .3-.1.2-.1.5-.3.7-.4.2-.2.5-.3.8-.4.7-.4 2.1-1 2.4-1h.1l.2.2c.2.3.5.5.7.8.4.4.7.9 1.1 1.3.2.2.3.4.5.6.2.2.5.3.7.1.3-.2.4-.5.2-.8 0-.1-.1-.2-.2-.3-.2-.2-.3-.4-.5-.6-.6-.8-1.3-1.7-2.1-2.4-.2-.2-.4-.3-.6-.1h-.1c-.1-.1-.3 0-.5 0l-.9.3c-.7.3-1.5.6-2.2 1 .2-.4.3-.9.4-1.3.1 0 .2-.1.3-.1.6-.5 1.2-.9 1.8-1.4.6-.5 1.2-1 1.8-1.4.1-.1.2-.1.3-.2.9.8 2.4 2.2 3.7 3.4.5.4 1 .9 1.4 1.3.2.2.4.4.7.4.3.1.6-.2.6-.5.1-.4-.1-.7-.4-1-.3-.3-.6-.7-.8-1-.6-.7-1.2-1.3-1.8-2l-1.9-1.9c-.2-.2-.4-.4-.7-.5h-.2c-.1 0-.2 0-.4.1-.1.1-.2.1-.4.2-.2 0-.3.1-.5.2-.5.3-.9.6-1.4.9-.7.4-1.3.9-2 1.4 0-.5-.1-.9-.3-1.3.8-.4 1.6-.9 2.3-1.4 1-.7 1.9-1.4 2.9-2.1.1 0 .2-.1.2-.1h.1c.1 0 .2-.1.3-.1h.1c.1 0 .2 0 .2.1.1 0 .2.1.2.1.8.4 1.5.9 2.3 1.4 1.2.8 2.4 1.6 3.6 2.5.5.4 1.1.8 1.6 1.2.3.2.7.5 1.1.7.2.1.5.2.7.1.2-.1.4-.3.4-.5.1-.2.2-.5.2-.7.5-.6.2-1-.2-1.3zm-33.3 6.3c-.1-.3-.1-.6 0-.8.1-.4.4-.8.9-.8s.8.3 1.2.5c.9.5 1.7 1.1 2.5 1.8.2.2.3.5.2.8 0 .2 0 .3-.1.5-.1.3-.3.3-.6.4-.4.1-.8.1-1.1 0-1.4-.1-2.6-1-3-2.4zm9.3 3.1c-.4-.1-.7-.2-1.1-.4-.3-.1-.4-.3-.5-.5 0-.2 0-.3.1-.5 0-.3.2-.6.5-.7 1-.4 1.9-.7 3-1 .4-.1.9-.3 1.3-.2.5.1.7.5.6 1 0 .3-.1.5-.3.8-.8 1.3-2.2 1.8-3.6 1.5z"/></g><path fill="#FEDE3B" d="M60.4 60.9c-.1-.3-.1-.6 0-.8.1-.4.4-.8.9-.7.5 0 .8.3 1.2.5.9.5 1.7 1.1 2.5 1.8.2.2.3.5.2.8 0 .2 0 .3-.1.5-.1.3-.3.3-.6.4-.4.1-.8.1-1.1.1-1.4-.3-2.6-1.2-3-2.6zm12.9 1.7c.2-.2.3-.5.3-.8 0-.4-.2-.9-.6-1-.5-.1-.9.1-1.3.2-1 .2-2 .6-3 1-.3.1-.5.4-.5.7-.1.1-.1.3-.1.5 0 .3.2.4.5.5.3.2.7.3 1.1.4 1.4.2 2.8-.3 3.6-1.5z"/><path fill="#FFC200" d="M42.9 166.7h47.8c5.1 0 9.1 4.1 9.1 9.1v1.7c0 5.1-4.1 9.1-9.1 9.1H42.9c-5.1 0-9.1-4.1-9.1-9.1v-1.7c-.1-5.1 4-9.1 9.1-9.1z"/><defs><path id="e" d="M49.3 191.9H84V212H49.3z"/></defs><clipPath id="f"><use xlink:href="#e" overflow="visible"/></clipPath><g clip-path="url(#f)"><path fill="#FFC200" d="M57.1 192.9h19.3c4 0 7.2 3.2 7.2 7.2v4.8c0 4-3.2 7.2-7.2 7.2H57.1c-4 0-7.2-3.2-7.2-7.2v-4.8c.1-4 3.3-7.2 7.2-7.2z"/></g><defs><path id="g" d="M0 0h133.3v159.9H0z"/></defs><clipPath id="h"><use xlink:href="#g" overflow="visible"/></clipPath><g clip-path="url(#h)"><path fill="#FFC200" fill-rule="evenodd" d="M29.1 144c-.5 8.4 6.4 16.4 9.9 15.4h53.4c6.1-.4 9.6-5 10.8-13.6-1.2-22.8 27.5-43.5 28.9-78.7C133.7 31.8 104.9 1 67 0S.1 29.3 0 65.2c.1 35.9 22.7 43.6 29.1 78.8zm18.2-12.7c1.8 7.3 1.4 8.9 9.9 9h19c3.7.4 8.1-2.7 9.1-8.2 2.2-17.6 26.2-40.1 27.1-65.2 1-25.2-18.5-47.3-45.5-47.9-26.9-.6-45.1 21.5-46.8 47.1-1.7 25.7 21 40 27.2 65.2z" clip-rule="evenodd"/></g><defs><path id="i" d="M172 46.6h242.4v72H172z"/></defs><clipPath id="j"><use xlink:href="#i" overflow="visible"/></clipPath><g clip-path="url(#j)"><path fill="#ECECEC" fill-rule="evenodd" d="M204.6 67.3c0 1.9-.4 3.7-1.1 5.4-.7 1.7-1.7 3.1-2.9 4.4-1.2 1.2-2.7 2.2-4.4 2.9-1.7.7-3.5 1.1-5.4 1.1h-12.6v21.4h-5V46.8h17.6c1.9 0 3.7.4 5.4 1.1 1.7.7 3.1 1.7 4.4 2.9 1.2 1.2 2.2 2.7 2.9 4.4.7 1.7 1.1 3.5 1.1 5.4v6.7zm-5.1 0v-7c0-1.2-.2-2.4-.7-3.5-.5-1.1-1.1-2-1.9-2.9-.8-.8-1.8-1.5-2.9-1.9-1.1-.5-2.2-.7-3.5-.7h-12.3v24.8h12.4c1.2 0 2.4-.2 3.5-.7 1.1-.5 2-1.1 2.9-1.9.8-.8 1.5-1.8 1.9-2.8.4-.9.6-2.1.6-3.4zm39.6 24.2c0 1.6-.3 3.1-.9 4.6-.6 1.4-1.5 2.7-2.5 3.8-1.1 1.1-2.3 1.9-3.8 2.5-1.4.6-3 .9-4.6.9h-3.2c-1.6 0-3.1-.3-4.6-.9-1.4-.6-2.7-1.5-3.8-2.5-1.1-1.1-1.9-2.3-2.5-3.8-.6-1.4-.9-3-.9-4.6V73.6c0-1.6.3-3.1.9-4.6.6-1.4 1.5-2.7 2.5-3.8 1.1-1.1 2.3-1.9 3.8-2.5 1.4-.6 3-.9 4.6-.9h3.2c1.6 0 3.1.3 4.6.9 1.4.6 2.7 1.5 3.8 2.5 1.1 1.1 1.9 2.3 2.5 3.8.6 1.4.9 3 .9 4.6v17.9zm-4.8.3V73.3c0-1-.2-1.9-.5-2.7-.4-.8-.9-1.6-1.5-2.2-.6-.6-1.4-1.1-2.2-1.5-.8-.4-1.8-.5-2.7-.5h-3.2c-1 0-1.9.2-2.7.5-.8.4-1.6.9-2.2 1.5-.6.6-1.1 1.4-1.5 2.2-.4.8-.5 1.8-.5 2.7v18.5c0 1 .2 1.9.5 2.7.4.8.9 1.6 1.5 2.2.6.6 1.4 1.1 2.2 1.5s1.8.5 2.7.5h3.2c1 0 1.9-.2 2.7-.5.8-.4 1.6-.9 2.2-1.5.6-.6 1.1-1.4 1.5-2.2.3-.8.5-1.7.5-2.7zm30.8-24.6h-4.8c-1 0-1.9.2-2.7.5-.8.4-1.6.9-2.2 1.5-.6.6-1.1 1.4-1.5 2.2-.4.8-.5 1.8-.5 2.7v28.3h-4.8V62.7h1.6l2.6 4.1c1.1-1.5 2.5-2.7 4.1-3.5 1.7-.9 3.5-1.3 5.4-1.3h2.8v5.2zm25.2 35.2h-4.4c-1.5 0-2.8-.3-4.1-.8-1.3-.5-2.4-1.3-3.4-2.3-1-1-1.7-2.1-2.3-3.4-.6-1.3-.8-2.6-.8-4.1V67.2h-7.2v-4.6h7.2v-9.5l4.8-.8v10.3h10.1v4.6h-10.1v25c0 .8.1 1.6.5 2.2.3.7.7 1.3 1.2 1.8s1.1.9 1.8 1.2c.7.3 1.5.4 2.3.4h4.4v4.6zm35.4 0h-1.6l-2.7-4.1c-1.1 1.5-2.5 2.7-4.1 3.5-1.6.9-3.4 1.3-5.4 1.3h-1.2c-1.6 0-3.1-.3-4.6-.9-1.4-.6-2.7-1.5-3.8-2.5-1.1-1.1-1.9-2.3-2.5-3.8-.6-1.4-.9-3-.9-4.6V62.6h4.8v29.1c0 1 .2 1.9.5 2.7.4.8.9 1.6 1.5 2.2.6.6 1.4 1.1 2.2 1.5.8.4 1.8.5 2.7.5h3.2c1 0 1.9-.2 2.7-.5.8-.4 1.6-.9 2.2-1.5.6-.6 1.1-1.4 1.5-2.2.4-.8.5-1.8.5-2.7v-29h4.8v39.8h.2zm36.5 5.1c0 1.6-.3 3.1-.9 4.5-.6 1.4-1.5 2.5-2.5 3.5-1.1 1-2.3 1.7-3.8 2.2-1.4.5-3 .8-4.6.8h-2c-1.6 0-3.1-.3-4.6-.8-1.4-.5-2.7-1.3-3.8-2.2-1.1-1-1.9-2.1-2.5-3.5-.6-1.4-.9-2.8-.9-4.5v-.2c0-1.6.3-3 .9-4.3.6-1.3 1.4-2.4 2.3-3.4-1.2-.8-2.2-1.8-3-3.1-.7-1.3-1.1-2.7-1.1-4.3 0-1.4.3-2.7.9-3.9.6-1.2 1.4-2.2 2.5-2.9-1.3-1.1-2.2-2.4-3-3.9-.7-1.5-1.1-3.2-1.1-5v-3c0-1.6.3-3.1.9-4.6.6-1.4 1.5-2.7 2.5-3.8 1.1-1.1 2.3-1.9 3.8-2.5 1.4-.6 3-.9 4.6-.9h2c2 0 3.8.4 5.4 1.3 1.7.9 3 2.1 4.1 3.5l2.6-4.1h1.6v13.9c0 1.6-.3 3.1-.9 4.6-.6 1.4-1.5 2.7-2.5 3.8-1.1 1.1-2.3 1.9-3.8 2.5-1.4.6-3 .9-4.6.9h-7c-.5 0-1.1.1-1.6.3-.5.2-.9.5-1.3.9s-.7.8-.9 1.3c-.2.5-.3 1-.3 1.6 0 .5.1 1.1.3 1.6.2.5.5.9.9 1.3s.8.7 1.3.9c.5.2 1 .3 1.6.3h6.6c1.6 0 3.1.3 4.6.8 1.4.5 2.7 1.3 3.8 2.2 1.1 1 1.9 2.1 2.5 3.5.6 1.5.9 2.9 1 4.7zm-4.4-30.6v-3.6c0-1-.2-1.9-.5-2.7-.4-.8-.9-1.6-1.5-2.2-.6-.6-1.4-1.1-2.2-1.5-.8-.4-1.8-.5-2.7-.5h-4c-1 0-1.9.2-2.7.5-.8.4-1.6.9-2.2 1.5-.6.6-1.1 1.4-1.5 2.2-.4.8-.5 1.8-.5 2.7v3.6c0 1 .2 1.9.5 2.7.4.8.9 1.6 1.5 2.2.6.6 1.4 1.1 2.2 1.5.8.4 1.8.5 2.7.5h4c1 0 1.9-.2 2.7-.5.8-.4 1.6-.9 2.2-1.5.6-.6 1.1-1.4 1.5-2.2.3-.9.5-1.8.5-2.7zm-.2 30.8v-.6c0-1-.2-1.8-.5-2.6-.4-.8-.9-1.4-1.5-1.9s-1.4-.9-2.2-1.2-1.8-.4-2.7-.4h-2.5c-1 0-1.9.1-2.7.4-.8.3-1.6.7-2.2 1.2-.6.5-1.1 1.2-1.5 1.9-.4.8-.5 1.6-.5 2.6v.6c0 1 .2 1.8.5 2.6.4.8.9 1.4 1.5 1.9s1.4.9 2.2 1.2c.8.3 1.8.4 2.7.4h2.5c1 0 1.9-.1 2.7-.4s1.6-.7 2.2-1.2c.6-.5 1.1-1.2 1.5-1.9.3-.8.5-1.6.5-2.6zm40.3-16.2c0 1.6-.3 3.1-.9 4.6-.6 1.4-1.5 2.7-2.5 3.8-1.1 1.1-2.3 1.9-3.8 2.5-1.4.6-3 .9-4.6.9H383c-1.6 0-3.1-.3-4.6-.9-1.4-.6-2.7-1.5-3.8-2.5-1.1-1.1-1.9-2.3-2.5-3.8-.6-1.4-.9-3-.9-4.6V73.6c0-1.6.3-3.1.9-4.6.6-1.4 1.5-2.7 2.5-3.8 1.1-1.1 2.3-1.9 3.8-2.5 1.4-.6 3-.9 4.6-.9h3.2c1.6 0 3.1.3 4.6.9 1.4.6 2.7 1.5 3.8 2.5 1.1 1.1 1.9 2.3 2.5 3.8.6 1.4.9 3 .9 4.6l-.1 17.9zm-4.8.3V73.3c0-1-.2-1.9-.5-2.7-.4-.8-.9-1.6-1.5-2.2-.6-.6-1.4-1.1-2.2-1.5-.8-.4-1.8-.5-2.7-.5H383c-1 0-1.9.2-2.7.5-.8.4-1.6.9-2.2 1.5-.6.6-1.1 1.4-1.5 2.2-.4.8-.5 1.8-.5 2.7v18.5c0 1 .2 1.9.5 2.7.4.8.9 1.6 1.5 2.2.6.6 1.4 1.1 2.2 1.5s1.8.5 2.7.5h3.2c1 0 1.9-.2 2.7-.5.8-.4 1.6-.9 2.2-1.5.6-.6 1.1-1.4 1.5-2.2.3-.8.5-1.7.5-2.7zm20.7 10.6H409V46.8h4.8v55.6z" clip-rule="evenodd"/></g><path fill="#A8A7A7" fill-rule="evenodd" stroke="#A8A7A7" stroke-miterlimit="9.944" stroke-width=".746" d="M283.7 154.7v.9c0 1-.2 1.9-.6 2.8-.4.9-.9 1.6-1.6 2.2-.7.6-1.4 1.1-2.3 1.5-.9.4-1.8.6-2.8.6h-2.1c-1 0-1.9-.2-2.8-.6-.9-.4-1.6-.9-2.3-1.5-.7-.6-1.2-1.4-1.6-2.2-.4-.9-.6-1.8-.6-2.8v-1.1l2.6-.4v1.6c0 .6.1 1.2.4 1.8.3.6.6 1 1.1 1.5.4.4 1 .8 1.5 1 .6.2 1.2.4 1.8.4h1.8c.6 0 1.3-.1 1.8-.4.6-.2 1.1-.6 1.5-1 .4-.4.8-.9 1.1-1.5.3-.6.4-1.2.4-1.8v-.9c0-1-.2-1.8-.6-2.5-.4-.7-.9-1.2-1.5-1.7s-1.4-.9-2.2-1.2c-.8-.3-1.6-.6-2.5-1-.9-.3-1.7-.7-2.5-1.1-.8-.4-1.5-.9-2.2-1.5-.6-.6-1.2-1.3-1.5-2.1-.4-.8-.6-1.9-.6-3.1v-.5c0-1 .2-1.9.6-2.8s.9-1.6 1.5-2.2c.6-.6 1.4-1.1 2.3-1.5.9-.4 1.8-.6 2.8-.6h1.8c1 0 1.9.2 2.8.6.9.4 1.6.9 2.2 1.5.6.6 1.1 1.4 1.5 2.2.4.9.6 1.8.6 2.8v.7l-2.6.4V140c0-.6-.1-1.2-.4-1.8-.2-.6-.6-1-1-1.5-.4-.4-.9-.7-1.5-1-.6-.2-1.2-.4-1.8-.4h-1.6c-.6 0-1.2.1-1.8.4-.6.2-1 .6-1.5 1-.4.4-.8.9-1 1.5-.2.6-.4 1.2-.4 1.8v.5c0 .9.2 1.7.6 2.3.4.6.9 1.2 1.5 1.6.6.4 1.4.8 2.2 1.2.8.3 1.6.7 2.5 1 .9.3 1.7.7 2.5 1.1.8.4 1.5.9 2.2 1.5.6.6 1.2 1.3 1.5 2.2.6 1 .8 2.1.8 3.3z" clip-rule="evenodd"/><path fill="#A8A7A7" fill-rule="evenodd" d="M212.6 122.6 202 163h-1.9l-7.9-30.4-.1-1.5-.2 1.6-7.8 30.4h-1.9l-10.7-40.4h3.7l8 30.7.1 1.5.1-1.5 7.8-30.7h2l7.8 30.7.1 1.5.1-1.5 7.9-30.7 3.5-.1zm21 31.9c0 1.2-.2 2.3-.7 3.3-.4 1-1.1 1.9-1.8 2.7-.8.8-1.7 1.4-2.7 1.8s-2.1.7-3.3.7h-2.3c-1.2 0-2.3-.2-3.3-.7-1-.4-1.9-1.1-2.7-1.8-.8-.8-1.4-1.7-1.8-2.7-.4-1-.7-2.1-.7-3.3v-13c0-1.2.2-2.3.7-3.3.4-1 1.1-1.9 1.8-2.7.8-.8 1.7-1.4 2.7-1.8 1-.4 2.1-.7 3.3-.7h2.3c1.2 0 2.3.2 3.3.7 1 .4 1.9 1.1 2.7 1.8.8.8 1.4 1.7 1.8 2.7.4 1 .7 2.1.7 3.3v6.8h-15.8v6.5c0 .7.1 1.4.4 2 .3.6.6 1.1 1.1 1.6.5.5 1 .8 1.6 1.1.6.3 1.3.4 2 .4h2.3c.7 0 1.4-.1 2-.4.6-.3 1.1-.6 1.6-1.1.5-.5.8-1 1.1-1.6.3-.6.4-1.3.4-2v-1.9l3.5.6-.2 1zm-3.5-8.9v-4.3c0-.7-.1-1.4-.4-2-.3-.6-.6-1.1-1.1-1.6-.5-.5-1-.8-1.6-1.1s-1.3-.4-2-.4h-2.3c-.7 0-1.4.1-2 .4-.6.3-1.1.6-1.6 1.1-.5.5-.8 1-1.1 1.6-.3.6-.4 1.3-.4 2v4.3h12.5zm29.6 8.9c0 1.2-.2 2.3-.7 3.3-.4 1-1.1 1.9-1.8 2.7-.8.8-1.7 1.4-2.7 1.8s-2.1.7-3.3.7H249c-1.2 0-2.3-.2-3.3-.7-1-.4-1.9-1.1-2.7-1.8-.8-.8-1.4-1.7-1.8-2.7-.4-1-.7-2.1-.7-3.3V122h3.5v13.9c.8-.9 1.7-1.7 2.9-2.2 1.1-.5 2.3-.8 3.6-.8h.9c1.2 0 2.3.2 3.3.7 1 .4 1.9 1.1 2.7 1.8.8.8 1.4 1.7 1.8 2.7.4 1 .7 2.1.7 3.3v13.1h-.2zm-3.4.2v-13.4c0-.7-.1-1.4-.4-2-.3-.6-.6-1.1-1.1-1.6-.5-.5-1-.8-1.6-1.1-.6-.3-1.3-.4-2-.4h-2.3c-.7 0-1.4.1-2 .4-.6.3-1.1.6-1.6 1.1-.5.5-.8 1-1.1 1.6-.3.6-.4 1.3-.4 2v13.4c0 .7.1 1.4.4 2 .3.6.6 1.1 1.1 1.6.5.5 1 .8 1.6 1.1.6.3 1.3.4 2 .4h2.3c.7 0 1.4-.1 2-.4.6-.3 1.1-.6 1.6-1.1.5-.5.8-1 1.1-1.6.3-.7.4-1.3.4-2zm47.6 8.5h-3.2c-1.1 0-2.1-.2-3-.6-.9-.4-1.7-.9-2.4-1.6-.7-.7-1.2-1.5-1.6-2.4-.4-.9-.6-1.9-.6-3v-17.9H288v-3.3h5.2v-7l3.5-.6v7.5h7.4v3.3h-7.4v18.1c0 .6.1 1.1.3 1.6.2.5.5.9.9 1.3s.8.7 1.3.9c.5.2 1.1.3 1.6.3h3.2v3.4zm26.7-.7h-1.2l-1.9-3c-.8 1.1-1.8 1.9-3.1 2.7-1.2.6-2.6.9-4 .9h-.9c-1.2 0-2.4-.2-3.4-.7-1-.4-1.9-1.1-2.8-1.8-.8-.8-1.4-1.8-1.9-2.8-.4-1-.7-2.2-.7-3.4v-21.6h3.6v21.8c0 .7.1 1.4.4 2.1.3.6.6 1.1 1.1 1.6.5.5 1 .8 1.6 1.1.6.3 1.3.4 2.1.4h2.4c.7 0 1.4-.1 2.1-.4.6-.3 1.1-.6 1.6-1.1.5-.5.8-1 1.1-1.6.3-.6.4-1.3.4-2.1v-21.8h3.6v29.7h-.1zm25.5-.1h-1.2l-1.9-2.9c-.8 1.1-1.8 1.9-3 2.6-1.2.6-2.5.9-3.9.9h-.9c-1.2 0-2.3-.2-3.3-.7-1-.4-1.9-1.1-2.7-1.8-.8-.8-1.4-1.7-1.8-2.7-.4-1-.7-2.1-.7-3.3v-13c0-1.2.2-2.3.7-3.3.4-1 1.1-1.9 1.8-2.7.8-.8 1.7-1.4 2.7-1.8 1-.4 2.1-.7 3.3-.7h.9c1.3 0 2.5.3 3.6.8s2.1 1.3 2.9 2.2v-13.9h3.5v40.3zm-3.5-7.7v-13.4c0-.7-.1-1.4-.4-2-.3-.6-.6-1.1-1.1-1.6-.5-.5-1-.8-1.6-1.1-.6-.3-1.3-.4-2-.4h-2.3c-.7 0-1.4.1-2 .4-.6.3-1.1.6-1.6 1.1-.5.5-.8 1-1.1 1.6-.3.6-.4 1.3-.4 2v13.4c0 .7.1 1.4.4 2 .3.6.6 1.1 1.1 1.6.5.5 1 .8 1.6 1.1.6.3 1.3.4 2 .4h2.3c.7 0 1.4-.1 2-.4.6-.3 1.1-.6 1.6-1.1.5-.5.8-1 1.1-1.6.3-.7.4-1.3.4-2zm14.8-28h-3c-.1 0-.2-.1-.2-.2v-4.1c0-.1.1-.2.2-.2h3.1c.1 0 .2.1.2.2v4.1c0 .1-.1.2-.3.2zm.3 36.6h-3.6v-29.7h3.6v29.7zm26.3-8.8c0 1.2-.2 2.3-.7 3.3-.4 1-1.1 1.9-1.8 2.7-.8.8-1.7 1.4-2.7 1.8s-2.1.7-3.3.7h-2.3c-1.2 0-2.3-.2-3.3-.7-1-.4-1.9-1.1-2.7-1.8-.8-.8-1.4-1.7-1.8-2.7-.4-1-.7-2.1-.7-3.3v-13c0-1.2.2-2.3.7-3.3.4-1 1.1-1.9 1.8-2.7.8-.8 1.7-1.4 2.7-1.8 1-.4 2.1-.7 3.3-.7h2.3c1.2 0 2.3.2 3.3.7 1 .4 1.9 1.1 2.7 1.8.8.8 1.4 1.7 1.8 2.7.4 1 .7 2.1.7 3.3v13zm-3.5.2v-13.4c0-.7-.1-1.4-.4-2-.3-.6-.6-1.1-1.1-1.6-.5-.5-1-.8-1.6-1.1-.6-.3-1.3-.4-2-.4h-2.3c-.7 0-1.4.1-2 .4-.6.3-1.1.6-1.6 1.1-.5.5-.8 1-1.1 1.6-.3.6-.4 1.3-.4 2v13.4c0 .7.1 1.4.4 2 .3.6.6 1.1 1.1 1.6.5.5 1 .8 1.6 1.1.6.3 1.3.4 2 .4h2.3c.7 0 1.4-.1 2-.4.6-.3 1.1-.6 1.6-1.1.5-.5.8-1 1.1-1.6.3-.7.4-1.3.4-2z" clip-rule="evenodd"/><path fill="#FBDC08" fill-rule="evenodd" d="M179.5 41.6c-.8.1-1.4.7-1.6 1.6-.2.8.3 1.8 1 2.1.8.3 1.9 0 2.4-.7s.3-2-.4-2.5c-.3-.3-.9-.5-1.3-.5h-.1m5.7.1c-.6.1-1.2.8-1.4 1.6v.2c-.2.6.2 1.4.7 1.8.7.4 1.5.2 2-.4.4-.5.3-1.5-.1-2.4-.2-.6-.7-.9-1.2-.8m-4.6 1.2c.2.1.4.5.3 1-.1.6-.8.6-.9 0-.2-.7.2-1.2.6-1m4.4 0c.2.1.4.4.4.9 0 .2 0 .3-.1.4-.2.4-.7.1-.8-.4 0-.6.2-1 .5-.9m-2.3 2.1c-.2 0-.3.1-.3.2-.1.2.9.3 1.1.1-.1-.2-.5-.4-.8-.3" clip-rule="evenodd"/><defs><path id="k" d="M171.2 35.6H196v13h-24.8z"/></defs><clipPath id="l"><use xlink:href="#k" overflow="visible"/></clipPath><g clip-path="url(#l)"><path fill="#040404" fill-rule="evenodd" d="M175.6 35.6c-.5.1-.8.6-1.1 1.7-.2.9-.3 1.5-.3 2.2V41c-.1.4 0 .8.2 1.3.2.4.2.5 0 1-.2.7-.3 1.1-.1 1.5v.1c-.1 0-.4.2-.5.3l-.1.1H172.9c-.4.1-.8.4-1 .7l-.1.1-.1.1c-.3.2-.5.5-.5 1s.3.8.6.8c0 0 .1 0 .1.1.2.3.8.5 1.3.3.1 0 .3-.2.4-.2h.1c.3.4 1 .5 1.5.2.1 0 .1-.1.1-.1l.1-.1.1-.1.1.1c.2.1.3.2.5.2.5 0 .8-.3.9-.9v-.1H189.9c.2.6 1.1.9 1.6.5l.1-.1.1.1c.4.3 1 .3 1.4.1.1-.1 0-.1.2.1.4.4 1.1.4 1.5 0l.1-.1c.4.3 1.1 0 1.3-.5.3-.9-.4-1.9-1.5-2.1h-.5l-.1-.1c-.6-.4-1.7-.5-2.3-.1-.1 0-.1.1-.2.1l-.1.1-.1.1-.1.1h-.1c-.3-.1-.7 0-.9.2l-.1.1c-.1-.1-.1-.2-.1-.3-.2-.5-.2-.9 0-1.3.3-.6.3-.7.2-1.4-.1-.9.1-1.5.8-2.9.1-.1.2-.3.2-.3 0-.1.1-.1.1-.2.5-.9.9-1.6 1-2 .3-.8 0-1.2-.6-.7-.5.3-1.2.9-2 1.6-.8.7-1.2 1-1.8 1.3-.1.1-.3.2-.5.2-.4.1-.7.2-1.1.3h-.7c-.7-.1-1.2-.1-1.8-.2-.1 0-.2 0-.3-.1-.1 0-.3-.1-.4-.1-1.1-.2-1.7-.2-2.7-.1-.9.1-1 0-1.6-.6l-.7-.7c-.4-.4-.4-.4-.5-.8 0-.1 0-.1-.1-.3-.1-.1-.2-.4-.2-.4l-.2-.3c0-.1-.4-.4-.6-.5-.6-.5-.9-.5-1-.5m4.5 6c.6.1 1 .5 1.3 1 .3.6.3 1.4.1 1.8-.3.6-1 1-1.8 1-.7 0-1.1-.2-1.5-.8-.5-.8-.4-1.9.3-2.6.3-.3.5-.4.9-.5.1.1.5.1.7.1m5.4.1c.4.1.7.3.9.7.4.8.5 1.9.1 2.4-.9 1.2-2.5.8-2.8-.7-.1-.8.3-1.9 1-2.3.3-.1.5-.2.8-.1m-5.2 1.2c-.5.1-.5 1.2-.1 1.4.2.1.3 0 .5-.1.2-.3.2-.9 0-1.2-.1-.1-.2-.2-.4-.1m4.5 0c-.2.1-.4.8-.2 1.2.2.4.6.4.7 0v-.4c.1-.5-.2-.9-.5-.8m-1.7 2.1c.5.1.3.4-.2.3-.6 0-.8-.3-.3-.4.2.1.3.1.5.1" clip-rule="evenodd"/></g><path fill="#5C4F05" fill-rule="evenodd" d="M179.5 41.6s.1 0 0 0c.1 0 .1 0 0 0m.3 0c.1 0 .1 0 0 0m6.2.2c0 .1 0 .1 0 0 0 .1 0 0 0 0m-7.5.2-.1.1.1-.1.1-.1s0 .1-.1.1m7.7 0s.1.1 0 0c.1.1.1 0 0 0 0 0 0-.1 0 0 0-.1 0 0 0 0m-1.7 0s.1 0 0 0c.1 0 .1 0 0 0M181.2 42.3c-.1 0-.1 0 0 0m3.7.6s.1 0 0 0c.1 0 .1 0 0 0M185.2 43c.1.1.1.1 0 0-.1 0-.1 0 0 0M180 43.3s0 .1 0 0c0 .1 0 0 0 0m1.6.1c0 .1 0 .1 0 0 0 .1 0 0 0 0m-.7.2s0 .1 0 0c0 0 0-.1 0 0 0-.1 0-.1 0 0m-3-.1c0 .1 0 .1 0 0m8.9.1c0 .1 0 .1 0 0m-1.4 0c0 .1 0 .1 0 0M184.5 43.7s0 .1 0 0c.1 0 .1 0 0 0m.9.1c0 .1 0 .1 0 0m1.4.1c0 .1 0 .1 0 0 0 0 0-.1 0 0 0-.1 0-.1 0 0m-5.2-.1c0 .1 0 .1 0 0m2.2.1c0-.1 0-.1 0 0m-3 0s0 .1 0 0c0 .1 0 0 0 0m.8.1c0-.1 0-.1 0 0m5.2.1c0-.1 0-.1 0 0m-6.7.1c0-.1-.1-.1 0 0m.5 0s0 .1 0 0c-.1.1-.1.1 0 0-.1.1 0 0 0 0m4.4.2c.1 0 0 0 0 0m-6.9.1c0-.1 0-.1 0 0 0-.1 0-.1 0 0m8.5.3s-.1 0 0 0c0-.1 0-.1 0 0 0-.1 0-.1 0 0m-8.1.2s.1 0 0 0c.1 0 0 0 0 0-.1-.1-.1-.1 0 0-.1-.1-.1-.1 0 0m7.9 0c.1-.1.1-.1 0 0 .1-.1 0-.1 0 0m-5.4 0c-.1 0-.1 0 0 0 0-.1 0-.1 0 0m3.2 0 .1.1c.1 0 0 0-.1-.1 0 0 0-.1 0 0 0-.1 0 0 0 0m-1.4 0s.1 0 0 0c.1 0 .1 0 0 0M182.9 45.4c.1 0 .1 0 0 0 0 0-.1 0 0 0m-3.6 0s.1 0 0 0c.1 0 .1 0 0 0M179.8 45.4s.1 0 0 0c.1 0 .1 0 0 0m5.4.1h.2-.2s-.1 0 0 0" clip-rule="evenodd"/><defs><path id="m" d="M213.3 63.9H236v22.7h-22.7z"/></defs><clipPath id="n"><use xlink:href="#m" overflow="visible"/></clipPath><g clip-path="url(#n)"><defs><path id="o" d="M214.4 65.7h21v20h-21z" transform="matrix(.9985 -.05432 .05432 .9985 -3.778 12.33)"/></defs><clipPath id="p"><use xlink:href="#o" overflow="visible"/></clipPath><g clip-path="url(#p)"><defs><path id="q" d="M214.4 65.7h21v20h-21z" transform="matrix(.9985 -.05432 .05432 .9985 -3.778 12.33)"/></defs><clipPath id="r"><use xlink:href="#q" overflow="visible"/></clipPath><g clip-path="url(#r)"><path fill="#E8EDEB" fill-rule="evenodd" d="M234 65.5c-1 .1-2.1.1-3.3.2.5.3.7 1 .5 1.6.9-.7 1.8-1.3 2.8-1.8zm-6.5.3c.7.2 1.2.7 1.5 1.2.2.4.2 1 0 1.6.5-.4 1-.7 1.6-1.1l.1-.1c.5-.7.3-1.6-.5-1.8h-.1c-.8.1-1.7.2-2.6.2zm6.7-.2-3 1.8c.2 0 .3.1.5.1.3.2.5.5.7.9.5-.9 1.1-1.8 1.8-2.8zm.4 0c-.7 1-1.4 1.9-1.9 3 .4-.1.8-.2 1.2-.1.4.1.7.2.9.5-.1-1.1-.1-2.3-.2-3.4zm-8 .3c-.6 0-1.1.1-1.7.1.8.3 1.4.8 1.9 1.5.5.8.7 1.7.3 2.5.5-.4 1-.8 1.5-1.1v-.1c.3-.6.3-1.2.1-1.6-.3-.7-1-1.2-2.1-1.3.1 0 .1 0 0 0zm-2.5.1c-1 .1-1.9.1-2.9.2.7.2 1.5.4 2.1.7 1.4.6 2.4 1.6 2.3 3.6 0 .3-.1.6-.2.9.4-.3.8-.6 1.2-1 .6-.9.4-1.9-.1-2.8-.4-.9-1.4-1.5-2.4-1.6zm8.1 2.9c-.1-.5-.3-.9-.6-1-.2-.1-.5-.1-.8-.1l-.9.6c-.3.2-.6.4-.8.6.4.1.8.3 1.1.7.4.5.7 1.1.9 1.7.3-1 .7-1.8 1.1-2.5zm2.5.6c-.2-.4-.5-.6-1-.7-.5-.1-1 0-1.3.3-.4.8-.8 1.6-1.1 2.4 1.1-.6 2.5-.8 3.4.1v-2.1zm-14.3-3.2c-1 .1-2 .2-2.9.4 3.3.5 6.4 3.4 5.6 6.8.2-.2.4-.3.6-.5.5-.4 1-.9 1.5-1.3.2-.4.3-.8.3-1.3.1-1.8-.9-2.8-2.2-3.3-.9-.4-1.9-.6-2.9-.8zm8.4 2.8c-.6.4-1.2.9-1.9 1.4l-.1.1c-.1 0-.1.1-.2.1 1.8-.1 2.9 1.5 3.3 3.1.2-.7.5-1.4.8-2.1 0-.6-.3-1.4-.8-2-.3-.3-.7-.6-1.1-.6zm5.8 2.8c-.8-1.2-2.6-.9-3.6-.1l-.9 2.4c.8-.4 1.8-.7 2.7-.7.8 0 1.4.3 1.8 1v-2.6zm-18.1-5.1c-.7.1-1.3.3-1.9.5 1.9.4 3.4 1.7 4.4 3.4 1 1.6 1.5 3.6 1.4 5.4l.3-.3c.6-.6 1.2-1.3 1.9-1.9 1.3-3.9-2.5-7-6.1-7.1zm13.4 7.5c0-.1-.1-.1 0 0-.4-1.8-1.5-3.7-3.6-3.2-.3.3-.6.5-1 .8l-.1.1c-.3.3-.7.6-1 .8.7-.2 1.4-.3 2.2-.1.8.2 1.6.8 2.2 1.5.4.5.7 1.2.8 1.8l.3-.9c0-.3.1-.6.2-.8zm4.7.9c-.2-1-1-1.4-1.8-1.4-.9 0-1.9.3-2.7.8h-.1l-.6 2.1c1.3-1 3.1-1.3 4.6-.4.3.2.5.4.7.7-.1-.7-.1-1.2-.1-1.8zm-5.5 1.5c0-.8-.3-1.7-.8-2.4s-1.2-1.3-2-1.4c-.9-.2-1.7 0-2.5.2-.4.4-.8.8-1.2 1.1l-1.1 1.1c2.1-.8 4.4-.2 5.9 1.5.5.5 1 1.1 1.2 1.7.1-.5.3-1.1.4-1.6v-.1c.1.1.1 0 .1-.1zm5.6.7c-.1 0-.1 0 0 0-.2-.4-.5-.7-.8-.9-1.5-1-3.3-.5-4.5.6-.2.5-.3 1.1-.4 1.6 1.3-.8 3.1-.8 4.4-.2.6.3 1.1.6 1.4 1-.1-.6-.1-1.4-.1-2.1zm-6.3 1.6c-.1-.8-.7-1.4-1.2-2-1.6-1.7-4.1-2.2-6.2-1.2l-.6.6c-.7.8-1.4 1.7-2.1 2.5 2.2-.7 4.9-.4 7 .6 1.1.5 2.1 1.2 2.5 2.4.2-.9.4-1.9.6-2.8V79c0 .1 0 .1 0 0zm6.3 1.1c-.3-.7-.9-1-1.6-1.3-1.3-.6-3.2-.5-4.4.3v.2c-.3 1.1-.5 2.2-.7 3.3 1.3-1 2.8-1.8 4.6-1.6.8.1 1.8.5 2.3 1.2-.1-.7-.2-1.4-.2-2.1zm-10.6-14.4c-1.2.1-2.5.2-3.6.3h-.1c-1.4.1-2.7.3-3.8.5-.9.2-1.7.4-2.4.6-.1 0-.1.1-.1.2s.1.1.2.1c2 .3 3.6 1.6 4.7 3.3 1.1 1.7 1.6 3.8 1.4 5.6-.3.4-.7.8-1 1.2-.6.7-1.2 1.5-1.7 2.2-.2.2-.3.5-.5.7-.1.1-.1.2-.2.2 0 0 0 .1-.1.1v.1s0-.1.1-.1c.1-.1.1-.2.2-.3.1-.2.2-.3.3-.5.2-.3.4-.5.5-.7 2.2-.8 5-.5 7.2.5 1.1.5 2.1 1.2 2.4 2.4 0 .1.1.1.1.1l-.6 3c0 .1 0 .1.1.1s.1 0 .2-.1c.2-.8.3-1.7.5-2.5h.1c1.3-1.1 2.8-1.8 4.5-1.7.9.1 1.9.5 2.3 1.4l.1.1c0 .6.1 1.3.1 1.9 0 .1.1.1.1.1.1 0 .1-.1.1-.1-.2-3.1-.3-6.3-.3-9.4V69.2c0-1.4 0-2.8-.2-4.2 0-.1-.1-.1-.1-.1h-.1c-2.9.5-6.7.6-10.4.8z" clip-rule="evenodd"/></g></g></g><defs><path id="s" d="M400 122.6h83v89h-83z"/></defs><clipPath id="t"><use xlink:href="#s" overflow="visible"/></clipPath><g clip-path="url(#t)"><path fill="#040404" d="M480.2 141.1c-2.1-4.2-4.5-7.3-7.2-9.2-2.6-1.8-5.6-2.5-8.6-1.9-4 .7-7.9 3.6-11.1 8.1-2.8 3.9-4.6 8.5-5 12.3-.6 6.8 3.8 11 8 15.1 3.8 3.6 7.8 7.4 9.7 13.6 1.7 5.3 1.3 11.1-1.2 17.5-1.3 3.4-2.9 6-3.7 7.3l-3.7.6c.2-1.5.6-5.7 1-16.9.6-15.6-20.8-31.3-20.8-31.3V150c1.1-1 1.9-2.2 2.6-3.3.2.1.5.1.7.2.6.2 1.3.5 1.9.9 1.2.7 2.2 1.7 3 2.8l.6.9c.2.3.3.7.5 1 0 .1.2 0 .1-.1-.1-.3-.2-.7-.4-1-.2-.3-.3-.6-.5-.9-.4-.6-.8-1.1-1.3-1.6-1-1-2.2-1.7-3.5-2.2l-.9-.3c.3-.5.5-1 .7-1.5.7 0 1.3.1 2 .3 1.1.3 2.2.7 3.2 1.3.3.2.5.3.8.5.3.2.5.4.8.6.1 0 .2 0 .1-.1l-.6-.6c-.2-.2-.4-.4-.7-.5-.5-.3-1-.6-1.6-.9-1.1-.5-2.2-.8-3.4-.9h-.5c.1-.3.2-.7.3-1.1h.8c1 0 2.1.2 3.1.5.6.2 1.1.4 1.7.5.1 0 .1-.1 0-.1-.9-.6-2-.9-3-1-.8-.1-1.7-.2-2.5-.2 1.3-5-.2-9.5-.2-9.5 4-4.5 3-11.1 3-11.1-4.2-.2-9.5 5.3-9.5 5.3-5.4-2.2-14.4-.5-14.4-.5-3.5-3.8-9.3-4-9.3-4 0 4 3.2 10.4 3.2 10.4s-1.1 1.1-1.3 6.6c0 .9.1 1.8.5 2.7h-.1c-1.1-.1-2.2-.2-3.3-.2-2.2 0-4.4.2-6.5.6-.6.1-1.2.2-1.8.4-.6.2-1.2.3-1.8.6-.1 0-.1.2.1.2 1.1-.2 2.1-.4 3.2-.6 1.1-.2 2.1-.3 3.2-.4 2.2-.2 4.3-.3 6.5-.2h.7c.3.7.6 1.3 1 2-1.1 0-2.3.2-3.4.4-1.8.3-3.6.9-5.2 1.7-.9.4-1.9.9-2.7 1.6-.1.1 0 .2.1.1 1.6-.9 3.2-1.7 5-2.3 1.7-.6 3.5-1 5.3-1.1.4 0 .8-.1 1.1-.1.4.7.9 1.3 1.4 2-.5.1-.9.3-1.4.4-1.5.6-2.9 1.4-4.2 2.3-.7.5-1.4 1.2-2 1.8-.1.1 0 .2.1.1 2.1-2 4.8-3.6 7.7-4.4 1.8 2.2 3.7 3.7 3.7 3.7v5.1c-2.4 1.8-3.2 10.7-3.2 10.7-1.1 14.4 6.6 25.2 6.6 25.2v12.8c-.5 0-.9-.1-1.1-.1-.3-.1-.6-.2-1-.2-1.5 0-2.8 1.2-2.8 2.8 0 .8.4 1.6 1 2.1.8.7 1.3.8 5.6 1 2.5.1 5.7.2 8.9.2h2.2c5.1 0 12.6-.1 17.4-.9l10.6-1.6.7-.9c.5-.6 11.2-15.3 6.4-30.7-2.4-7.6-7.3-12.2-11.2-15.9-4.3-4.1-6.7-6.6-6.3-10.5.3-2.8 1.8-6.5 4-9.6 2.3-3.3 5.1-5.4 7.6-5.9 4.4-.8 7.8 3.9 9.8 8.1 2.4 4.9 2.8 8.8 1 10.6-1.7 1.7-5.3 1.9-8.3.4-1.1-.5-3.5-1.9-3.2-4.4.2-1.5-.9-2.9-2.4-3.1-1.5-.2-2.9.9-3.1 2.4-.5 4.2 1.9 8 6.3 10.1 2.3 1.1 5 1.6 7.5 1.5 2.9-.2 5.4-1.2 7.2-3 1.8-1.8 2.7-4.2 2.7-7.1-.2-2.7-1.2-6-3-9.7zm-56 66.4c0 .1 0 .2.1.3-.1-.1-.1-.2-.1-.3z"/></g><path fill="#FFBD00" d="M422.6 137.5c1.7.8 2.9 2.2 3.3 3.9-1.6.8-3.4.9-5.2.1s-2.9-2.2-3.3-3.9c1.6-.8 3.5-.9 5.2-.1z"/><path fill="#FFBD00" d="M422.6 137.5c1.7.8 2.9 2.2 3.3 3.9-1.6.8-3.4.9-5.2.1s-2.9-2.2-3.3-3.9c1.6-.8 3.5-.9 5.2-.1zM432.3 137.5c-1.7.8-2.9 2.2-3.3 3.9 1.6.8 3.4.9 5.2.1s2.9-2.2 3.3-3.9c-1.6-.8-3.5-.9-5.2-.1z"/><path fill="#FFBD00" d="M432.3 137.5c-1.7.8-2.9 2.2-3.3 3.9 1.6.8 3.4.9 5.2.1s2.9-2.2 3.3-3.9c-1.6-.8-3.5-.9-5.2-.1z"/></svg>
