<svg xmlns="http://www.w3.org/2000/svg" xml:space="preserve" viewBox="0 0 478 247"><g fill="none" stroke-width="2"><path stroke="#DB7474" d="M156.5 40c-3.7 1.9-4.9 4.8-3.4 8.7.1.3 0 .4-.3.3-8.2-1.9-13.1 1.2-14.7 9.3-.1.3-.3.5-.6.4-7.1-1-10.9 2-11.4 9.1 0 .4-.2.5-.5.3-5.3-3.2-10.8 1.3-9.7 7.2 0 .2-.1.4-.3.5h-.3c-6.4-3.4-12.3 2.8-10.3 9.6.1.4 0 .5-.4.3-7.1-3.1-12.5 1-11.7 8.6 0 .4-.1.6-.5.6-.3 0-.6-.1-.9-.3-.3-.2-.6-.3-.9-.3-5.3.2-8.3 2.9-9 8.1 0 .2-.2.3-.4.3-6.7-.5-10 2.6-10 9.3 0 .2-.1.3-.3.3-2.7-.8-5.5-.5-8.2.9M24.7 69.4c-3.2 1-5.1 3.3-5.9 6.9-.1.4-.3.5-.6.2-4.1-3.5-8.9.4-8.3 5.2" vector-effect="non-scaling-stroke"/><path stroke="#F4D574" d="M174.7 51.9c-1.8 1.2-3.7 1.7-5.9 1.5-.3 0-.5.1-.4.5.8 6.2-5.1 10.4-10.4 6.8-.3-.2-.4-.1-.4.2v1.7" vector-effect="non-scaling-stroke"/><path stroke="#C8C8C8" d="M99.7 112.8c-1 2.3-2.6 4.2-4.6 5.9" vector-effect="non-scaling-stroke"/><path stroke="#F4D574" d="M88.2 122c-.4 4.9-2.5 7.7-6.5 8.5-1.3.2-2.7 0-4.2-.8-.3-.2-.6-.1-.6.3-.6 2.4-1.7 4.1-3.3 5.2" vector-effect="non-scaling-stroke"/></g><path fill="#CE0000" d="M156.5 40c-3.7 1.9-4.9 4.8-3.4 8.7.1.3 0 .4-.3.3-8.2-1.9-13.1 1.2-14.7 9.3-.1.3-.3.5-.6.4-7.1-1-10.9 2-11.4 9.1 0 .4-.2.5-.5.3-5.3-3.2-10.8 1.3-9.7 7.2 0 .2-.1.4-.3.5h-.3c-6.4-3.4-12.3 2.8-10.3 9.6.1.4 0 .5-.4.3-7.1-3.1-12.5 1-11.7 8.6 0 .4-.1.6-.5.6-.3 0-.6-.1-.9-.3-.3-.2-.6-.3-.9-.3-5.3.2-8.3 2.9-9 8.1 0 .2-.2.3-.4.3-6.7-.5-10 2.6-10 9.3 0 .2-.1.3-.3.3-2.7-.8-5.5-.5-8.2.9C55.8 97.3 50 81 45.2 64.5c-1.8-6.2-4.9-10.7-11.9-9.2-7.2 1.6-10.1 6.3-8.6 14.1-3.2 1-5.1 3.3-5.9 6.9-.1.4-.3.5-.6.2-4.1-3.5-8.9.4-8.3 5.2-1.2-1.9-2.6-3.5-3.6-5.4-9.2-18.4-9.7-34 6.3-48.7 23-21 58.6-36.7 89.3-21.6 8.1 4 16.1 8.2 23.9 12.8 11 6.3 21.3 13.4 30.7 21.2z"/><path fill="#E8E8E8" d="M174.7 51.9c-1.8 1.2-3.7 1.7-5.9 1.5-.3 0-.5.1-.4.5.8 6.2-5.1 10.4-10.4 6.8-.3-.2-.4-.1-.4.2v1.7c-1.1 5.5-4.3 7.8-9.8 6.8-.4-.1-.6.1-.6.5-.5 4.7-2.9 8.1-7.2 10.3-1.1.6-3.1.7-6 .4-.4 0-.6.2-.6.6.9 6.8-3.3 11.3-10.2 9.1-.1 0-.2 0-.2.1v.1c.6 5.8-1.4 9.1-6.1 9.9-2 .4-3.6 0-4.8-1.1-.3-.2-.7-.2-.9.1-.1.1-.1.3-.1.4.2 6.1-4.9 9.9-10.6 8.1-.3-.1-.7.1-.8.4v.4c.6 1.4.6 2.7.1 4-1 2.3-2.6 4.2-4.6 5.9-1.9 1.1-4.1 1.2-6.7.5-.4-.1-.6 0-.6.5 0 .8.1 1.6.5 2.3-.4 4.9-2.5 7.7-6.5 8.5-1.3.2-2.7 0-4.2-.8-.3-.2-.6-.1-.6.3-.6 2.4-1.7 4.1-3.3 5.2-4.6 2.2-8.3 1.6-11.2-1.8-2.4-2.8-2.1-6 .8-8.2.4-.3.4-.6-.1-.7l-1.8-.7c-.2-.1-.4-.2-.5-.4-2.4-3.8-1.8-7.2 1.9-10.2 2.8-1.4 5.5-1.8 8.2-.9.2.1.3 0 .3-.3 0-6.7 3.3-9.8 10-9.3.2 0 .4-.1.4-.3.7-5.2 3.7-7.9 9-8.1.3 0 .7.1.9.3.3.2.6.3.9.3.4 0 .6-.2.5-.6-.7-7.6 4.7-11.7 11.7-8.6.4.2.5.1.4-.3-2.1-6.8 3.9-13 10.3-9.6.2.1.4 0 .6-.2 0-.1.1-.2 0-.3-1.1-5.8 4.3-10.3 9.7-7.2.3.2.5.1.5-.3.5-7.1 4.3-10.1 11.4-9.1.3 0 .5-.1.6-.4 1.6-8.1 6.5-11.3 14.7-9.3.3.1.4 0 .3-.3-1.4-3.9-.3-6.8 3.4-8.7l2.7.1c.3 0 .6-.2.7-.4 2.7-5.7 9.4-3.9 10.1 2 0 .3.2.5.5.6 4.2 1.3 6.8 5.7 4 9.7z"/><path fill="#FFC200" d="M174.7 51.9c18.1 16.4 25.8 40.4 19.8 64-3.8 14.9-12.4 28.6-20 41.9-2.6 4.6-4.6 9.4-6 14.4-1.9 6.9.3 17.8-8.2 21.3-1.4.6-4 .9-7.8.9h-50.3c-4.4 0-8.1-8.9-8.6-12.2-2.6-18.1-10.3-31.4-20.1-46.9 1.7-1.1 2.8-2.8 3.3-5.2.1-.4.3-.5.6-.3 1.5.7 2.9 1 4.2.8 3.9-.7 6.1-3.6 6.5-8.5 8.8 16.4 20 30 24.5 48.8 1 4.2 5.8 4.6 9.4 4.6 5.4 0 18.1 1.3 22.5-1.2 5.2-2.9 4.4-7.6 6-12.1 1.7-4.8 3.7-9.2 6.1-13.2 12.6-21.4 27.4-43 15.3-68.8-3.3-7-8.2-12.9-14.6-17.4v-1.7c0-.4.1-.4.4-.2 5.3 3.6 11.2-.6 10.4-6.8 0-.3.1-.5.4-.5 2.4 0 4.4-.5 6.2-1.7z"/><path fill="#E8E8E8" d="M24.7 69.4c3.8-.1 9 2.6 8.4 7.2 0 .3.1.5.5.6 4.6.4 4.9 4.6 2.1 7.3-1.3 1.2-2.8 2-4.6 2.4-.2 0-.2.1-.1.3l.2.2c.1.1.1.1.2.1 4.8-.1 2.2 12.2-5.1 6.9-.2-.2-.6-.1-.7.1l-.1.1c-.9 2.5-4.1 6.4-7 3.6-.3-.3-.6-.3-.9 0-1 1.1-2.3 1.8-3.8 2-.4.1-.7 0-1-.2-2.6-1.5-3.1-3.6-1.5-6.3.2-.4.1-.6-.3-.5-7.3.7-7.2-7.9-.6-9.2.4-.1.5-.3.3-.7l-.7-1.6c-.7-4.9 4.2-8.8 8.3-5.2.3.3.5.2.6-.2.7-3.6 2.7-5.9 5.8-6.9zM242.5 116.9v19.9c0 .4-.2.6-.6.6h-3.7c-.4 0-.6-.2-.6-.6V82.4c0-.3.2-.5.5-.5 6.1-.1 18.2-1.4 23.5 1.4 3 1.5 5.1 3.9 6.3 7 1.4 3.5 1.6 11.9.4 15.8-3.5 11.8-15.1 10-25 10-.6.1-.8.3-.8.8zm0-30.2-.1 24.2c0 .1.1.3.3.3h11.7c5.2 0 9.4-3.9 9.4-8.8v-7.2c0-4.9-4.1-8.8-9.3-8.8h-11.7c-.2 0-.3.1-.3.3zM473.6 81.9h3.9c.2 0 .4.2.4.4V137c0 .2-.2.4-.4.4h-3.9c-.2 0-.4-.2-.4-.4V82.4c0-.3.2-.5.4-.5zM344.8 97.7h9.2c.3 0 .5.2.5.5v3.5c0 .3-.2.5-.5.5h-9c-.3 0-.5.2-.5.5v25.2c0 5.1 6 4.8 9.5 4.8.3 0 .5.2.5.5v3.5c0 .3-.2.5-.5.5-9.1 1.5-14.3-3.5-14.3-12.1v-22.2c0-.4-.3-.8-.8-.8H333c-.4 0-.6-.2-.6-.6v-3.1c0-.5.2-.8.8-.8h6c.3 0 .5-.2.5-.5v-8.4c0-.4.2-.6.6-.7l3.5-.6c.3 0 .6.1.6.4v9.5c.1.3.2.4.4.4zM303.4 126.7c0 6.4-5.2 11.5-11.6 11.5h-3.6c-6.4 0-11.5-5.2-11.5-11.6v-18.1c0-6.4 5.2-11.5 11.6-11.5h3.6c6.4 0 11.5 5.2 11.5 11.6v18.1zm-4.9-18.4c0-3.8-3.1-6.8-6.8-6.8h-3.1c-3.8 0-6.8 3.1-6.8 6.8v18.6c0 3.8 3.1 6.8 6.8 6.8h3.1c3.8 0 6.8-3.1 6.8-6.8v-18.6zM317.7 101.2c2.9-3.3 6.6-4.7 11.2-4.2.4 0 .6.3.6.7v4c0 .3-.2.5-.5.5-7.9.1-11.2.7-11.2 9.6v24.9c0 .4-.3.7-.7.7h-3.3c-.5 0-.8-.2-.8-.8V98.2c0-.3.2-.5.5-.5h.5c.4 0 .6.2.8.4l2 3c.2.2.5.3.7.1h.2zM405.7 130.5l.9.6c.3.2.6.3.9.3 7.8-.1 17.1-.5 18.8 9.2 1.7 10.2-7.1 13.2-15.4 12.4-9.3-.9-12.6-10.9-7-17.8.2-.3.2-.5 0-.7-4.6-4.2-4.8-8.7-.8-13.5.2-.3.2-.5 0-.8-11.6-13.9 5.6-32.1 19.2-19.1.3.3.6.3.8-.1l1.9-2.9c.3-.5.9-.6 1.4-.3.3.2.5.5.4.8 0 16.8 1.4 25.9-19 24.8-3.5-.2-5.3 5.1-2.1 7.1zm16.3-22.4c0-3.7-3.1-6.7-6.8-6.7h-4c-3.7 0-6.7 3.1-6.7 6.8v3.7c0 3.7 3.1 6.7 6.8 6.7h4c3.7 0 6.7-3.1 6.7-6.8v-3.7zm-.1 33.9c0-3.2-2.6-5.7-5.8-5.7h-4.7c-3.2 0-5.7 2.6-5.7 5.8v.9c0 3.2 2.6 5.7 5.8 5.7h4.7c3.2 0 5.7-2.6 5.7-5.7v-1zM462.2 126.8c0 6.3-5.1 11.4-11.4 11.4h-3.6c-6.3 0-11.4-5.1-11.4-11.4v-18.4c0-6.3 5.1-11.4 11.4-11.4h3.6c6.3 0 11.4 5.1 11.4 11.4v18.4zm-4.7-18.3c0-3.9-3.2-7-7-7h-2.9c-3.9 0-7 3.2-7 7v18.2c0 3.9 3.2 7 7 7h2.9c3.9 0 7-3.2 7-7v-18.2zM364 97.7h3.3c.4 0 .7.2.7.7l.3 27.5c0 6.6 4.4 9 10.8 7.6 4.7-1 6-3.4 6-8.2V98.5c0-.4.3-.7.7-.7h3.5c.3 0 .5.2.5.5V137c0 .4-.3.7-.7.7-.2 0-.5-.1-.6-.3l-2.3-3.3c-.2-.3-.6-.3-.8-.1l-.1.1c-5.4 6.2-15.9 5.6-20.1-1.5-1.1-1.8-1.6-4.6-1.7-8.4-.2-8.6-.2-17.2 0-25.7-.2-.6.1-.8.5-.8z"/><path fill="#A8A7A7" d="M99.7 112.8c-.3 2.9-1.9 4.8-4.6 5.9 2-1.6 3.6-3.6 4.6-5.9zM308.8 170.4c6-4.9 14.9-2.3 15.3 6.1.4 8.1 2.7 21.1-9.1 21.5-6 .2-9.9-3.1-9.9-9.1v-31.4c0-.4.2-.6.6-.6h2.2c.3 0 .5.2.5.5v12.7c-.1.5 0 .6.4.3zm11.7 6c0-2.9-2.3-5.2-5.2-5.2h-1.8c-2.9 0-5.2 2.3-5.2 5.2v13.3c0 2.9 2.3 5.2 5.2 5.2h1.8c2.9 0 5.2-2.3 5.2-5.2v-13.3zM416.9 195l-2.5 2.2-.1.1c-5.5 1.8-9.4.6-11.9-3.5-2.1-3.5-1.1-11.8-1.1-16 0-8.9 8.6-12.6 15.2-7.1.3.3.5.2.5-.2v-12.6c0-.4.2-.6.6-.6h2.2c.4 0 .6.2.6.6V197c0 .4-.3.7-.7.7-.2 0-.5-.1-.6-.3l-1.5-2.3c-.1-.4-.4-.4-.7-.1zm0-18.5c0-3-2.4-5.4-5.4-5.4h-1.7c-3 0-5.4 2.4-5.4 5.4v12.9c0 3 2.4 5.4 5.4 5.4h1.7c3 0 5.4-2.4 5.4-5.4v-12.9zM429 157.2h2.3c.3 0 .6.3.6.6v3.3c0 .3-.3.6-.6.6H429c-.3 0-.6-.3-.6-.6v-3.3c0-.3.3-.6.6-.6zM256.6 168c0-.1-.2-.2-.3-.2-.1 0-.2.1-.2.2l-7.5 29.4c-.2.6-.8 1-1.4.8-.4-.1-.7-.4-.8-.8l-10.4-39c-.1-.5.1-.7.5-.7h2.4c.4 0 .6.2.7.5l7.6 29.5c0 .2.2.2.4.2.1 0 .2-.1.2-.2l7.4-29.2c.2-.7.8-1 1.5-.9.4.1.8.4.9.9l7.4 29.2c0 .2.2.3.4.2.1 0 .2-.1.2-.2l7.5-29.5c.1-.3.3-.5.6-.5h2.5c.5 0 .7.2.5.7l-10.2 38.8c-.2.6-.8 1-1.4.9-.4-.1-.8-.4-.9-.9l-7.6-29.2zM357 172.7h-4.1c-.4 0-.6-.2-.6-.6v-2c0-.4.2-.6.6-.6h4.1c.3 0 .5-.2.5-.5v-5.9c0-.4.2-.6.6-.7l2.2-.3c.5-.1.7.1.7.6v6.3c0 .3.2.5.5.5h6.2c.3 0 .5.1.5.5l.2 2.3c0 .3-.2.5-.4.5h-6.5c-.3 0-.5.2-.5.5V191c0 3.6 4 4.2 6.7 4 .4 0 .6.1.6.5v2c0 .4-.2.6-.6.7-8 1.2-10.2-3.7-10.2-10.7v-14.2c0-.5-.2-.6-.5-.6zM334.9 182c-3.8-3.1-4.8-6.4-2.9-9.7 4-7.1 15.8-5.8 16.1 3.2 0 .4-.2.7-.6.7l-2.1.5c-.3.1-.6-.1-.7-.5v-.2c.3-3-.9-4.7-3.6-5.3-6.7-1.5-9.6 6.3-2.9 9.3 3 1.4 7.6 2.8 9.1 6 5.8 11.6-14 18.4-16.8 4.1-.1-.4.2-.8.6-.8l2.3-.4c.3 0 .6.2.7.5l.3 2.8c0 .3.1.6.4.8 3.3 3.6 10.5 2.8 10.2-3.2-.4-5.4-7-5.3-10.1-7.8zM391.9 195c-.1-.1-.3-.2-.4-.1-4.2 4.4-12.9 4.4-15.6-1.7-.5-1.2-.8-3.2-.8-5.9-.1-6.2-.1-12.5 0-18.7 0-.5.2-.7.7-.7h2.3c.4 0 .6.2.6.6-.1 6.4-.1 12.8 0 19.1 0 3.3.5 5.9 4.1 7 4.3 1.3 8.9-.6 8.9-5.8v-20.2c0-.5.3-.8.8-.8h2.2c.3 0 .5.2.5.5v28.8c0 .4-.3.7-.7.7-.2 0-.4-.1-.6-.3l-2-2.5zM282.3 183.6c-1 6.2.1 13 7.8 11.2 3.2-.7 4.6-2.7 4.4-6.1 0-.4.2-.6.6-.6l2.2.1c.5 0 .7.3.7.7-.3 10.3-13.9 12.3-18 4.5-2-3.7-1.1-10.4-1.1-14.8 0-6.7 2.6-10.5 9.7-10.5 8.9.1 10.3 7.1 9.3 14.5 0 .3-.2.5-.6.5h-14.5c-.3.1-.5.2-.5.5zm.3-2.9h11.2c.4 0 .7-.3.7-.7v-3.3c0-3-2.5-5.5-5.5-5.5h-1.6c-3 0-5.4 2.5-5.4 5.5v3.3c0 .4.3.7.6.7zM458.2 189.6c0 4.6-3.7 8.3-8.3 8.3h-2.4c-4.6 0-8.3-3.7-8.3-8.3v-13.1c0-4.6 3.7-8.3 8.3-8.3h2.4c4.6 0 8.3 3.7 8.3 8.3v13.1zm-3.4-13.2c0-2.9-2.3-5.2-5.2-5.2h-1.9c-2.9 0-5.2 2.3-5.2 5.2v13.4c0 2.9 2.3 5.2 5.2 5.2h1.9c2.9 0 5.2-2.3 5.2-5.2v-13.4zM428.9 168.7h2.6c.2 0 .4.2.4.4V198c0 .2-.2.4-.4.4h-2.6c-.2 0-.4-.2-.4-.4v-28.9c0-.2.2-.4.4-.4z"/><path fill="#FFC200" d="M107.5 201.7h47.1c5.3 0 9.5 4.3 9.5 9.5v.9c0 5.3-4.3 9.5-9.5 9.5h-47.1c-5.3 0-9.5-4.3-9.5-9.5v-.9c0-5.3 4.2-9.5 9.5-9.5zM121.3 227.9h19.4c3.9 0 7 3.2 7 7.1v4.9c0 3.9-3.2 7-7.1 7h-19.4c-3.9 0-7-3.2-7-7.1v-4.9c.1-3.8 3.2-7 7.1-7z"/></svg>
