<svg xmlns="http://www.w3.org/2000/svg" xmlns:xlink="http://www.w3.org/1999/xlink" xml:space="preserve" viewBox="0 0 426.4 333.4"><path fill="#FFC200" d="M54.9 288.1h47.8c5.1 0 9.1 4.1 9.1 9.1v1.7c0 5.1-4.1 9.1-9.1 9.1H54.9c-5.1 0-9.1-4.1-9.1-9.1v-1.7c-.1-5 4-9.1 9.1-9.1z"/><defs><path id="a" d="M61.3 313.3H96v20.1H61.3z"/></defs><clipPath id="b"><use xlink:href="#a" overflow="visible"/></clipPath><g clip-path="url(#b)"><path fill="#FFC200" d="M69.1 314.3h19.3c4 0 7.2 3.2 7.2 7.2v4.8c0 4-3.2 7.2-7.2 7.2H69.1c-4 0-7.2-3.2-7.2-7.2v-4.8c.1-4 3.3-7.2 7.2-7.2z"/></g><defs><path id="c" d="M12 121.4h133.3v159.9H12z"/></defs><clipPath id="d"><use xlink:href="#c" overflow="visible"/></clipPath><g clip-path="url(#d)"><path fill="#FFC200" fill-rule="evenodd" d="M41.1 265.4c-.5 8.4 6.4 16.4 9.9 15.4h53.4c6.1-.4 9.6-5 10.8-13.6-1.2-22.8 27.5-43.5 28.9-78.7 1.4-35.2-27.3-66-65.2-67-37.9-1-66.9 29.2-67 65.2.2 35.9 22.8 43.5 29.2 78.7zm18.2-12.7c1.8 7.3 1.4 8.9 9.9 9h19c3.7.4 8.1-2.7 9.1-8.2 2.2-17.6 26.2-40.1 27.1-65.2 1-25.2-18.5-47.3-45.5-47.9-26.9-.6-45.1 21.5-46.8 47.1-1.7 25.7 21 40 27.2 65.2z" clip-rule="evenodd"/></g><defs><path id="e" d="M184 168h242.4v72H184z"/></defs><clipPath id="f"><use xlink:href="#e" overflow="visible"/></clipPath><g clip-path="url(#f)"><path fill="#ECECEC" fill-rule="evenodd" d="M216.6 188.8c0 1.9-.4 3.7-1.1 5.4-.7 1.7-1.7 3.1-2.9 4.4-1.2 1.2-2.7 2.2-4.4 2.9-1.7.7-3.5 1.1-5.4 1.1h-12.6V224h-5v-55.7h17.6c1.9 0 3.7.4 5.4 1.1 1.7.7 3.1 1.7 4.4 2.9 1.2 1.2 2.2 2.7 2.9 4.4.7 1.7 1.1 3.5 1.1 5.4v6.7zm-5.1 0v-7c0-1.2-.2-2.4-.7-3.5-.5-1.1-1.1-2-1.9-2.9-.8-.8-1.8-1.5-2.9-1.9-1.1-.5-2.2-.7-3.5-.7h-12.3v24.8h12.4c1.2 0 2.4-.2 3.5-.7 1.1-.5 2-1.1 2.9-1.9.8-.8 1.5-1.8 1.9-2.8.4-1 .6-2.1.6-3.4zm39.6 24.1c0 1.6-.3 3.1-.9 4.6-.6 1.4-1.5 2.7-2.5 3.8-1.1 1.1-2.3 1.9-3.8 2.5-1.4.6-3 .9-4.6.9h-3.2c-1.6 0-3.1-.3-4.6-.9-1.4-.6-2.7-1.5-3.8-2.5-1.1-1.1-1.9-2.3-2.5-3.8-.6-1.4-.9-3-.9-4.6V195c0-1.6.3-3.1.9-4.6.6-1.4 1.5-2.7 2.5-3.8 1.1-1.1 2.3-1.9 3.8-2.5 1.4-.6 3-.9 4.6-.9h3.2c1.6 0 3.1.3 4.6.9 1.4.6 2.7 1.5 3.8 2.5 1.1 1.1 1.9 2.3 2.5 3.8.6 1.4.9 3 .9 4.6v17.9zm-4.8.3v-18.5c0-1-.2-1.9-.5-2.7-.4-.8-.9-1.6-1.5-2.2-.6-.6-1.4-1.1-2.2-1.5-.8-.4-1.8-.5-2.7-.5h-3.2c-1 0-1.9.2-2.7.5-.8.4-1.6.9-2.2 1.5-.6.6-1.1 1.4-1.5 2.2-.4.8-.5 1.8-.5 2.7v18.5c0 1 .2 1.9.5 2.7.4.8.9 1.6 1.5 2.2.6.6 1.4 1.1 2.2 1.5s1.8.5 2.7.5h3.2c1 0 1.9-.2 2.7-.5.8-.4 1.6-.9 2.2-1.5.6-.6 1.1-1.4 1.5-2.2.3-.8.5-1.7.5-2.7zm30.8-24.5h-4.8c-1 0-1.9.2-2.7.5-.8.4-1.6.9-2.2 1.5-.6.6-1.1 1.4-1.5 2.2-.4.8-.5 1.8-.5 2.7v28.3h-4.8v-39.8h1.6l2.6 4.1c1.1-1.5 2.5-2.7 4.1-3.5 1.7-.9 3.5-1.3 5.4-1.3h2.8v5.3zm25.2 35.2h-4.4c-1.5 0-2.8-.3-4.1-.8-1.3-.5-2.4-1.3-3.4-2.3-1-1-1.7-2.1-2.3-3.4-.6-1.3-.8-2.6-.8-4.1v-24.7h-7.2V184h7.2v-9.5l4.8-.8V184h10.1v4.6h-10.1v25c0 .8.1 1.6.5 2.2.3.7.7 1.3 1.2 1.8s1.1.9 1.8 1.2c.7.3 1.5.4 2.3.4h4.4v4.7zm35.4 0h-1.6l-2.7-4.1c-1.1 1.5-2.5 2.7-4.1 3.5-1.6.9-3.4 1.3-5.4 1.3h-1.2c-1.6 0-3.1-.3-4.6-.9-1.4-.6-2.7-1.5-3.8-2.5-1.1-1.1-1.9-2.3-2.5-3.8-.6-1.4-.9-3-.9-4.6V184h4.8v29.1c0 1 .2 1.9.5 2.7.4.8.9 1.6 1.5 2.2.6.6 1.4 1.1 2.2 1.5.8.4 1.8.5 2.7.5h3.2c1 0 1.9-.2 2.7-.5.8-.4 1.6-.9 2.2-1.5.6-.6 1.1-1.4 1.5-2.2.4-.8.5-1.8.5-2.7v-29h4.8v39.8h.2zm36.5 5c0 1.6-.3 3.1-.9 4.5-.6 1.4-1.5 2.5-2.5 3.5-1.1 1-2.3 1.7-3.8 2.2-1.4.5-3 .8-4.6.8h-2c-1.6 0-3.1-.3-4.6-.8-1.4-.5-2.7-1.3-3.8-2.2-1.1-1-1.9-2.1-2.5-3.5-.6-1.4-.9-2.8-.9-4.5v-.2c0-1.6.3-3 .9-4.3.6-1.3 1.4-2.4 2.3-3.4-1.2-.8-2.2-1.8-3-3.1-.7-1.3-1.1-2.7-1.1-4.3 0-1.4.3-2.7.9-3.9.6-1.2 1.4-2.2 2.5-2.9-1.3-1.1-2.2-2.4-3-3.9-.7-1.5-1.1-3.2-1.1-5v-3c0-1.6.3-3.1.9-4.6.6-1.4 1.5-2.7 2.5-3.8 1.1-1.1 2.3-1.9 3.8-2.5 1.4-.6 3-.9 4.6-.9h2c2 0 3.8.4 5.4 1.3 1.7.9 3 2.1 4.1 3.5l2.6-4.1h1.6V198c0 1.6-.3 3.1-.9 4.6-.6 1.4-1.5 2.7-2.5 3.8-1.1 1.1-2.3 1.9-3.8 2.5-1.4.6-3 .9-4.6.9h-7c-.5 0-1.1.1-1.6.3-.5.2-.9.5-1.3.9s-.7.8-.9 1.3c-.2.5-.3 1-.3 1.6 0 .5.1 1.1.3 1.6.2.5.5.9.9 1.3s.8.7 1.3.9c.5.2 1 .3 1.6.3h6.6c1.6 0 3.1.3 4.6.8 1.4.5 2.7 1.3 3.8 2.2 1.1 1 1.9 2.1 2.5 3.5.6 1.3.9 2.6 1 4.4zm-4.4-30.6v-3.6c0-1-.2-1.9-.5-2.7-.4-.8-.9-1.6-1.5-2.2-.6-.6-1.4-1.1-2.2-1.5-.8-.4-1.8-.5-2.7-.5h-4c-1 0-1.9.2-2.7.5-.8.4-1.6.9-2.2 1.5-.6.6-1.1 1.4-1.5 2.2-.4.8-.5 1.8-.5 2.7v3.6c0 1 .2 1.9.5 2.7.4.8.9 1.6 1.5 2.2.6.6 1.4 1.1 2.2 1.5.8.4 1.8.5 2.7.5h4c1 0 1.9-.2 2.7-.5.8-.4 1.6-.9 2.2-1.5.6-.6 1.1-1.4 1.5-2.2.3-.9.5-1.8.5-2.7zm-.2 30.8v-.6c0-1-.2-1.8-.5-2.6-.4-.8-.9-1.4-1.5-1.9s-1.4-.9-2.2-1.2-1.8-.4-2.7-.4h-2.5c-1 0-1.9.1-2.7.4-.8.3-1.6.7-2.2 1.2-.6.5-1.1 1.2-1.5 1.9-.4.8-.5 1.6-.5 2.6v.6c0 1 .2 1.8.5 2.6.4.8.9 1.4 1.5 1.9s1.4.9 2.2 1.2c.8.3 1.8.4 2.7.4h2.5c1 0 1.9-.1 2.7-.4s1.6-.7 2.2-1.2c.6-.5 1.1-1.2 1.5-1.9.3-.8.5-1.6.5-2.6zm40.3-16.2c0 1.6-.3 3.1-.9 4.6-.6 1.4-1.5 2.7-2.5 3.8-1.1 1.1-2.3 1.9-3.8 2.5-1.4.6-3 .9-4.6.9H395c-1.6 0-3.1-.3-4.6-.9-1.4-.6-2.7-1.5-3.8-2.5-1.1-1.1-1.9-2.3-2.5-3.8-.6-1.4-.9-3-.9-4.6V195c0-1.6.3-3.1.9-4.6.6-1.4 1.5-2.7 2.5-3.8 1.1-1.1 2.3-1.9 3.8-2.5 1.4-.6 3-.9 4.6-.9h3.2c1.6 0 3.1.3 4.6.9 1.4.6 2.7 1.5 3.8 2.5 1.1 1.1 1.9 2.3 2.5 3.8.6 1.4.9 3 .9 4.6l-.1 17.9zm-4.8.3v-18.5c0-1-.2-1.9-.5-2.7-.4-.8-.9-1.6-1.5-2.2-.6-.6-1.4-1.1-2.2-1.5-.8-.4-1.8-.5-2.7-.5H395c-1 0-1.9.2-2.7.5-.8.4-1.6.9-2.2 1.5-.6.6-1.1 1.4-1.5 2.2-.4.8-.5 1.8-.5 2.7v18.5c0 1 .2 1.9.5 2.7.4.8.9 1.6 1.5 2.2.6.6 1.4 1.1 2.2 1.5s1.8.5 2.7.5h3.2c1 0 1.9-.2 2.7-.5.8-.4 1.6-.9 2.2-1.5.6-.6 1.1-1.4 1.5-2.2.3-.8.5-1.7.5-2.7zm20.7 10.7H421v-55.7h4.8v55.7z" clip-rule="evenodd"/></g><path fill="#A8A7A7" fill-rule="evenodd" stroke="#A8A7A7" stroke-miterlimit="9.944" stroke-width=".746" d="M295.7 276.2v.9c0 1-.2 1.9-.6 2.8-.4.9-.9 1.6-1.6 2.2-.7.6-1.4 1.1-2.3 1.5-.9.4-1.8.6-2.8.6h-2.1c-1 0-1.9-.2-2.8-.6-.9-.4-1.6-.9-2.3-1.5-.7-.6-1.2-1.4-1.6-2.2-.4-.9-.6-1.8-.6-2.8V276l2.6-.4v1.6c0 .6.1 1.2.4 1.8.3.6.6 1 1.1 1.5.4.4 1 .8 1.5 1 .6.2 1.2.4 1.8.4h1.8c.6 0 1.3-.1 1.8-.4.6-.2 1.1-.6 1.5-1 .4-.4.8-.9 1.1-1.5.3-.6.4-1.2.4-1.8v-.9c0-1-.2-1.8-.6-2.5-.4-.7-.9-1.2-1.5-1.7s-1.4-.9-2.2-1.2c-.8-.3-1.6-.6-2.5-1-.9-.3-1.7-.7-2.5-1.1-.8-.4-1.5-.9-2.2-1.5-.6-.6-1.2-1.3-1.5-2.1-.4-.8-.6-1.9-.6-3.1v-.5c0-1 .2-1.9.6-2.8s.9-1.6 1.5-2.2c.6-.6 1.4-1.1 2.3-1.5s1.8-.6 2.8-.6h1.8c1 0 1.9.2 2.8.6.9.4 1.6.9 2.2 1.5.6.6 1.1 1.4 1.5 2.2.4.9.6 1.8.6 2.8v.7l-2.6.4v-1.2c0-.6-.1-1.2-.4-1.8-.2-.6-.6-1-1-1.5-.4-.4-.9-.7-1.5-1-.6-.2-1.2-.4-1.8-.4h-1.6c-.6 0-1.2.1-1.8.4-.6.2-1 .6-1.5 1-.4.4-.8.9-1 1.5-.2.6-.4 1.2-.4 1.8v.5c0 .9.2 1.7.6 2.3.4.6.9 1.2 1.5 1.6.6.4 1.4.8 2.2 1.2.8.3 1.6.7 2.5 1 .9.3 1.7.7 2.5 1.1.8.4 1.5.9 2.2 1.5.6.6 1.2 1.3 1.5 2.2.6 1 .8 2.1.8 3.3z" clip-rule="evenodd"/><path fill="#A8A7A7" fill-rule="evenodd" d="M224.6 244.1 214 284.4h-1.9l-7.9-30.4-.1-1.5-.2 1.6-7.8 30.4h-1.9l-10.7-40.4h3.7l8 30.7.1 1.5.1-1.5 7.8-30.7h2l7.8 30.7.1 1.5.1-1.5 7.9-30.7h3.5zm21 31.9c0 1.2-.2 2.3-.7 3.3-.4 1-1.1 1.9-1.8 2.7-.8.8-1.7 1.4-2.7 1.8-1 .4-2.1.7-3.3.7h-2.3c-1.2 0-2.3-.2-3.3-.7-1-.4-1.9-1.1-2.7-1.8-.8-.8-1.4-1.7-1.8-2.7-.4-1-.7-2.1-.7-3.3v-13c0-1.2.2-2.3.7-3.3.4-1 1.1-1.9 1.8-2.7.8-.8 1.7-1.4 2.7-1.8 1-.4 2.1-.7 3.3-.7h2.3c1.2 0 2.3.2 3.3.7 1 .4 1.9 1.1 2.7 1.8.8.8 1.4 1.7 1.8 2.7.4 1 .7 2.1.7 3.3v6.8h-15.8v6.5c0 .7.1 1.4.4 2 .3.6.6 1.1 1.1 1.6.5.5 1 .8 1.6 1.1.6.3 1.3.4 2 .4h2.3c.7 0 1.4-.1 2-.4.6-.3 1.1-.6 1.6-1.1.5-.5.8-1 1.1-1.6.3-.6.4-1.3.4-2v-1.9l3.5.6-.2 1zm-3.5-9v-4.3c0-.7-.1-1.4-.4-2-.3-.6-.6-1.1-1.1-1.6-.5-.5-1-.8-1.6-1.1s-1.3-.4-2-.4h-2.3c-.7 0-1.4.1-2 .4-.6.3-1.1.6-1.6 1.1-.5.5-.8 1-1.1 1.6-.3.6-.4 1.3-.4 2v4.3h12.5zm29.6 9c0 1.2-.2 2.3-.7 3.3-.4 1-1.1 1.9-1.8 2.7-.8.8-1.7 1.4-2.7 1.8-1 .4-2.1.7-3.3.7H261c-1.2 0-2.3-.2-3.3-.7-1-.4-1.9-1.1-2.7-1.8-.8-.8-1.4-1.7-1.8-2.7-.4-1-.7-2.1-.7-3.3v-32.5h3.5v13.9c.8-.9 1.7-1.7 2.9-2.2 1.1-.5 2.3-.8 3.6-.8h.9c1.2 0 2.3.2 3.3.7 1 .4 1.9 1.1 2.7 1.8.8.8 1.4 1.7 1.8 2.7.4 1 .7 2.1.7 3.3V276h-.2zm-3.4.2v-13.4c0-.7-.1-1.4-.4-2-.3-.6-.6-1.1-1.1-1.6-.5-.5-1-.8-1.6-1.1-.6-.3-1.3-.4-2-.4h-2.3c-.7 0-1.4.1-2 .4-.6.3-1.1.6-1.6 1.1-.5.5-.8 1-1.1 1.6-.3.6-.4 1.3-.4 2v13.4c0 .7.1 1.4.4 2 .3.6.6 1.1 1.1 1.6.5.5 1 .8 1.6 1.1.6.3 1.3.4 2 .4h2.3c.7 0 1.4-.1 2-.4.6-.3 1.1-.6 1.6-1.1.5-.5.8-1 1.1-1.6.3-.7.4-1.3.4-2zm47.6 8.4h-3.2c-1.1 0-2.1-.2-3-.6-.9-.4-1.7-.9-2.4-1.6-.7-.7-1.2-1.5-1.6-2.4-.4-.9-.6-1.9-.6-3v-17.9H300v-3.3h5.2v-7l3.5-.6v7.5h7.4v3.3h-7.4v18.1c0 .6.1 1.1.3 1.6.2.5.5.9.9 1.3s.8.7 1.3.9c.5.2 1.1.3 1.6.3h3.2v3.4zm26.7-.6h-1.2l-1.9-3c-.8 1.1-1.8 1.9-3.1 2.7-1.2.6-2.6.9-4 .9h-.9c-1.2 0-2.4-.2-3.4-.7-1-.4-1.9-1.1-2.8-1.8-.8-.8-1.4-1.8-1.9-2.8-.4-1-.7-2.2-.7-3.4v-21.6h3.6v21.8c0 .7.1 1.4.4 2.1.3.6.6 1.1 1.1 1.6.5.5 1 .8 1.6 1.1.6.3 1.3.4 2.1.4h2.4c.7 0 1.4-.1 2.1-.4.6-.3 1.1-.6 1.6-1.1.5-.5.8-1 1.1-1.6.3-.6.4-1.3.4-2.1v-21.8h3.6V284h-.1zm25.5-.2h-1.2l-1.9-2.9c-.8 1.1-1.8 1.9-3 2.6-1.2.6-2.5.9-3.9.9h-.9c-1.2 0-2.3-.2-3.3-.7-1-.4-1.9-1.1-2.7-1.8-.8-.8-1.4-1.7-1.8-2.7-.4-1-.7-2.1-.7-3.3v-13c0-1.2.2-2.3.7-3.3.4-1 1.1-1.9 1.8-2.7.8-.8 1.7-1.4 2.7-1.8 1-.4 2.1-.7 3.3-.7h.9c1.3 0 2.5.3 3.6.8s2.1 1.3 2.9 2.2v-13.9h3.5v40.3zm-3.5-7.6v-13.4c0-.7-.1-1.4-.4-2-.3-.6-.6-1.1-1.1-1.6-.5-.5-1-.8-1.6-1.1-.6-.3-1.3-.4-2-.4h-2.3c-.7 0-1.4.1-2 .4-.6.3-1.1.6-1.6 1.1-.5.5-.8 1-1.1 1.6-.3.6-.4 1.3-.4 2v13.4c0 .7.1 1.4.4 2 .3.6.6 1.1 1.1 1.6.5.5 1 .8 1.6 1.1.6.3 1.3.4 2 .4h2.3c.7 0 1.4-.1 2-.4.6-.3 1.1-.6 1.6-1.1.5-.5.8-1 1.1-1.6.3-.7.4-1.3.4-2zm14.8-28.1h-3c-.1 0-.2-.1-.2-.2v-4.1c0-.1.1-.2.2-.2h3.1c.1 0 .2.1.2.2v4.1c0 .1-.1.2-.3.2zm.3 36.6h-3.6V255h3.6v29.7zM406 276c0 1.2-.2 2.3-.7 3.3-.4 1-1.1 1.9-1.8 2.7-.8.8-1.7 1.4-2.7 1.8-1 .4-2.1.7-3.3.7h-2.3c-1.2 0-2.3-.2-3.3-.7-1-.4-1.9-1.1-2.7-1.8-.8-.8-1.4-1.7-1.8-2.7-.4-1-.7-2.1-.7-3.3v-13c0-1.2.2-2.3.7-3.3.4-1 1.1-1.9 1.8-2.7.8-.8 1.7-1.4 2.7-1.8 1-.4 2.1-.7 3.3-.7h2.3c1.2 0 2.3.2 3.3.7 1 .4 1.9 1.1 2.7 1.8.8.8 1.4 1.7 1.8 2.7.4 1 .7 2.1.7 3.3v13zm-3.5.2v-13.4c0-.7-.1-1.4-.4-2-.3-.6-.6-1.1-1.1-1.6-.5-.5-1-.8-1.6-1.1-.6-.3-1.3-.4-2-.4h-2.3c-.7 0-1.4.1-2 .4-.6.3-1.1.6-1.6 1.1-.5.5-.8 1-1.1 1.6-.3.6-.4 1.3-.4 2v13.4c0 .7.1 1.4.4 2 .3.6.6 1.1 1.1 1.6.5.5 1 .8 1.6 1.1.6.3 1.3.4 2 .4h2.3c.7 0 1.4-.1 2-.4.6-.3 1.1-.6 1.6-1.1.5-.5.8-1 1.1-1.6.3-.7.4-1.3.4-2z" clip-rule="evenodd"/><path fill="#FFC200" d="M18.3 28.1c-9.4 25.1 7.6 71 28.4 93.7 2.7 2.9 6.5 2 6.9-1.8 1.9-15.4-.5-32.3-4.4-47.9-6.5-27.3-26.5-55.8-30.9-44z"/><defs><path id="g" d="M0 0h181.3v156.5H0z"/></defs><clipPath id="h"><use xlink:href="#g" overflow="visible"/></clipPath><g clip-path="url(#h)"><path fill="#FFC200" d="M179.8 74.7c-1.1-2.6-3.8-4.1-5.5-6.3-8.7-9.7-14.1-24-23.2-34.2C131 12.5 103.6 21.5 93 47c-4.8 11.6-7.9 24-9.5 36.4-1.6 13.2-1.5 26.5.3 39.7-.7-.1-1.4-.2-2.1-.2l-2.3-.1-2.2-.1h-2c-2.8.1-5.5.3-8.2.7 2.6-32.6-1-70.5-18.2-97.5C41 13.7 28.4-.4 12.2.4c-1.2.1-2.5.8-3 1.8C0 19-.6 40.4 1.8 56.1 3.5 68 7.4 80.4 12.3 91.6c2.8 6.3 6 12.4 9.6 18.3 3.9 6.4 13.1 18.8 18.7 23.4-1.4.9-2.7 1.8-4 2.7-5.8 4.2-10.2 9.1-13 13-2.8 4-4 6.9-3.8 7.4.8-.7 1.6-1.5 2.3-2.3.5-.6 1.1-1.1 1.7-1.8l1-1 .5-.6c.2-.2.4-.4.6-.5 3.6-3.7 7.5-6.9 11.7-9.7 4.9-3.2 10.1-5.8 15.7-7.7 4.9-1.7 9.9-2.8 15.1-3.3l3.2-.2c.5 0 1.1-.1 1.6-.1H78l3.2.1c5.6.2 11.1 1.1 16.4 2.6.4.1.7.2 1.1.3l3.3 1.1.6.2.5.2 1.1.4 2.2.9 3.2 1.5c.4.2.7.3 1 .5l2 1.1 1 .5 1 .6c4.7 2.8 9 6.2 13 10 1.7 1.6 3.1 3.2 4.3 4.4 1.1 1.3 2.1 2.3 2.8 3 .1-.2-.2-1.1-.9-2.4-.2-.3-.4-.7-.6-1.1-.2-.4-.5-.8-.8-1.2-.3-.4-.6-.9-.9-1.4-.3-.5-.6-1-1.1-1.5l-1.2-1.6c-.4-.5-.9-1.1-1.4-1.7l-1.6-1.7-.8-.9-.9-.9-1.9-1.8c-.6-.6-1.3-1.1-2-1.7-1.4-1.2-2.9-2.3-4.5-3.4-.5-.3-.9-.6-1.4-.9 8.6-8 18.7-26.8 23.9-37.8 1.2-2.7 2.4-5.5 3.4-8.3 19.6 5.2 42.4-3.4 37.8-13.6zM62.7 124.2c-2 .4-4.2 1-6.3 1.7-3.5 1.1-7 2.6-10.3 4.2-.5.3-1.1.6-1.6.9C15.1 101.4-7.6 45.2 13.1 4.7c9.9-.1 20 8.4 25.8 15.8 13 16.5 18.7 39.2 21.5 59.2 2 14.6 2.4 29.6 2.3 44.5zm112.6-45.5c-8.3 7.2-20.7 7.7-32 5-11.4-2.7-20.2-13.5-25.4-23.8-2.5-4.8-7.3-14.1-12.7-13.5-1.1.3 1.2 1.7 2.8 4.3.2.4.4.9.6 1.3-7.5 20.7-13.2 50.5-9 66.3.2.9.7 1.6 1.3 2.2s1.4 1.1 2.2 1.3c.9.2 1.7.2 2.6 0 .8-.2 1.6-.7 2.2-1.3 7.6-7.6 16.1-25.4 20.5-39.5 2.7 2.3 5.7 4.1 9 5.6-2.3 6.2-5 12.2-8 18-4.1 7.9-11.5 20.3-18.1 27.5-1.7-1-3.5-1.9-5.3-2.7-1.8-.9-3.7-1.6-5.5-2.3-.9-.3-1.9-.6-2.8-.9-.9-.3-1.9-.6-2.8-.8-1.9-.5-3.7-1-5.5-1.3h-.1c-3.4-23.6-2.4-78.7 24.1-93.9 11.7-6.8 26.8-2.2 35.6 7.2 10 11.8 15.5 26.8 26.4 38 .8.6.8 2.6-.1 3.3z"/></g><defs><path id="i" d="M7.7 189.3h142.9V228H7.7z"/></defs><clipPath id="j"><use xlink:href="#i" overflow="visible"/></clipPath><g clip-path="url(#j)"><path fill="#F3A05A" d="M99.4 224.2c-7.7 2.7-18.9-1.8-19.2-10.9 23.4-10.9 13.4-31.8-.5-18.7-8.5-11.4-25.7 1.9-2 18.2-.3 10.2-14.7 15.8-22.4 9.8-.4-.3-.7-.7-.9-1.1-1.3-1.4-2.7.5-1.6 1.7 6.8 8.3 22.3 4.5 26.2-5 3.4 7.3 12.7 10.9 20.3 8.9 2.2-.7 7.2-2.7 5.7-5.7-1.6-1.7-2.6 2.1-5.6 2.8zm-35.5-16.3c1 1.9.9 2.4.6 2.6-.1.1-.2.1-.4.1-.4 0-.8-.3-1-.5-8.8-9.8-21.8-15.1-40-16.1-.1 0-.2 0-.3-.1-.1-.1-.1-.2-.1-.3 0-.1 0-.2.1-.3.1-.1.2-.1.3-.1 7-.6 15.1.5 22.4 2.8 5.7 1.8 13.6 5.4 18.4 11.9zm-55.5-1.3c-.2.1-.4 0-.5-.2-.1-.2 0-.4.2-.5 14-7.2 39.4-5 51.4 4.4 1.9 1.7 1.9 2.2 1.7 2.5-.1.2-.3.3-.5.3-.3 0-.7-.1-1.1-.3h-.1c-16.4-9.9-33.1-11.9-51.1-6.2zm48.1 9.8c-15.3-4.4-27.1-3.8-39.3 1.8-.2.1-.4.1-.5-.2-.1-.2-.1-.4.1-.6 9-6.7 28.9-8.4 39.5-3.3 1.6.9 1.8 1.4 1.7 1.8-.2.6-1 .5-1.5.5.1 0 .1 0 0 0zm78.9-23.3c.1 0 .2.1.3.1.1.1.1.2.1.3 0 .1 0 .2-.1.3-.1.1-.2.1-.3.1-18.1 1-31.2 6.3-40 16.1h-.1c-.2.2-.7.5-1 .5-.1 0-.3 0-.4-.1-.3-.2-.4-.7.6-2.6 4.8-6.5 12.7-10.1 18.5-12 7.3-2.2 15.4-3.3 22.4-2.7zm15.2 13.2c0 .1-.1.2-.2.2s-.2.1-.3 0c-18-5.7-34.7-3.7-51.1 6.1h-.1c-.4.1-.8.3-1.1.3-.2 0-.4-.1-.5-.3-.2-.3-.2-.8 1.7-2.5 12-9.5 37.5-11.7 51.4-4.4.2.2.3.4.2.6zm-8.9 11.2c.2.1.2.3.1.6-.1.2-.3.3-.5.2-12.2-5.6-24-6.2-39.3-1.8h-.1c-.4 0-1.2.1-1.3-.5-.1-.4.1-.9 1.7-1.8 10.4-5.1 30.4-3.4 39.4 3.3z"/></g><defs><path id="k" d="M220 180h37.3v45H220z"/></defs><clipPath id="l"><use xlink:href="#k" overflow="visible"/></clipPath><g clip-path="url(#l)"><path fill="#F3A05A" d="M255.9 202.5c1.7 12.3-6 22.5-17.8 22.5s-19.5-10.2-17.8-22.5c1.7-12.3 9.4-22.5 17.8-22.5s16.1 10.2 17.8 22.5z"/><path fill="#FFBD00" d="m247.9 184.7-27 26.8c-.5-2.1-.8-4.3-.7-6.7l23.5-23.3c1.5.8 2.9 1.9 4.2 3.2zm-8.6-4.6c-.4 0-.8-.1-1.2-.1-7.3 0-14 7.8-16.8 17.9l18-17.8zm16.7 28.8-16.2 16c8.8-.7 15-7.3 16.2-16zm-2.8-16.1c-.8-1.7-1.7-3.3-2.6-4.8l-28 27.8c.8 1.6 1.9 3 3.2 4.2l27.4-27.2zm-19.5 31.7 22.3-21.3v-.4c-.2-2-.7-3.7-1.2-5.6l-26.3 25c1.6 1.1 3.3 1.8 5.2 2.3z"/></g><defs><path id="m" d="M378.7 181.5H416v44h-37.3z"/></defs><clipPath id="n"><use xlink:href="#m" overflow="visible"/></clipPath><g clip-path="url(#n)"><path fill="#F3A05A" d="M414.5 203.5c1.7 12-5.8 22-17.3 22s-19-10-17.3-22 9.2-22 17.3-22c8.1 0 15.6 10 17.3 22z"/></g><defs><path id="o" d="M378.7 181.5h36v44h-36z"/></defs><clipPath id="p"><use xlink:href="#o" overflow="visible"/></clipPath><g clip-path="url(#p)"><path fill="#FFBD00" d="m406.6 186.1-26.3 26.2c-.5-2-.8-4.2-.7-6.5l22.9-22.8c1.5.7 2.8 1.8 4.1 3.1zm-8.3-4.6c-.4 0-.8-.1-1.1-.1-7.1 0-13.7 7.6-16.4 17.5l17.5-17.4zm16.2 28.2-15.7 15.7c8.5-.7 14.6-7.1 15.7-15.7zm-2.7-15.7c-.7-1.7-1.6-3.2-2.6-4.7l-27.3 27.2c.8 1.5 1.9 2.9 3.1 4.1l26.8-26.6zm-19 31 21.7-20.8v-.4c-.2-1.9-.7-3.7-1.2-5.4l-25.6 24.5c1.6.9 3.3 1.6 5.1 2.1z"/></g></svg>
