<svg xmlns="http://www.w3.org/2000/svg" viewBox="0 0 824 583.685"><g fill-rule="evenodd"><path fill="#009440" d="M0 0h824v583.685H0Z"/><path fill="#ffcb00" d="M411.84 69.622 69.06 291.8l342.78 222.176 342.777-222.175Z"/><path fill="#302681" d="M413.998 147.5c80.73 0 146.2 65.47 146.2 146.199 0 80.73-65.47 146.199-146.2 146.199-80.73 0-146.2-65.47-146.2-146.2 0-80.729 65.47-146.198 146.2-146.198z"/><path fill="#fff" d="m455.272 241.37 2.064 5.198 5.58.357-4.304 3.568 1.385 5.418-4.725-2.991-4.724 2.991 1.385-5.418-4.305-3.568 5.58-.357zm-7.282 36.027 1.484 3.738 4.014.256-3.097 2.567.997 3.897-3.399-2.152-3.397 2.152.996-3.897-3.097-2.567 4.014-.257zM294.985 259.47l2.063 5.198 5.58.357-4.304 3.568 1.385 5.418-4.724-2.992-4.725 2.992 1.385-5.418-4.305-3.568 5.58-.357zm63.841 32.612 1.742 4.386 4.71.302-3.634 3.01 1.17 4.573-3.988-2.525-3.987 2.525 1.17-4.572-3.633-3.011 4.709-.301zm-38.647 22.87 1.11 2.796 3.002.192-2.316 1.92.746 2.914-2.542-1.61-2.542 1.61.745-2.915-2.316-1.92 3.002-.191zm-12.443 5.415 2.065 5.197 5.58.357-4.305 3.568 1.385 5.418-4.725-2.992-4.724 2.992 1.386-5.418-4.305-3.568 5.58-.357zm-16.641 13.809 1.742 4.386 4.709.302-3.633 3.01 1.17 4.573-3.988-2.525-3.987 2.525 1.17-4.572-3.633-3.011 4.709-.302zm44.9 1.124 1.742 4.385 4.709.302-3.633 3.01 1.169 4.573-3.987-2.525-3.987 2.525 1.17-4.572-3.633-3.011 4.709-.302zm-3.162 16.681 1.484 3.739 4.014.257-3.096 2.567.996 3.896-3.398-2.151-3.398 2.151.996-3.896-3.097-2.567 4.015-.257zm21.4 12.659 2.063 5.197 5.58.357-4.304 3.568 1.385 5.418-4.724-2.992-4.725 2.992 1.385-5.418-4.305-3.568 5.58-.357zm56.958 39.554.793 1.997 2.143.137-1.653 1.37.531 2.081-1.814-1.149-1.815 1.149.532-2.081-1.653-1.37 2.143-.137zm2.164-94.667 1.742 4.385 4.709.302-3.633 3.01 1.17 4.573-3.988-2.525-3.986 2.525 1.168-4.572-3.632-3.011 4.71-.302zm13.191 12.338 1.741 4.386 4.71.3-3.633 3.012 1.169 4.572-3.987-2.525-3.987 2.525 1.169-4.572-3.633-3.011 4.71-.301zm-20.85 13.795 1.11 2.796 3.002.192-2.315 1.92.745 2.914-2.542-1.61-2.542 1.61.745-2.915-2.316-1.92 3.003-.191zm-9.621-10.89 1.485 3.739 4.014.257-3.097 2.566.997 3.897-3.399-2.152-3.398 2.152.996-3.897-3.096-2.566 4.014-.257zm16.057 26.991 2.063 5.198 5.58.357-4.304 3.568 1.385 5.418-4.724-2.992-4.725 2.992 1.385-5.418-4.305-3.568 5.58-.357zm30.886 18.053 1.485 3.74 4.013.256-3.096 2.567.996 3.897-3.398-2.152-3.398 2.152.996-3.897-3.096-2.567 4.013-.257zm11.822 16.804 1.74 4.386 4.71.301-3.633 3.011 1.17 4.572-3.988-2.524-3.987 2.524 1.17-4.572-3.633-3.01 4.709-.302zm13.163-13.175 1.485 3.738 4.014.257-3.097 2.567.997 3.897-3.399-2.152-3.398 2.152.997-3.897-3.097-2.567 4.014-.257zm17.195 25.799 1.484 3.739 4.014.256-3.096 2.567.996 3.897-3.398-2.152-3.399 2.152.997-3.897-3.097-2.567 4.014-.256zm.167-16.122 1.742 4.385 4.709.302-3.633 3.01 1.169 4.573-3.987-2.525-3.987 2.525 1.17-4.572-3.634-3.011 4.71-.302zm-.392-13.021 1.484 3.738 4.014.257-3.097 2.567.997 3.897-3.398-2.152-3.399 2.152.997-3.897-3.097-2.567 4.014-.257zm14.241.141 1.484 3.74 4.015.255-3.097 2.567.997 3.897-3.399-2.152-3.398 2.152.996-3.897-3.096-2.567 4.013-.256zm13.469-7.088 1.741 4.386 4.71.301-3.633 3.012 1.169 4.572-3.987-2.525-3.987 2.525 1.169-4.572-3.633-3.012 4.71-.301zm6.819-11.44 1.741 4.386 4.71.301-3.634 3.011 1.17 4.572-3.987-2.525-3.987 2.525 1.169-4.572-3.633-3.01 4.71-.302zm-5.709-15.432 2.064 5.198 5.58.357-4.305 3.569 1.385 5.418-4.724-2.992-4.725 2.992 1.386-5.418-4.305-3.569 5.58-.357zm21.106 3.509 1.485 3.738 4.013.257-3.096 2.567.996 3.897-3.398-2.152-3.398 2.152.996-3.897-3.096-2.567 4.014-.257z"/><path fill="#fff" d="M278.15 239.589a145.062 145.062 0 0 0-4.94 14.59 344.796 344.796 0 0 1 52.412-4.004c86.822 0 166.509 32.444 228.257 86.133a145.106 145.106 0 0 0 3.68-14.88c-61.948-53.347-141.745-85.569-228.666-85.569a347.963 347.963 0 0 0-50.744 3.73z"/><path fill="#009440" d="m289.92 245.442-.002-.026c-.236-2.575 1.601-4.871 4.396-5.128 2.795-.257 4.992 1.642 5.229 4.216l.003.026c.236 2.575-1.601 4.871-4.396 5.128-2.795.258-4.992-1.641-5.229-4.216zm7.544-.694-.002-.026c-.143-1.553-1.4-2.742-3.005-2.594-1.604.148-2.6 1.518-2.458 3.07l.002.026c.143 1.553 1.4 2.742 3.005 2.595 1.605-.148 2.6-1.518 2.458-3.07zm9.214-5.235 4.155-.19c1.155-.053 2.066.23 2.69.8.53.484.836 1.185.875 2.042l.001.027c.068 1.467-.682 2.425-1.818 2.906l2.369 3.145-2.338.107-2.08-2.82-.027.002-1.545.07.134 2.909-2 .092zm4.227 4.23c.974-.044 1.508-.589 1.474-1.355l-.001-.026c-.04-.857-.657-1.271-1.631-1.227l-1.987.092.12 2.61zm10.901-4.761 3.55-.008c2.86-.007 4.84 1.952 4.846 4.513v.027c.006 2.56-1.965 4.554-4.825 4.561l-3.55.008zm3.566 7.286c1.638-.004 2.741-1.112 2.737-2.724v-.026c-.004-1.612-1.111-2.74-2.75-2.737l-1.546.004.012 5.486zm12.373-7.13 6.856.282-.073 1.779-4.87-.2-.075 1.843 4.285.177-.073 1.779-4.286-.176-.078 1.908 4.935.204-.074 1.778-6.92-.284zm14.441.729 2.15.182 2.06 4.037 2.708-3.632 2.15.182-.768 9.068-1.983-.168.502-5.92-2.88 3.657-.052-.004-2.201-4.049-.499 5.882-1.956-.167zm30.644 3.582 6.767 1.152-.299 1.756-4.807-.818-.31 1.82 4.23.72-.299 1.756-4.23-.72-.32 1.884 4.87.83-.298 1.755-6.832-1.163zm28.704 5.864 3.6.93c2.103.542 3.053 2.117 2.588 3.917l-.007.025c-.527 2.04-2.386 2.687-4.362 2.177l-1.473-.38-.683 2.643-1.938-.5zm2.327 5.34c.97.25 1.686-.182 1.88-.937l.007-.025c.224-.87-.26-1.49-1.229-1.741l-1.498-.387-.695 2.694zm15.162-.526 3.97 1.25c1.104.347 1.862.927 2.253 1.677.332.636.377 1.4.12 2.22l-.009.024c-.441 1.402-1.475 2.044-2.708 2.106l1.145 3.77-2.233-.704-.986-3.365-.025-.008-1.476-.464-.875 2.778-1.91-.601zm2.518 5.428c.93.293 1.62-.035 1.85-.767l.008-.025c.258-.818-.18-1.42-1.11-1.713l-1.898-.598-.785 2.494zm13.409 4.674.009-.025c.914-2.42 3.572-3.681 6.199-2.689 2.626.993 3.772 3.662 2.858 6.082l-.01.025c-.913 2.42-3.571 3.68-6.198 2.689-2.627-.992-3.772-3.662-2.859-6.082zm7.09 2.677.01-.024c.55-1.46-.061-3.08-1.569-3.65-1.508-.569-3.004.228-3.555 1.687l-.009.025c-.551 1.46.06 3.08 1.568 3.649 1.508.57 3.004-.227 3.555-1.687zm11.782 4.777.01-.024c1.048-2.365 3.749-3.487 6.269-2.371 1.497.663 2.221 1.468 2.763 2.589l-1.77.88c-.404-.82-.838-1.381-1.8-1.808-1.332-.589-2.91.119-3.537 1.534l-.01.023c-.675 1.522-.123 3.102 1.35 3.756.666.294 1.334.39 1.945.263l.526-1.188-1.842-.816.7-1.581 3.614 1.6-1.6 3.613c-1.178.347-2.618.42-4.14-.254-2.59-1.147-3.568-3.756-2.478-6.216zm20.06 4.246 3.706 1.89c1.03.525 1.682 1.222 1.943 2.026.222.682.14 1.443-.25 2.208l-.011.023c-.668 1.308-1.793 1.77-3.019 1.627l.504 3.906-2.084-1.063-.415-3.48-.023-.013-1.378-.702-1.323 2.594-1.784-.91zm1.583 5.768c.868.443 1.603.234 1.95-.45l.013-.023c.389-.764.057-1.43-.811-1.873l-1.772-.903-1.187 2.328zm15.065 3.063 5.946 3.424-.888 1.543-4.223-2.432-.921 1.6 3.716 2.14-.888 1.542-3.716-2.14-.954 1.655 4.28 2.465-.889 1.543-6.002-3.457zm10.848 15.51 1.76-.551c.324 1.011.813 1.836 1.686 2.399.689.443 1.28.436 1.568-.01l.014-.023c.275-.426.153-.814-.914-1.964-1.287-1.385-2.007-2.45-1.03-3.97l.015-.022c.893-1.387 2.598-1.588 4.16-.581 1.115.717 1.84 1.679 2.215 2.8l-1.69.705c-.375-.906-.859-1.619-1.503-2.034-.645-.414-1.173-.338-1.412.034l-.014.022c-.324.502-.102.877 1.002 2.067 1.291 1.403 1.807 2.523.948 3.856l-.014.021c-.977 1.519-2.684 1.625-4.334.564a5.792 5.792 0 0 1-2.457-3.314zm14.353 9.527 1.786-.465c.273 1.025.722 1.873 1.568 2.477.666.476 1.257.498 1.567.065l.015-.022c.294-.412.192-.804-.82-2.005-1.218-1.446-1.886-2.545-.836-4.016l.015-.02c.959-1.343 2.672-1.462 4.184-.382 1.08.771 1.757 1.766 2.077 2.906l-1.721.622c-.331-.923-.78-1.66-1.404-2.105-.624-.445-1.156-.394-1.412-.034l-.016.02c-.347.487-.143.873.902 2.114 1.223 1.464 1.683 2.607.761 3.897l-.015.022c-1.05 1.47-2.76 1.494-4.356.353-1.121-.8-1.973-2-2.295-3.427zm16.186 7.933.016-.02c1.612-2.022 4.528-2.406 6.724-.657 2.194 1.75 2.465 4.643.853 6.666l-.017.02c-1.612 2.022-4.528 2.406-6.723.656-2.195-1.75-2.465-4.642-.853-6.665zm5.924 4.724.017-.02c.972-1.22.888-2.949-.372-3.954-1.26-1.004-2.929-.705-3.901.515l-.016.02c-.973 1.22-.888 2.949.372 3.954 1.26 1.004 2.928.705 3.9-.515z"/></g></svg>
