<svg xmlns="http://www.w3.org/2000/svg" viewbox="0 0 256 256" style="isolation:isolate"><rect width="100%" height="100%" fill="none"/><g class="currentLayer"><g fill="#FFC200"><path d="M104.354 189.022h48.152c5.056 0 9.16 4.105 9.16 9.16v1.712c0 5.056-4.104 9.16-9.16 9.16h-48.152c-5.056 0-9.161-4.104-9.161-9.16v-1.711c0-5.056 4.105-9.161 9.16-9.161zM118.743 215.429h19.374a7.163 7.163 0 0 1 7.159 7.159v4.805a7.163 7.163 0 0 1-7.16 7.159h-19.373a7.163 7.163 0 0 1-7.16-7.16v-4.804a7.163 7.163 0 0 1 7.16-7.16z"/><path fill-rule="evenodd" d="M90.64 166.257c-.46 8.518 6.43 16.486 10.017 15.48h53.725c6.098-.411 9.749-4.955 10.927-13.66-1.167-22.863 27.698-43.845 29.139-79.222 1.443-35.376-27.5-66.422-65.563-67.384-38.063-.962-67.26 29.399-67.384 65.563-.126 36.164 22.575 43.784 29.139 79.223zm18.212-12.75c1.79 7.255 1.408 9.04 10.016 9.107h19.124c3.709.365 8.122-2.721 9.106-8.195 2.158-17.736 26.289-40.312 27.317-65.564 1.029-25.252-18.612-47.558-45.783-48.246-27.17-.687-45.4 21.549-47.098 47.336-1.7 25.787 21.04 40.257 27.318 65.563z"/></g></g></svg>
